%FSLAX45Y45*%
G04 Gerber Fmt 4.5, Leading zero omitted, Abs format (unit mm)*
G04 Created by KiCad (PCBNEW (5.1.5)-3) date 2021-07-20 23:36:56*
%MOMM*%
%LPD*%
G04 APERTURE LIST*
%TA.AperFunction,Profile*%
%ADD10C,0.050000*%
%TD*%
%ADD11C,0.200000*%
%ADD12C,0.300000*%
G04 APERTURE END LIST*
D10*
X1545000Y-2515000D02*
X1545000Y-765000D01*
X655000Y-765000D02*
X655000Y-2515000D01*
X250000Y0D02*
X1950000Y0D01*
X0Y-2750000D02*
X0Y-250000D01*
X250000Y-3000000D02*
X1950000Y-3000000D01*
X2200000Y-250000D02*
X2200000Y-2750000D01*
X2200000Y-2750000D02*
G75*
G02X1950000Y-3000000I-250000J0D01*
G01*
X250000Y-3000000D02*
G75*
G02X0Y-2750000I0J250000D01*
G01*
X0Y-250000D02*
G75*
G02X250000Y0I250000J0D01*
G01*
X1950000Y0D02*
G75*
G02X2200000Y-250000I0J-250000D01*
G01*
X655000Y-2515000D02*
X1545000Y-2515000D01*
X1545000Y-765000D02*
X655000Y-765000D01*
D11*
X85000Y-485000D02*
X125000Y-525000D01*
X125000Y-485000D02*
X85000Y-525000D01*
X95000Y-2460000D02*
X135000Y-2500000D01*
X135000Y-2460000D02*
X95000Y-2500000D01*
X115000Y-1600000D02*
X155000Y-1640000D01*
X155000Y-1600000D02*
X115000Y-1640000D01*
X220000Y-1570000D02*
X260000Y-1610000D01*
X260000Y-1570000D02*
X220000Y-1610000D01*
X325000Y-1315000D02*
X365000Y-1355000D01*
X365000Y-1315000D02*
X325000Y-1355000D01*
X325000Y-1620000D02*
X365000Y-1660000D01*
X365000Y-1620000D02*
X325000Y-1660000D01*
X340000Y-1830000D02*
X380000Y-1870000D01*
X380000Y-1830000D02*
X340000Y-1870000D01*
X382500Y-952500D02*
X422500Y-992500D01*
X422500Y-952500D02*
X382500Y-992500D01*
X415000Y-1205000D02*
X455000Y-1245000D01*
X455000Y-1205000D02*
X415000Y-1245000D01*
X425000Y-1305000D02*
X465000Y-1345000D01*
X465000Y-1305000D02*
X425000Y-1345000D01*
X480000Y-2880000D02*
X520000Y-2920000D01*
X520000Y-2880000D02*
X480000Y-2920000D01*
X900000Y-640000D02*
X940000Y-680000D01*
X940000Y-640000D02*
X900000Y-680000D01*
X1260000Y-2720000D02*
X1300000Y-2760000D01*
X1300000Y-2720000D02*
X1260000Y-2760000D01*
X1530000Y-185000D02*
X1570000Y-225000D01*
X1570000Y-185000D02*
X1530000Y-225000D01*
X1685000Y-2720000D02*
X1725000Y-2760000D01*
X1725000Y-2720000D02*
X1685000Y-2760000D01*
X1825000Y-2500000D02*
X1865000Y-2540000D01*
X1865000Y-2500000D02*
X1825000Y-2540000D01*
X285000Y-600000D02*
G75*
G03X285000Y-600000I-25000J0D01*
G01*
X645000Y-2735000D02*
G75*
G03X645000Y-2735000I-25000J0D01*
G01*
X725000Y-395000D02*
X725000Y-455000D01*
X695000Y-425000D02*
X755000Y-425000D01*
X850000Y-395000D02*
X850000Y-455000D01*
X820000Y-425000D02*
X880000Y-425000D01*
X975000Y-395000D02*
X975000Y-455000D01*
X945000Y-425000D02*
X1005000Y-425000D01*
X1100000Y-395000D02*
X1100000Y-455000D01*
X1070000Y-425000D02*
X1130000Y-425000D01*
X1225000Y-395000D02*
X1225000Y-455000D01*
X1195000Y-425000D02*
X1255000Y-425000D01*
X1350000Y-395000D02*
X1350000Y-455000D01*
X1320000Y-425000D02*
X1380000Y-425000D01*
X1475000Y-395000D02*
X1475000Y-455000D01*
X1445000Y-425000D02*
X1505000Y-425000D01*
X589749Y-922249D02*
X589749Y-872751D01*
X540251Y-872751D01*
X540251Y-922249D01*
X589749Y-922249D01*
X589749Y-1100249D02*
X589749Y-1050751D01*
X540251Y-1050751D01*
X540251Y-1100249D01*
X589749Y-1100249D01*
X589749Y-1278249D02*
X589749Y-1228751D01*
X540251Y-1228751D01*
X540251Y-1278249D01*
X589749Y-1278249D01*
X589749Y-1456249D02*
X589749Y-1406751D01*
X540251Y-1406751D01*
X540251Y-1456249D01*
X589749Y-1456249D01*
X589749Y-1634249D02*
X589749Y-1584751D01*
X540251Y-1584751D01*
X540251Y-1634249D01*
X589749Y-1634249D01*
X589749Y-1812249D02*
X589749Y-1762751D01*
X540251Y-1762751D01*
X540251Y-1812249D01*
X589749Y-1812249D01*
X589749Y-1990249D02*
X589749Y-1940751D01*
X540251Y-1940751D01*
X540251Y-1990249D01*
X589749Y-1990249D01*
X589749Y-2168249D02*
X589749Y-2118751D01*
X540251Y-2118751D01*
X540251Y-2168249D01*
X589749Y-2168249D01*
X1659749Y-1011249D02*
X1659749Y-961751D01*
X1610251Y-961751D01*
X1610251Y-1011249D01*
X1659749Y-1011249D01*
X1659749Y-1189249D02*
X1659749Y-1139751D01*
X1610251Y-1139751D01*
X1610251Y-1189249D01*
X1659749Y-1189249D01*
X1659749Y-1367249D02*
X1659749Y-1317751D01*
X1610251Y-1317751D01*
X1610251Y-1367249D01*
X1659749Y-1367249D01*
X1659749Y-1545249D02*
X1659749Y-1495751D01*
X1610251Y-1495751D01*
X1610251Y-1545249D01*
X1659749Y-1545249D01*
X1659749Y-1723249D02*
X1659749Y-1673751D01*
X1610251Y-1673751D01*
X1610251Y-1723249D01*
X1659749Y-1723249D01*
X1659749Y-1901249D02*
X1659749Y-1851751D01*
X1610251Y-1851751D01*
X1610251Y-1901249D01*
X1659749Y-1901249D01*
X1659749Y-2079249D02*
X1659749Y-2029751D01*
X1610251Y-2029751D01*
X1610251Y-2079249D01*
X1659749Y-2079249D01*
X1659749Y-2257249D02*
X1659749Y-2207751D01*
X1610251Y-2207751D01*
X1610251Y-2257249D01*
X1659749Y-2257249D01*
X2045000Y-657000D02*
X2095000Y-607000D01*
X2045000Y-557000D01*
X1995000Y-607000D01*
X2045000Y-657000D01*
X2045000Y-911000D02*
X2095000Y-861000D01*
X2045000Y-811000D01*
X1995000Y-861000D01*
X2045000Y-911000D01*
X2045000Y-1165000D02*
X2095000Y-1115000D01*
X2045000Y-1065000D01*
X1995000Y-1115000D01*
X2045000Y-1165000D01*
X2045000Y-1419000D02*
X2095000Y-1369000D01*
X2045000Y-1319000D01*
X1995000Y-1369000D01*
X2045000Y-1419000D01*
X2045000Y-1673000D02*
X2095000Y-1623000D01*
X2045000Y-1573000D01*
X1995000Y-1623000D01*
X2045000Y-1673000D01*
X2045000Y-1927000D02*
X2095000Y-1877000D01*
X2045000Y-1827000D01*
X1995000Y-1877000D01*
X2045000Y-1927000D01*
X2045000Y-2181000D02*
X2095000Y-2131000D01*
X2045000Y-2081000D01*
X1995000Y-2131000D01*
X2045000Y-2181000D01*
X2045000Y-2435000D02*
X2095000Y-2385000D01*
X2045000Y-2335000D01*
X1995000Y-2385000D01*
X2045000Y-2435000D01*
D12*
X283928Y-3468214D02*
X283928Y-3168214D01*
X355357Y-3168214D01*
X398214Y-3182500D01*
X426786Y-3211071D01*
X441071Y-3239643D01*
X455357Y-3296786D01*
X455357Y-3339643D01*
X441071Y-3396786D01*
X426786Y-3425357D01*
X398214Y-3453929D01*
X355357Y-3468214D01*
X283928Y-3468214D01*
X583928Y-3468214D02*
X583928Y-3268214D01*
X583928Y-3325357D02*
X598214Y-3296786D01*
X612500Y-3282500D01*
X641071Y-3268214D01*
X669643Y-3268214D01*
X769643Y-3468214D02*
X769643Y-3268214D01*
X769643Y-3168214D02*
X755357Y-3182500D01*
X769643Y-3196786D01*
X783928Y-3182500D01*
X769643Y-3168214D01*
X769643Y-3196786D01*
X955357Y-3468214D02*
X926786Y-3453929D01*
X912500Y-3425357D01*
X912500Y-3168214D01*
X1112500Y-3468214D02*
X1083928Y-3453929D01*
X1069643Y-3425357D01*
X1069643Y-3168214D01*
X1455357Y-3468214D02*
X1455357Y-3168214D01*
X1555357Y-3382500D01*
X1655357Y-3168214D01*
X1655357Y-3468214D01*
X1926786Y-3468214D02*
X1926786Y-3311071D01*
X1912500Y-3282500D01*
X1883928Y-3268214D01*
X1826786Y-3268214D01*
X1798214Y-3282500D01*
X1926786Y-3453929D02*
X1898214Y-3468214D01*
X1826786Y-3468214D01*
X1798214Y-3453929D01*
X1783928Y-3425357D01*
X1783928Y-3396786D01*
X1798214Y-3368214D01*
X1826786Y-3353929D01*
X1898214Y-3353929D01*
X1926786Y-3339643D01*
X2069643Y-3268214D02*
X2069643Y-3568214D01*
X2069643Y-3282500D02*
X2098214Y-3268214D01*
X2155357Y-3268214D01*
X2183928Y-3282500D01*
X2198214Y-3296786D01*
X2212500Y-3325357D01*
X2212500Y-3411071D01*
X2198214Y-3439643D01*
X2183928Y-3453929D01*
X2155357Y-3468214D01*
X2098214Y-3468214D01*
X2069643Y-3453929D01*
X2341071Y-3439643D02*
X2355357Y-3453929D01*
X2341071Y-3468214D01*
X2326786Y-3453929D01*
X2341071Y-3439643D01*
X2341071Y-3468214D01*
X2341071Y-3282500D02*
X2355357Y-3296786D01*
X2341071Y-3311071D01*
X2326786Y-3296786D01*
X2341071Y-3282500D01*
X2341071Y-3311071D01*
X-42500Y-3942500D02*
X-2500Y-3982500D01*
X-2500Y-3942500D02*
X-42500Y-3982500D01*
X341071Y-3798214D02*
X369643Y-3798214D01*
X398214Y-3812500D01*
X412500Y-3826786D01*
X426786Y-3855357D01*
X441071Y-3912500D01*
X441071Y-3983929D01*
X426786Y-4041071D01*
X412500Y-4069643D01*
X398214Y-4083929D01*
X369643Y-4098214D01*
X341071Y-4098214D01*
X312500Y-4083929D01*
X298214Y-4069643D01*
X283928Y-4041071D01*
X269643Y-3983929D01*
X269643Y-3912500D01*
X283928Y-3855357D01*
X298214Y-3826786D01*
X312500Y-3812500D01*
X341071Y-3798214D01*
X569643Y-4069643D02*
X583928Y-4083929D01*
X569643Y-4098214D01*
X555357Y-4083929D01*
X569643Y-4069643D01*
X569643Y-4098214D01*
X841071Y-3898214D02*
X841071Y-4098214D01*
X769643Y-3783929D02*
X698214Y-3998214D01*
X883928Y-3998214D01*
X1055357Y-3798214D02*
X1083928Y-3798214D01*
X1112500Y-3812500D01*
X1126786Y-3826786D01*
X1141071Y-3855357D01*
X1155357Y-3912500D01*
X1155357Y-3983929D01*
X1141071Y-4041071D01*
X1126786Y-4069643D01*
X1112500Y-4083929D01*
X1083928Y-4098214D01*
X1055357Y-4098214D01*
X1026786Y-4083929D01*
X1012500Y-4069643D01*
X998214Y-4041071D01*
X983928Y-3983929D01*
X983928Y-3912500D01*
X998214Y-3855357D01*
X1012500Y-3826786D01*
X1026786Y-3812500D01*
X1055357Y-3798214D01*
X1283928Y-4098214D02*
X1283928Y-3898214D01*
X1283928Y-3926786D02*
X1298214Y-3912500D01*
X1326786Y-3898214D01*
X1369643Y-3898214D01*
X1398214Y-3912500D01*
X1412500Y-3941071D01*
X1412500Y-4098214D01*
X1412500Y-3941071D02*
X1426786Y-3912500D01*
X1455357Y-3898214D01*
X1498214Y-3898214D01*
X1526786Y-3912500D01*
X1541071Y-3941071D01*
X1541071Y-4098214D01*
X1683928Y-4098214D02*
X1683928Y-3898214D01*
X1683928Y-3926786D02*
X1698214Y-3912500D01*
X1726786Y-3898214D01*
X1769643Y-3898214D01*
X1798214Y-3912500D01*
X1812500Y-3941071D01*
X1812500Y-4098214D01*
X1812500Y-3941071D02*
X1826786Y-3912500D01*
X1855357Y-3898214D01*
X1898214Y-3898214D01*
X1926786Y-3912500D01*
X1941071Y-3941071D01*
X1941071Y-4098214D01*
X2526786Y-3783929D02*
X2269643Y-4169643D01*
X2912500Y-3798214D02*
X2941071Y-3798214D01*
X2969643Y-3812500D01*
X2983928Y-3826786D01*
X2998214Y-3855357D01*
X3012500Y-3912500D01*
X3012500Y-3983929D01*
X2998214Y-4041071D01*
X2983928Y-4069643D01*
X2969643Y-4083929D01*
X2941071Y-4098214D01*
X2912500Y-4098214D01*
X2883928Y-4083929D01*
X2869643Y-4069643D01*
X2855357Y-4041071D01*
X2841071Y-3983929D01*
X2841071Y-3912500D01*
X2855357Y-3855357D01*
X2869643Y-3826786D01*
X2883928Y-3812500D01*
X2912500Y-3798214D01*
X3141071Y-4069643D02*
X3155357Y-4083929D01*
X3141071Y-4098214D01*
X3126786Y-4083929D01*
X3141071Y-4069643D01*
X3141071Y-4098214D01*
X3341071Y-3798214D02*
X3369643Y-3798214D01*
X3398214Y-3812500D01*
X3412500Y-3826786D01*
X3426786Y-3855357D01*
X3441071Y-3912500D01*
X3441071Y-3983929D01*
X3426786Y-4041071D01*
X3412500Y-4069643D01*
X3398214Y-4083929D01*
X3369643Y-4098214D01*
X3341071Y-4098214D01*
X3312500Y-4083929D01*
X3298214Y-4069643D01*
X3283928Y-4041071D01*
X3269643Y-3983929D01*
X3269643Y-3912500D01*
X3283928Y-3855357D01*
X3298214Y-3826786D01*
X3312500Y-3812500D01*
X3341071Y-3798214D01*
X3726786Y-4098214D02*
X3555357Y-4098214D01*
X3641071Y-4098214D02*
X3641071Y-3798214D01*
X3612500Y-3841071D01*
X3583928Y-3869643D01*
X3555357Y-3883929D01*
X3983928Y-3798214D02*
X3926786Y-3798214D01*
X3898214Y-3812500D01*
X3883928Y-3826786D01*
X3855357Y-3869643D01*
X3841071Y-3926786D01*
X3841071Y-4041071D01*
X3855357Y-4069643D01*
X3869643Y-4083929D01*
X3898214Y-4098214D01*
X3955357Y-4098214D01*
X3983928Y-4083929D01*
X3998214Y-4069643D01*
X4012500Y-4041071D01*
X4012500Y-3969643D01*
X3998214Y-3941071D01*
X3983928Y-3926786D01*
X3955357Y-3912500D01*
X3898214Y-3912500D01*
X3869643Y-3926786D01*
X3855357Y-3941071D01*
X3841071Y-3969643D01*
X4126786Y-3798214D02*
X4126786Y-3855357D01*
X4241071Y-3798214D02*
X4241071Y-3855357D01*
X4683928Y-4212500D02*
X4669643Y-4198214D01*
X4641071Y-4155357D01*
X4626786Y-4126786D01*
X4612500Y-4083929D01*
X4598214Y-4012500D01*
X4598214Y-3955357D01*
X4612500Y-3883929D01*
X4626786Y-3841071D01*
X4641071Y-3812500D01*
X4669643Y-3769643D01*
X4683928Y-3755357D01*
X4955357Y-4098214D02*
X4783928Y-4098214D01*
X4869643Y-4098214D02*
X4869643Y-3798214D01*
X4841071Y-3841071D01*
X4812500Y-3869643D01*
X4783928Y-3883929D01*
X5212500Y-3798214D02*
X5155357Y-3798214D01*
X5126786Y-3812500D01*
X5112500Y-3826786D01*
X5083928Y-3869643D01*
X5069643Y-3926786D01*
X5069643Y-4041071D01*
X5083928Y-4069643D01*
X5098214Y-4083929D01*
X5126786Y-4098214D01*
X5183928Y-4098214D01*
X5212500Y-4083929D01*
X5226786Y-4069643D01*
X5241071Y-4041071D01*
X5241071Y-3969643D01*
X5226786Y-3941071D01*
X5212500Y-3926786D01*
X5183928Y-3912500D01*
X5126786Y-3912500D01*
X5098214Y-3926786D01*
X5083928Y-3941071D01*
X5069643Y-3969643D01*
X5598214Y-4098214D02*
X5598214Y-3798214D01*
X5726786Y-4098214D02*
X5726786Y-3941071D01*
X5712500Y-3912500D01*
X5683928Y-3898214D01*
X5641071Y-3898214D01*
X5612500Y-3912500D01*
X5598214Y-3926786D01*
X5912500Y-4098214D02*
X5883928Y-4083929D01*
X5869643Y-4069643D01*
X5855357Y-4041071D01*
X5855357Y-3955357D01*
X5869643Y-3926786D01*
X5883928Y-3912500D01*
X5912500Y-3898214D01*
X5955357Y-3898214D01*
X5983928Y-3912500D01*
X5998214Y-3926786D01*
X6012500Y-3955357D01*
X6012500Y-4041071D01*
X5998214Y-4069643D01*
X5983928Y-4083929D01*
X5955357Y-4098214D01*
X5912500Y-4098214D01*
X6183928Y-4098214D02*
X6155357Y-4083929D01*
X6141071Y-4055357D01*
X6141071Y-3798214D01*
X6412500Y-4083929D02*
X6383928Y-4098214D01*
X6326786Y-4098214D01*
X6298214Y-4083929D01*
X6283928Y-4055357D01*
X6283928Y-3941071D01*
X6298214Y-3912500D01*
X6326786Y-3898214D01*
X6383928Y-3898214D01*
X6412500Y-3912500D01*
X6426786Y-3941071D01*
X6426786Y-3969643D01*
X6283928Y-3998214D01*
X6541071Y-4083929D02*
X6569643Y-4098214D01*
X6626786Y-4098214D01*
X6655357Y-4083929D01*
X6669643Y-4055357D01*
X6669643Y-4041071D01*
X6655357Y-4012500D01*
X6626786Y-3998214D01*
X6583928Y-3998214D01*
X6555357Y-3983929D01*
X6541071Y-3955357D01*
X6541071Y-3941071D01*
X6555357Y-3912500D01*
X6583928Y-3898214D01*
X6626786Y-3898214D01*
X6655357Y-3912500D01*
X6769643Y-4212500D02*
X6783928Y-4198214D01*
X6812500Y-4155357D01*
X6826786Y-4126786D01*
X6841071Y-4083929D01*
X6855357Y-4012500D01*
X6855357Y-3955357D01*
X6841071Y-3883929D01*
X6826786Y-3841071D01*
X6812500Y-3812500D01*
X6783928Y-3769643D01*
X6769643Y-3755357D01*
X-2500Y-4358500D02*
G75*
G03X-2500Y-4358500I-25000J0D01*
G01*
X341071Y-4194214D02*
X369643Y-4194214D01*
X398214Y-4208500D01*
X412500Y-4222786D01*
X426786Y-4251357D01*
X441071Y-4308500D01*
X441071Y-4379929D01*
X426786Y-4437072D01*
X412500Y-4465643D01*
X398214Y-4479929D01*
X369643Y-4494214D01*
X341071Y-4494214D01*
X312500Y-4479929D01*
X298214Y-4465643D01*
X283928Y-4437072D01*
X269643Y-4379929D01*
X269643Y-4308500D01*
X283928Y-4251357D01*
X298214Y-4222786D01*
X312500Y-4208500D01*
X341071Y-4194214D01*
X569643Y-4465643D02*
X583928Y-4479929D01*
X569643Y-4494214D01*
X555357Y-4479929D01*
X569643Y-4465643D01*
X569643Y-4494214D01*
X855357Y-4194214D02*
X712500Y-4194214D01*
X698214Y-4337072D01*
X712500Y-4322786D01*
X741071Y-4308500D01*
X812500Y-4308500D01*
X841071Y-4322786D01*
X855357Y-4337072D01*
X869643Y-4365643D01*
X869643Y-4437072D01*
X855357Y-4465643D01*
X841071Y-4479929D01*
X812500Y-4494214D01*
X741071Y-4494214D01*
X712500Y-4479929D01*
X698214Y-4465643D01*
X1055357Y-4194214D02*
X1083928Y-4194214D01*
X1112500Y-4208500D01*
X1126786Y-4222786D01*
X1141071Y-4251357D01*
X1155357Y-4308500D01*
X1155357Y-4379929D01*
X1141071Y-4437072D01*
X1126786Y-4465643D01*
X1112500Y-4479929D01*
X1083928Y-4494214D01*
X1055357Y-4494214D01*
X1026786Y-4479929D01*
X1012500Y-4465643D01*
X998214Y-4437072D01*
X983928Y-4379929D01*
X983928Y-4308500D01*
X998214Y-4251357D01*
X1012500Y-4222786D01*
X1026786Y-4208500D01*
X1055357Y-4194214D01*
X1283928Y-4494214D02*
X1283928Y-4294214D01*
X1283928Y-4322786D02*
X1298214Y-4308500D01*
X1326786Y-4294214D01*
X1369643Y-4294214D01*
X1398214Y-4308500D01*
X1412500Y-4337072D01*
X1412500Y-4494214D01*
X1412500Y-4337072D02*
X1426786Y-4308500D01*
X1455357Y-4294214D01*
X1498214Y-4294214D01*
X1526786Y-4308500D01*
X1541071Y-4337072D01*
X1541071Y-4494214D01*
X1683928Y-4494214D02*
X1683928Y-4294214D01*
X1683928Y-4322786D02*
X1698214Y-4308500D01*
X1726786Y-4294214D01*
X1769643Y-4294214D01*
X1798214Y-4308500D01*
X1812500Y-4337072D01*
X1812500Y-4494214D01*
X1812500Y-4337072D02*
X1826786Y-4308500D01*
X1855357Y-4294214D01*
X1898214Y-4294214D01*
X1926786Y-4308500D01*
X1941071Y-4337072D01*
X1941071Y-4494214D01*
X2526786Y-4179929D02*
X2269643Y-4565643D01*
X2912500Y-4194214D02*
X2941071Y-4194214D01*
X2969643Y-4208500D01*
X2983928Y-4222786D01*
X2998214Y-4251357D01*
X3012500Y-4308500D01*
X3012500Y-4379929D01*
X2998214Y-4437072D01*
X2983928Y-4465643D01*
X2969643Y-4479929D01*
X2941071Y-4494214D01*
X2912500Y-4494214D01*
X2883928Y-4479929D01*
X2869643Y-4465643D01*
X2855357Y-4437072D01*
X2841071Y-4379929D01*
X2841071Y-4308500D01*
X2855357Y-4251357D01*
X2869643Y-4222786D01*
X2883928Y-4208500D01*
X2912500Y-4194214D01*
X3141071Y-4465643D02*
X3155357Y-4479929D01*
X3141071Y-4494214D01*
X3126786Y-4479929D01*
X3141071Y-4465643D01*
X3141071Y-4494214D01*
X3341071Y-4194214D02*
X3369643Y-4194214D01*
X3398214Y-4208500D01*
X3412500Y-4222786D01*
X3426786Y-4251357D01*
X3441071Y-4308500D01*
X3441071Y-4379929D01*
X3426786Y-4437072D01*
X3412500Y-4465643D01*
X3398214Y-4479929D01*
X3369643Y-4494214D01*
X3341071Y-4494214D01*
X3312500Y-4479929D01*
X3298214Y-4465643D01*
X3283928Y-4437072D01*
X3269643Y-4379929D01*
X3269643Y-4308500D01*
X3283928Y-4251357D01*
X3298214Y-4222786D01*
X3312500Y-4208500D01*
X3341071Y-4194214D01*
X3555357Y-4222786D02*
X3569643Y-4208500D01*
X3598214Y-4194214D01*
X3669643Y-4194214D01*
X3698214Y-4208500D01*
X3712500Y-4222786D01*
X3726786Y-4251357D01*
X3726786Y-4279929D01*
X3712500Y-4322786D01*
X3541071Y-4494214D01*
X3726786Y-4494214D01*
X3912500Y-4194214D02*
X3941071Y-4194214D01*
X3969643Y-4208500D01*
X3983928Y-4222786D01*
X3998214Y-4251357D01*
X4012500Y-4308500D01*
X4012500Y-4379929D01*
X3998214Y-4437072D01*
X3983928Y-4465643D01*
X3969643Y-4479929D01*
X3941071Y-4494214D01*
X3912500Y-4494214D01*
X3883928Y-4479929D01*
X3869643Y-4465643D01*
X3855357Y-4437072D01*
X3841071Y-4379929D01*
X3841071Y-4308500D01*
X3855357Y-4251357D01*
X3869643Y-4222786D01*
X3883928Y-4208500D01*
X3912500Y-4194214D01*
X4126786Y-4194214D02*
X4126786Y-4251357D01*
X4241071Y-4194214D02*
X4241071Y-4251357D01*
X4683928Y-4608500D02*
X4669643Y-4594214D01*
X4641071Y-4551357D01*
X4626786Y-4522786D01*
X4612500Y-4479929D01*
X4598214Y-4408500D01*
X4598214Y-4351357D01*
X4612500Y-4279929D01*
X4626786Y-4237072D01*
X4641071Y-4208500D01*
X4669643Y-4165643D01*
X4683928Y-4151357D01*
X4783928Y-4222786D02*
X4798214Y-4208500D01*
X4826786Y-4194214D01*
X4898214Y-4194214D01*
X4926786Y-4208500D01*
X4941071Y-4222786D01*
X4955357Y-4251357D01*
X4955357Y-4279929D01*
X4941071Y-4322786D01*
X4769643Y-4494214D01*
X4955357Y-4494214D01*
X5312500Y-4494214D02*
X5312500Y-4194214D01*
X5441071Y-4494214D02*
X5441071Y-4337072D01*
X5426786Y-4308500D01*
X5398214Y-4294214D01*
X5355357Y-4294214D01*
X5326786Y-4308500D01*
X5312500Y-4322786D01*
X5626786Y-4494214D02*
X5598214Y-4479929D01*
X5583928Y-4465643D01*
X5569643Y-4437072D01*
X5569643Y-4351357D01*
X5583928Y-4322786D01*
X5598214Y-4308500D01*
X5626786Y-4294214D01*
X5669643Y-4294214D01*
X5698214Y-4308500D01*
X5712500Y-4322786D01*
X5726786Y-4351357D01*
X5726786Y-4437072D01*
X5712500Y-4465643D01*
X5698214Y-4479929D01*
X5669643Y-4494214D01*
X5626786Y-4494214D01*
X5898214Y-4494214D02*
X5869643Y-4479929D01*
X5855357Y-4451357D01*
X5855357Y-4194214D01*
X6126786Y-4479929D02*
X6098214Y-4494214D01*
X6041071Y-4494214D01*
X6012500Y-4479929D01*
X5998214Y-4451357D01*
X5998214Y-4337072D01*
X6012500Y-4308500D01*
X6041071Y-4294214D01*
X6098214Y-4294214D01*
X6126786Y-4308500D01*
X6141071Y-4337072D01*
X6141071Y-4365643D01*
X5998214Y-4394214D01*
X6255357Y-4479929D02*
X6283928Y-4494214D01*
X6341071Y-4494214D01*
X6369643Y-4479929D01*
X6383928Y-4451357D01*
X6383928Y-4437072D01*
X6369643Y-4408500D01*
X6341071Y-4394214D01*
X6298214Y-4394214D01*
X6269643Y-4379929D01*
X6255357Y-4351357D01*
X6255357Y-4337072D01*
X6269643Y-4308500D01*
X6298214Y-4294214D01*
X6341071Y-4294214D01*
X6369643Y-4308500D01*
X6483928Y-4608500D02*
X6498214Y-4594214D01*
X6526786Y-4551357D01*
X6541071Y-4522786D01*
X6555357Y-4479929D01*
X6569643Y-4408500D01*
X6569643Y-4351357D01*
X6555357Y-4279929D01*
X6541071Y-4237072D01*
X6526786Y-4208500D01*
X6498214Y-4165643D01*
X6483928Y-4151357D01*
X-32500Y-4724500D02*
X-32500Y-4784500D01*
X-62500Y-4754500D02*
X-2500Y-4754500D01*
X341071Y-4590214D02*
X369643Y-4590214D01*
X398214Y-4604500D01*
X412500Y-4618786D01*
X426786Y-4647357D01*
X441071Y-4704500D01*
X441071Y-4775929D01*
X426786Y-4833072D01*
X412500Y-4861643D01*
X398214Y-4875929D01*
X369643Y-4890214D01*
X341071Y-4890214D01*
X312500Y-4875929D01*
X298214Y-4861643D01*
X283928Y-4833072D01*
X269643Y-4775929D01*
X269643Y-4704500D01*
X283928Y-4647357D01*
X298214Y-4618786D01*
X312500Y-4604500D01*
X341071Y-4590214D01*
X569643Y-4861643D02*
X583928Y-4875929D01*
X569643Y-4890214D01*
X555357Y-4875929D01*
X569643Y-4861643D01*
X569643Y-4890214D01*
X841071Y-4590214D02*
X783928Y-4590214D01*
X755357Y-4604500D01*
X741071Y-4618786D01*
X712500Y-4661643D01*
X698214Y-4718786D01*
X698214Y-4833072D01*
X712500Y-4861643D01*
X726786Y-4875929D01*
X755357Y-4890214D01*
X812500Y-4890214D01*
X841071Y-4875929D01*
X855357Y-4861643D01*
X869643Y-4833072D01*
X869643Y-4761643D01*
X855357Y-4733072D01*
X841071Y-4718786D01*
X812500Y-4704500D01*
X755357Y-4704500D01*
X726786Y-4718786D01*
X712500Y-4733072D01*
X698214Y-4761643D01*
X1055357Y-4590214D02*
X1083928Y-4590214D01*
X1112500Y-4604500D01*
X1126786Y-4618786D01*
X1141071Y-4647357D01*
X1155357Y-4704500D01*
X1155357Y-4775929D01*
X1141071Y-4833072D01*
X1126786Y-4861643D01*
X1112500Y-4875929D01*
X1083928Y-4890214D01*
X1055357Y-4890214D01*
X1026786Y-4875929D01*
X1012500Y-4861643D01*
X998214Y-4833072D01*
X983928Y-4775929D01*
X983928Y-4704500D01*
X998214Y-4647357D01*
X1012500Y-4618786D01*
X1026786Y-4604500D01*
X1055357Y-4590214D01*
X1283928Y-4890214D02*
X1283928Y-4690214D01*
X1283928Y-4718786D02*
X1298214Y-4704500D01*
X1326786Y-4690214D01*
X1369643Y-4690214D01*
X1398214Y-4704500D01*
X1412500Y-4733072D01*
X1412500Y-4890214D01*
X1412500Y-4733072D02*
X1426786Y-4704500D01*
X1455357Y-4690214D01*
X1498214Y-4690214D01*
X1526786Y-4704500D01*
X1541071Y-4733072D01*
X1541071Y-4890214D01*
X1683928Y-4890214D02*
X1683928Y-4690214D01*
X1683928Y-4718786D02*
X1698214Y-4704500D01*
X1726786Y-4690214D01*
X1769643Y-4690214D01*
X1798214Y-4704500D01*
X1812500Y-4733072D01*
X1812500Y-4890214D01*
X1812500Y-4733072D02*
X1826786Y-4704500D01*
X1855357Y-4690214D01*
X1898214Y-4690214D01*
X1926786Y-4704500D01*
X1941071Y-4733072D01*
X1941071Y-4890214D01*
X2526786Y-4575929D02*
X2269643Y-4961643D01*
X2912500Y-4590214D02*
X2941071Y-4590214D01*
X2969643Y-4604500D01*
X2983928Y-4618786D01*
X2998214Y-4647357D01*
X3012500Y-4704500D01*
X3012500Y-4775929D01*
X2998214Y-4833072D01*
X2983928Y-4861643D01*
X2969643Y-4875929D01*
X2941071Y-4890214D01*
X2912500Y-4890214D01*
X2883928Y-4875929D01*
X2869643Y-4861643D01*
X2855357Y-4833072D01*
X2841071Y-4775929D01*
X2841071Y-4704500D01*
X2855357Y-4647357D01*
X2869643Y-4618786D01*
X2883928Y-4604500D01*
X2912500Y-4590214D01*
X3141071Y-4861643D02*
X3155357Y-4875929D01*
X3141071Y-4890214D01*
X3126786Y-4875929D01*
X3141071Y-4861643D01*
X3141071Y-4890214D01*
X3341071Y-4590214D02*
X3369643Y-4590214D01*
X3398214Y-4604500D01*
X3412500Y-4618786D01*
X3426786Y-4647357D01*
X3441071Y-4704500D01*
X3441071Y-4775929D01*
X3426786Y-4833072D01*
X3412500Y-4861643D01*
X3398214Y-4875929D01*
X3369643Y-4890214D01*
X3341071Y-4890214D01*
X3312500Y-4875929D01*
X3298214Y-4861643D01*
X3283928Y-4833072D01*
X3269643Y-4775929D01*
X3269643Y-4704500D01*
X3283928Y-4647357D01*
X3298214Y-4618786D01*
X3312500Y-4604500D01*
X3341071Y-4590214D01*
X3555357Y-4618786D02*
X3569643Y-4604500D01*
X3598214Y-4590214D01*
X3669643Y-4590214D01*
X3698214Y-4604500D01*
X3712500Y-4618786D01*
X3726786Y-4647357D01*
X3726786Y-4675929D01*
X3712500Y-4718786D01*
X3541071Y-4890214D01*
X3726786Y-4890214D01*
X3983928Y-4690214D02*
X3983928Y-4890214D01*
X3912500Y-4575929D02*
X3841071Y-4790214D01*
X4026786Y-4790214D01*
X4126786Y-4590214D02*
X4126786Y-4647357D01*
X4241071Y-4590214D02*
X4241071Y-4647357D01*
X4683928Y-5004500D02*
X4669643Y-4990214D01*
X4641071Y-4947357D01*
X4626786Y-4918786D01*
X4612500Y-4875929D01*
X4598214Y-4804500D01*
X4598214Y-4747357D01*
X4612500Y-4675929D01*
X4626786Y-4633072D01*
X4641071Y-4604500D01*
X4669643Y-4561643D01*
X4683928Y-4547357D01*
X4769643Y-4590214D02*
X4969643Y-4590214D01*
X4841071Y-4890214D01*
X5312500Y-4890214D02*
X5312500Y-4590214D01*
X5441071Y-4890214D02*
X5441071Y-4733072D01*
X5426786Y-4704500D01*
X5398214Y-4690214D01*
X5355357Y-4690214D01*
X5326786Y-4704500D01*
X5312500Y-4718786D01*
X5626786Y-4890214D02*
X5598214Y-4875929D01*
X5583928Y-4861643D01*
X5569643Y-4833072D01*
X5569643Y-4747357D01*
X5583928Y-4718786D01*
X5598214Y-4704500D01*
X5626786Y-4690214D01*
X5669643Y-4690214D01*
X5698214Y-4704500D01*
X5712500Y-4718786D01*
X5726786Y-4747357D01*
X5726786Y-4833072D01*
X5712500Y-4861643D01*
X5698214Y-4875929D01*
X5669643Y-4890214D01*
X5626786Y-4890214D01*
X5898214Y-4890214D02*
X5869643Y-4875929D01*
X5855357Y-4847357D01*
X5855357Y-4590214D01*
X6126786Y-4875929D02*
X6098214Y-4890214D01*
X6041071Y-4890214D01*
X6012500Y-4875929D01*
X5998214Y-4847357D01*
X5998214Y-4733072D01*
X6012500Y-4704500D01*
X6041071Y-4690214D01*
X6098214Y-4690214D01*
X6126786Y-4704500D01*
X6141071Y-4733072D01*
X6141071Y-4761643D01*
X5998214Y-4790214D01*
X6255357Y-4875929D02*
X6283928Y-4890214D01*
X6341071Y-4890214D01*
X6369643Y-4875929D01*
X6383928Y-4847357D01*
X6383928Y-4833072D01*
X6369643Y-4804500D01*
X6341071Y-4790214D01*
X6298214Y-4790214D01*
X6269643Y-4775929D01*
X6255357Y-4747357D01*
X6255357Y-4733072D01*
X6269643Y-4704500D01*
X6298214Y-4690214D01*
X6341071Y-4690214D01*
X6369643Y-4704500D01*
X6483928Y-5004500D02*
X6498214Y-4990214D01*
X6526786Y-4947357D01*
X6541071Y-4918786D01*
X6555357Y-4875929D01*
X6569643Y-4804500D01*
X6569643Y-4747357D01*
X6555357Y-4675929D01*
X6541071Y-4633072D01*
X6526786Y-4604500D01*
X6498214Y-4561643D01*
X6483928Y-4547357D01*
X-12751Y-5175249D02*
X-12751Y-5125751D01*
X-62249Y-5125751D01*
X-62249Y-5175249D01*
X-12751Y-5175249D01*
X341071Y-4986214D02*
X369643Y-4986214D01*
X398214Y-5000500D01*
X412500Y-5014786D01*
X426786Y-5043357D01*
X441071Y-5100500D01*
X441071Y-5171929D01*
X426786Y-5229072D01*
X412500Y-5257643D01*
X398214Y-5271929D01*
X369643Y-5286214D01*
X341071Y-5286214D01*
X312500Y-5271929D01*
X298214Y-5257643D01*
X283928Y-5229072D01*
X269643Y-5171929D01*
X269643Y-5100500D01*
X283928Y-5043357D01*
X298214Y-5014786D01*
X312500Y-5000500D01*
X341071Y-4986214D01*
X569643Y-5257643D02*
X583928Y-5271929D01*
X569643Y-5286214D01*
X555357Y-5271929D01*
X569643Y-5257643D01*
X569643Y-5286214D01*
X683928Y-4986214D02*
X883928Y-4986214D01*
X755357Y-5286214D01*
X1055357Y-4986214D02*
X1083928Y-4986214D01*
X1112500Y-5000500D01*
X1126786Y-5014786D01*
X1141071Y-5043357D01*
X1155357Y-5100500D01*
X1155357Y-5171929D01*
X1141071Y-5229072D01*
X1126786Y-5257643D01*
X1112500Y-5271929D01*
X1083928Y-5286214D01*
X1055357Y-5286214D01*
X1026786Y-5271929D01*
X1012500Y-5257643D01*
X998214Y-5229072D01*
X983928Y-5171929D01*
X983928Y-5100500D01*
X998214Y-5043357D01*
X1012500Y-5014786D01*
X1026786Y-5000500D01*
X1055357Y-4986214D01*
X1283928Y-5286214D02*
X1283928Y-5086214D01*
X1283928Y-5114786D02*
X1298214Y-5100500D01*
X1326786Y-5086214D01*
X1369643Y-5086214D01*
X1398214Y-5100500D01*
X1412500Y-5129072D01*
X1412500Y-5286214D01*
X1412500Y-5129072D02*
X1426786Y-5100500D01*
X1455357Y-5086214D01*
X1498214Y-5086214D01*
X1526786Y-5100500D01*
X1541071Y-5129072D01*
X1541071Y-5286214D01*
X1683928Y-5286214D02*
X1683928Y-5086214D01*
X1683928Y-5114786D02*
X1698214Y-5100500D01*
X1726786Y-5086214D01*
X1769643Y-5086214D01*
X1798214Y-5100500D01*
X1812500Y-5129072D01*
X1812500Y-5286214D01*
X1812500Y-5129072D02*
X1826786Y-5100500D01*
X1855357Y-5086214D01*
X1898214Y-5086214D01*
X1926786Y-5100500D01*
X1941071Y-5129072D01*
X1941071Y-5286214D01*
X2526786Y-4971929D02*
X2269643Y-5357643D01*
X2912500Y-4986214D02*
X2941071Y-4986214D01*
X2969643Y-5000500D01*
X2983928Y-5014786D01*
X2998214Y-5043357D01*
X3012500Y-5100500D01*
X3012500Y-5171929D01*
X2998214Y-5229072D01*
X2983928Y-5257643D01*
X2969643Y-5271929D01*
X2941071Y-5286214D01*
X2912500Y-5286214D01*
X2883928Y-5271929D01*
X2869643Y-5257643D01*
X2855357Y-5229072D01*
X2841071Y-5171929D01*
X2841071Y-5100500D01*
X2855357Y-5043357D01*
X2869643Y-5014786D01*
X2883928Y-5000500D01*
X2912500Y-4986214D01*
X3141071Y-5257643D02*
X3155357Y-5271929D01*
X3141071Y-5286214D01*
X3126786Y-5271929D01*
X3141071Y-5257643D01*
X3141071Y-5286214D01*
X3341071Y-4986214D02*
X3369643Y-4986214D01*
X3398214Y-5000500D01*
X3412500Y-5014786D01*
X3426786Y-5043357D01*
X3441071Y-5100500D01*
X3441071Y-5171929D01*
X3426786Y-5229072D01*
X3412500Y-5257643D01*
X3398214Y-5271929D01*
X3369643Y-5286214D01*
X3341071Y-5286214D01*
X3312500Y-5271929D01*
X3298214Y-5257643D01*
X3283928Y-5229072D01*
X3269643Y-5171929D01*
X3269643Y-5100500D01*
X3283928Y-5043357D01*
X3298214Y-5014786D01*
X3312500Y-5000500D01*
X3341071Y-4986214D01*
X3555357Y-5014786D02*
X3569643Y-5000500D01*
X3598214Y-4986214D01*
X3669643Y-4986214D01*
X3698214Y-5000500D01*
X3712500Y-5014786D01*
X3726786Y-5043357D01*
X3726786Y-5071929D01*
X3712500Y-5114786D01*
X3541071Y-5286214D01*
X3726786Y-5286214D01*
X3898214Y-5114786D02*
X3869643Y-5100500D01*
X3855357Y-5086214D01*
X3841071Y-5057643D01*
X3841071Y-5043357D01*
X3855357Y-5014786D01*
X3869643Y-5000500D01*
X3898214Y-4986214D01*
X3955357Y-4986214D01*
X3983928Y-5000500D01*
X3998214Y-5014786D01*
X4012500Y-5043357D01*
X4012500Y-5057643D01*
X3998214Y-5086214D01*
X3983928Y-5100500D01*
X3955357Y-5114786D01*
X3898214Y-5114786D01*
X3869643Y-5129072D01*
X3855357Y-5143357D01*
X3841071Y-5171929D01*
X3841071Y-5229072D01*
X3855357Y-5257643D01*
X3869643Y-5271929D01*
X3898214Y-5286214D01*
X3955357Y-5286214D01*
X3983928Y-5271929D01*
X3998214Y-5257643D01*
X4012500Y-5229072D01*
X4012500Y-5171929D01*
X3998214Y-5143357D01*
X3983928Y-5129072D01*
X3955357Y-5114786D01*
X4126786Y-4986214D02*
X4126786Y-5043357D01*
X4241071Y-4986214D02*
X4241071Y-5043357D01*
X4683928Y-5400500D02*
X4669643Y-5386214D01*
X4641071Y-5343357D01*
X4626786Y-5314786D01*
X4612500Y-5271929D01*
X4598214Y-5200500D01*
X4598214Y-5143357D01*
X4612500Y-5071929D01*
X4626786Y-5029072D01*
X4641071Y-5000500D01*
X4669643Y-4957643D01*
X4683928Y-4943357D01*
X4955357Y-5286214D02*
X4783928Y-5286214D01*
X4869643Y-5286214D02*
X4869643Y-4986214D01*
X4841071Y-5029072D01*
X4812500Y-5057643D01*
X4783928Y-5071929D01*
X5212500Y-4986214D02*
X5155357Y-4986214D01*
X5126786Y-5000500D01*
X5112500Y-5014786D01*
X5083928Y-5057643D01*
X5069643Y-5114786D01*
X5069643Y-5229072D01*
X5083928Y-5257643D01*
X5098214Y-5271929D01*
X5126786Y-5286214D01*
X5183928Y-5286214D01*
X5212500Y-5271929D01*
X5226786Y-5257643D01*
X5241071Y-5229072D01*
X5241071Y-5157643D01*
X5226786Y-5129072D01*
X5212500Y-5114786D01*
X5183928Y-5100500D01*
X5126786Y-5100500D01*
X5098214Y-5114786D01*
X5083928Y-5129072D01*
X5069643Y-5157643D01*
X5598214Y-5286214D02*
X5598214Y-4986214D01*
X5726786Y-5286214D02*
X5726786Y-5129072D01*
X5712500Y-5100500D01*
X5683928Y-5086214D01*
X5641071Y-5086214D01*
X5612500Y-5100500D01*
X5598214Y-5114786D01*
X5912500Y-5286214D02*
X5883928Y-5271929D01*
X5869643Y-5257643D01*
X5855357Y-5229072D01*
X5855357Y-5143357D01*
X5869643Y-5114786D01*
X5883928Y-5100500D01*
X5912500Y-5086214D01*
X5955357Y-5086214D01*
X5983928Y-5100500D01*
X5998214Y-5114786D01*
X6012500Y-5143357D01*
X6012500Y-5229072D01*
X5998214Y-5257643D01*
X5983928Y-5271929D01*
X5955357Y-5286214D01*
X5912500Y-5286214D01*
X6183928Y-5286214D02*
X6155357Y-5271929D01*
X6141071Y-5243357D01*
X6141071Y-4986214D01*
X6412500Y-5271929D02*
X6383928Y-5286214D01*
X6326786Y-5286214D01*
X6298214Y-5271929D01*
X6283928Y-5243357D01*
X6283928Y-5129072D01*
X6298214Y-5100500D01*
X6326786Y-5086214D01*
X6383928Y-5086214D01*
X6412500Y-5100500D01*
X6426786Y-5129072D01*
X6426786Y-5157643D01*
X6283928Y-5186214D01*
X6541071Y-5271929D02*
X6569643Y-5286214D01*
X6626786Y-5286214D01*
X6655357Y-5271929D01*
X6669643Y-5243357D01*
X6669643Y-5229072D01*
X6655357Y-5200500D01*
X6626786Y-5186214D01*
X6583928Y-5186214D01*
X6555357Y-5171929D01*
X6541071Y-5143357D01*
X6541071Y-5129072D01*
X6555357Y-5100500D01*
X6583928Y-5086214D01*
X6626786Y-5086214D01*
X6655357Y-5100500D01*
X6769643Y-5400500D02*
X6783928Y-5386214D01*
X6812500Y-5343357D01*
X6826786Y-5314786D01*
X6841071Y-5271929D01*
X6855357Y-5200500D01*
X6855357Y-5143357D01*
X6841071Y-5071929D01*
X6826786Y-5029072D01*
X6812500Y-5000500D01*
X6783928Y-4957643D01*
X6769643Y-4943357D01*
X-52500Y-5596500D02*
X-2500Y-5546500D01*
X-52500Y-5496500D01*
X-102500Y-5546500D01*
X-52500Y-5596500D01*
X441071Y-5682214D02*
X269643Y-5682214D01*
X355357Y-5682214D02*
X355357Y-5382214D01*
X326786Y-5425072D01*
X298214Y-5453643D01*
X269643Y-5467929D01*
X569643Y-5653643D02*
X583928Y-5667929D01*
X569643Y-5682214D01*
X555357Y-5667929D01*
X569643Y-5653643D01*
X569643Y-5682214D01*
X769643Y-5382214D02*
X798214Y-5382214D01*
X826786Y-5396500D01*
X841071Y-5410786D01*
X855357Y-5439357D01*
X869643Y-5496500D01*
X869643Y-5567929D01*
X855357Y-5625071D01*
X841071Y-5653643D01*
X826786Y-5667929D01*
X798214Y-5682214D01*
X769643Y-5682214D01*
X741071Y-5667929D01*
X726786Y-5653643D01*
X712500Y-5625071D01*
X698214Y-5567929D01*
X698214Y-5496500D01*
X712500Y-5439357D01*
X726786Y-5410786D01*
X741071Y-5396500D01*
X769643Y-5382214D01*
X1055357Y-5382214D02*
X1083928Y-5382214D01*
X1112500Y-5396500D01*
X1126786Y-5410786D01*
X1141071Y-5439357D01*
X1155357Y-5496500D01*
X1155357Y-5567929D01*
X1141071Y-5625071D01*
X1126786Y-5653643D01*
X1112500Y-5667929D01*
X1083928Y-5682214D01*
X1055357Y-5682214D01*
X1026786Y-5667929D01*
X1012500Y-5653643D01*
X998214Y-5625071D01*
X983928Y-5567929D01*
X983928Y-5496500D01*
X998214Y-5439357D01*
X1012500Y-5410786D01*
X1026786Y-5396500D01*
X1055357Y-5382214D01*
X1283928Y-5682214D02*
X1283928Y-5482214D01*
X1283928Y-5510786D02*
X1298214Y-5496500D01*
X1326786Y-5482214D01*
X1369643Y-5482214D01*
X1398214Y-5496500D01*
X1412500Y-5525072D01*
X1412500Y-5682214D01*
X1412500Y-5525072D02*
X1426786Y-5496500D01*
X1455357Y-5482214D01*
X1498214Y-5482214D01*
X1526786Y-5496500D01*
X1541071Y-5525072D01*
X1541071Y-5682214D01*
X1683928Y-5682214D02*
X1683928Y-5482214D01*
X1683928Y-5510786D02*
X1698214Y-5496500D01*
X1726786Y-5482214D01*
X1769643Y-5482214D01*
X1798214Y-5496500D01*
X1812500Y-5525072D01*
X1812500Y-5682214D01*
X1812500Y-5525072D02*
X1826786Y-5496500D01*
X1855357Y-5482214D01*
X1898214Y-5482214D01*
X1926786Y-5496500D01*
X1941071Y-5525072D01*
X1941071Y-5682214D01*
X2526786Y-5367929D02*
X2269643Y-5753643D01*
X2912500Y-5382214D02*
X2941071Y-5382214D01*
X2969643Y-5396500D01*
X2983928Y-5410786D01*
X2998214Y-5439357D01*
X3012500Y-5496500D01*
X3012500Y-5567929D01*
X2998214Y-5625071D01*
X2983928Y-5653643D01*
X2969643Y-5667929D01*
X2941071Y-5682214D01*
X2912500Y-5682214D01*
X2883928Y-5667929D01*
X2869643Y-5653643D01*
X2855357Y-5625071D01*
X2841071Y-5567929D01*
X2841071Y-5496500D01*
X2855357Y-5439357D01*
X2869643Y-5410786D01*
X2883928Y-5396500D01*
X2912500Y-5382214D01*
X3141071Y-5653643D02*
X3155357Y-5667929D01*
X3141071Y-5682214D01*
X3126786Y-5667929D01*
X3141071Y-5653643D01*
X3141071Y-5682214D01*
X3341071Y-5382214D02*
X3369643Y-5382214D01*
X3398214Y-5396500D01*
X3412500Y-5410786D01*
X3426786Y-5439357D01*
X3441071Y-5496500D01*
X3441071Y-5567929D01*
X3426786Y-5625071D01*
X3412500Y-5653643D01*
X3398214Y-5667929D01*
X3369643Y-5682214D01*
X3341071Y-5682214D01*
X3312500Y-5667929D01*
X3298214Y-5653643D01*
X3283928Y-5625071D01*
X3269643Y-5567929D01*
X3269643Y-5496500D01*
X3283928Y-5439357D01*
X3298214Y-5410786D01*
X3312500Y-5396500D01*
X3341071Y-5382214D01*
X3541071Y-5382214D02*
X3726786Y-5382214D01*
X3626786Y-5496500D01*
X3669643Y-5496500D01*
X3698214Y-5510786D01*
X3712500Y-5525072D01*
X3726786Y-5553643D01*
X3726786Y-5625071D01*
X3712500Y-5653643D01*
X3698214Y-5667929D01*
X3669643Y-5682214D01*
X3583928Y-5682214D01*
X3555357Y-5667929D01*
X3541071Y-5653643D01*
X3869643Y-5682214D02*
X3926786Y-5682214D01*
X3955357Y-5667929D01*
X3969643Y-5653643D01*
X3998214Y-5610786D01*
X4012500Y-5553643D01*
X4012500Y-5439357D01*
X3998214Y-5410786D01*
X3983928Y-5396500D01*
X3955357Y-5382214D01*
X3898214Y-5382214D01*
X3869643Y-5396500D01*
X3855357Y-5410786D01*
X3841071Y-5439357D01*
X3841071Y-5510786D01*
X3855357Y-5539357D01*
X3869643Y-5553643D01*
X3898214Y-5567929D01*
X3955357Y-5567929D01*
X3983928Y-5553643D01*
X3998214Y-5539357D01*
X4012500Y-5510786D01*
X4126786Y-5382214D02*
X4126786Y-5439357D01*
X4241071Y-5382214D02*
X4241071Y-5439357D01*
X4683928Y-5796500D02*
X4669643Y-5782214D01*
X4641071Y-5739357D01*
X4626786Y-5710786D01*
X4612500Y-5667929D01*
X4598214Y-5596500D01*
X4598214Y-5539357D01*
X4612500Y-5467929D01*
X4626786Y-5425072D01*
X4641071Y-5396500D01*
X4669643Y-5353643D01*
X4683928Y-5339357D01*
X4841071Y-5510786D02*
X4812500Y-5496500D01*
X4798214Y-5482214D01*
X4783928Y-5453643D01*
X4783928Y-5439357D01*
X4798214Y-5410786D01*
X4812500Y-5396500D01*
X4841071Y-5382214D01*
X4898214Y-5382214D01*
X4926786Y-5396500D01*
X4941071Y-5410786D01*
X4955357Y-5439357D01*
X4955357Y-5453643D01*
X4941071Y-5482214D01*
X4926786Y-5496500D01*
X4898214Y-5510786D01*
X4841071Y-5510786D01*
X4812500Y-5525072D01*
X4798214Y-5539357D01*
X4783928Y-5567929D01*
X4783928Y-5625071D01*
X4798214Y-5653643D01*
X4812500Y-5667929D01*
X4841071Y-5682214D01*
X4898214Y-5682214D01*
X4926786Y-5667929D01*
X4941071Y-5653643D01*
X4955357Y-5625071D01*
X4955357Y-5567929D01*
X4941071Y-5539357D01*
X4926786Y-5525072D01*
X4898214Y-5510786D01*
X5312500Y-5682214D02*
X5312500Y-5382214D01*
X5441071Y-5682214D02*
X5441071Y-5525072D01*
X5426786Y-5496500D01*
X5398214Y-5482214D01*
X5355357Y-5482214D01*
X5326786Y-5496500D01*
X5312500Y-5510786D01*
X5626786Y-5682214D02*
X5598214Y-5667929D01*
X5583928Y-5653643D01*
X5569643Y-5625071D01*
X5569643Y-5539357D01*
X5583928Y-5510786D01*
X5598214Y-5496500D01*
X5626786Y-5482214D01*
X5669643Y-5482214D01*
X5698214Y-5496500D01*
X5712500Y-5510786D01*
X5726786Y-5539357D01*
X5726786Y-5625071D01*
X5712500Y-5653643D01*
X5698214Y-5667929D01*
X5669643Y-5682214D01*
X5626786Y-5682214D01*
X5898214Y-5682214D02*
X5869643Y-5667929D01*
X5855357Y-5639357D01*
X5855357Y-5382214D01*
X6126786Y-5667929D02*
X6098214Y-5682214D01*
X6041071Y-5682214D01*
X6012500Y-5667929D01*
X5998214Y-5639357D01*
X5998214Y-5525072D01*
X6012500Y-5496500D01*
X6041071Y-5482214D01*
X6098214Y-5482214D01*
X6126786Y-5496500D01*
X6141071Y-5525072D01*
X6141071Y-5553643D01*
X5998214Y-5582214D01*
X6255357Y-5667929D02*
X6283928Y-5682214D01*
X6341071Y-5682214D01*
X6369643Y-5667929D01*
X6383928Y-5639357D01*
X6383928Y-5625071D01*
X6369643Y-5596500D01*
X6341071Y-5582214D01*
X6298214Y-5582214D01*
X6269643Y-5567929D01*
X6255357Y-5539357D01*
X6255357Y-5525072D01*
X6269643Y-5496500D01*
X6298214Y-5482214D01*
X6341071Y-5482214D01*
X6369643Y-5496500D01*
X6483928Y-5796500D02*
X6498214Y-5782214D01*
X6526786Y-5739357D01*
X6541071Y-5710786D01*
X6555357Y-5667929D01*
X6569643Y-5596500D01*
X6569643Y-5539357D01*
X6555357Y-5467929D01*
X6541071Y-5425072D01*
X6526786Y-5396500D01*
X6498214Y-5353643D01*
X6483928Y-5339357D01*
M02*
