G04 #@! TF.GenerationSoftware,KiCad,Pcbnew,(5.1.5)-3*
G04 #@! TF.CreationDate,2021-07-20T23:34:01+09:00*
G04 #@! TF.ProjectId,pmw3360,706d7733-3336-4302-9e6b-696361645f70,rev?*
G04 #@! TF.SameCoordinates,PX5b136e0PY4bcb138*
G04 #@! TF.FileFunction,Legend,Bot*
G04 #@! TF.FilePolarity,Positive*
%FSLAX46Y46*%
G04 Gerber Fmt 4.6, Leading zero omitted, Abs format (unit mm)*
G04 Created by KiCad (PCBNEW (5.1.5)-3) date 2021-07-20 23:34:01*
%MOMM*%
%LPD*%
G04 APERTURE LIST*
%ADD10C,0.100000*%
%ADD11C,0.120000*%
G04 APERTURE END LIST*
D10*
X16050000Y-26275000D02*
X16050000Y-26975000D01*
X16050000Y-26308333D02*
X15983333Y-26275000D01*
X15850000Y-26275000D01*
X15783333Y-26308333D01*
X15750000Y-26341666D01*
X15716666Y-26408333D01*
X15716666Y-26608333D01*
X15750000Y-26675000D01*
X15783333Y-26708333D01*
X15850000Y-26741666D01*
X15983333Y-26741666D01*
X16050000Y-26708333D01*
X15416666Y-26741666D02*
X15416666Y-26275000D01*
X15416666Y-26341666D02*
X15383333Y-26308333D01*
X15316666Y-26275000D01*
X15216666Y-26275000D01*
X15150000Y-26308333D01*
X15116666Y-26375000D01*
X15116666Y-26741666D01*
X15116666Y-26375000D02*
X15083333Y-26308333D01*
X15016666Y-26275000D01*
X14916666Y-26275000D01*
X14850000Y-26308333D01*
X14816666Y-26375000D01*
X14816666Y-26741666D01*
X14550000Y-26275000D02*
X14416666Y-26741666D01*
X14283333Y-26408333D01*
X14150000Y-26741666D01*
X14016666Y-26275000D01*
X13816666Y-26041666D02*
X13383333Y-26041666D01*
X13616666Y-26308333D01*
X13516666Y-26308333D01*
X13450000Y-26341666D01*
X13416666Y-26375000D01*
X13383333Y-26441666D01*
X13383333Y-26608333D01*
X13416666Y-26675000D01*
X13450000Y-26708333D01*
X13516666Y-26741666D01*
X13716666Y-26741666D01*
X13783333Y-26708333D01*
X13816666Y-26675000D01*
X13150000Y-26041666D02*
X12716666Y-26041666D01*
X12950000Y-26308333D01*
X12850000Y-26308333D01*
X12783333Y-26341666D01*
X12750000Y-26375000D01*
X12716666Y-26441666D01*
X12716666Y-26608333D01*
X12750000Y-26675000D01*
X12783333Y-26708333D01*
X12850000Y-26741666D01*
X13050000Y-26741666D01*
X13116666Y-26708333D01*
X13150000Y-26675000D01*
X12116666Y-26041666D02*
X12250000Y-26041666D01*
X12316666Y-26075000D01*
X12350000Y-26108333D01*
X12416666Y-26208333D01*
X12450000Y-26341666D01*
X12450000Y-26608333D01*
X12416666Y-26675000D01*
X12383333Y-26708333D01*
X12316666Y-26741666D01*
X12183333Y-26741666D01*
X12116666Y-26708333D01*
X12083333Y-26675000D01*
X12050000Y-26608333D01*
X12050000Y-26441666D01*
X12083333Y-26375000D01*
X12116666Y-26341666D01*
X12183333Y-26308333D01*
X12316666Y-26308333D01*
X12383333Y-26341666D01*
X12416666Y-26375000D01*
X12450000Y-26441666D01*
X11616666Y-26041666D02*
X11550000Y-26041666D01*
X11483333Y-26075000D01*
X11450000Y-26108333D01*
X11416666Y-26175000D01*
X11383333Y-26308333D01*
X11383333Y-26475000D01*
X11416666Y-26608333D01*
X11450000Y-26675000D01*
X11483333Y-26708333D01*
X11550000Y-26741666D01*
X11616666Y-26741666D01*
X11683333Y-26708333D01*
X11716666Y-26675000D01*
X11750000Y-26608333D01*
X11783333Y-26475000D01*
X11783333Y-26308333D01*
X11750000Y-26175000D01*
X11716666Y-26108333D01*
X11683333Y-26075000D01*
X11616666Y-26041666D01*
X11250000Y-26808333D02*
X10716666Y-26808333D01*
X10550000Y-26741666D02*
X10550000Y-26041666D01*
X10550000Y-26308333D02*
X10483333Y-26275000D01*
X10350000Y-26275000D01*
X10283333Y-26308333D01*
X10250000Y-26341666D01*
X10216666Y-26408333D01*
X10216666Y-26608333D01*
X10250000Y-26675000D01*
X10283333Y-26708333D01*
X10350000Y-26741666D01*
X10483333Y-26741666D01*
X10550000Y-26708333D01*
X9916666Y-26741666D02*
X9916666Y-26275000D01*
X9916666Y-26408333D02*
X9883333Y-26341666D01*
X9850000Y-26308333D01*
X9783333Y-26275000D01*
X9716666Y-26275000D01*
X9216666Y-26708333D02*
X9283333Y-26741666D01*
X9416666Y-26741666D01*
X9483333Y-26708333D01*
X9516666Y-26641666D01*
X9516666Y-26375000D01*
X9483333Y-26308333D01*
X9416666Y-26275000D01*
X9283333Y-26275000D01*
X9216666Y-26308333D01*
X9183333Y-26375000D01*
X9183333Y-26441666D01*
X9516666Y-26508333D01*
X8583333Y-26741666D02*
X8583333Y-26375000D01*
X8616666Y-26308333D01*
X8683333Y-26275000D01*
X8816666Y-26275000D01*
X8883333Y-26308333D01*
X8583333Y-26708333D02*
X8650000Y-26741666D01*
X8816666Y-26741666D01*
X8883333Y-26708333D01*
X8916666Y-26641666D01*
X8916666Y-26575000D01*
X8883333Y-26508333D01*
X8816666Y-26475000D01*
X8650000Y-26475000D01*
X8583333Y-26441666D01*
X8250000Y-26741666D02*
X8250000Y-26041666D01*
X8183333Y-26475000D02*
X7983333Y-26741666D01*
X7983333Y-26275000D02*
X8250000Y-26541666D01*
X7583333Y-26741666D02*
X7650000Y-26708333D01*
X7683333Y-26675000D01*
X7716666Y-26608333D01*
X7716666Y-26408333D01*
X7683333Y-26341666D01*
X7650000Y-26308333D01*
X7583333Y-26275000D01*
X7483333Y-26275000D01*
X7416666Y-26308333D01*
X7383333Y-26341666D01*
X7350000Y-26408333D01*
X7350000Y-26608333D01*
X7383333Y-26675000D01*
X7416666Y-26708333D01*
X7483333Y-26741666D01*
X7583333Y-26741666D01*
X6750000Y-26275000D02*
X6750000Y-26741666D01*
X7050000Y-26275000D02*
X7050000Y-26641666D01*
X7016666Y-26708333D01*
X6950000Y-26741666D01*
X6850000Y-26741666D01*
X6783333Y-26708333D01*
X6750000Y-26675000D01*
X6516666Y-26275000D02*
X6250000Y-26275000D01*
X6416666Y-26041666D02*
X6416666Y-26641666D01*
X6383333Y-26708333D01*
X6316666Y-26741666D01*
X6250000Y-26741666D01*
X15450000Y-27425000D02*
X15283333Y-27891666D01*
X15116666Y-27425000D01*
X14716666Y-27191666D02*
X14650000Y-27191666D01*
X14583333Y-27225000D01*
X14550000Y-27258333D01*
X14516666Y-27325000D01*
X14483333Y-27458333D01*
X14483333Y-27625000D01*
X14516666Y-27758333D01*
X14550000Y-27825000D01*
X14583333Y-27858333D01*
X14650000Y-27891666D01*
X14716666Y-27891666D01*
X14783333Y-27858333D01*
X14816666Y-27825000D01*
X14850000Y-27758333D01*
X14883333Y-27625000D01*
X14883333Y-27458333D01*
X14850000Y-27325000D01*
X14816666Y-27258333D01*
X14783333Y-27225000D01*
X14716666Y-27191666D01*
X14183333Y-27825000D02*
X14150000Y-27858333D01*
X14183333Y-27891666D01*
X14216666Y-27858333D01*
X14183333Y-27825000D01*
X14183333Y-27891666D01*
X13483333Y-27891666D02*
X13883333Y-27891666D01*
X13683333Y-27891666D02*
X13683333Y-27191666D01*
X13750000Y-27291666D01*
X13816666Y-27358333D01*
X13883333Y-27391666D01*
X11683333Y-27558333D02*
X11716666Y-27525000D01*
X11783333Y-27491666D01*
X11850000Y-27491666D01*
X11916666Y-27525000D01*
X11950000Y-27558333D01*
X11983333Y-27625000D01*
X11983333Y-27691666D01*
X11950000Y-27758333D01*
X11916666Y-27791666D01*
X11850000Y-27825000D01*
X11783333Y-27825000D01*
X11716666Y-27791666D01*
X11683333Y-27758333D01*
X11683333Y-27491666D02*
X11683333Y-27758333D01*
X11650000Y-27791666D01*
X11616666Y-27791666D01*
X11550000Y-27758333D01*
X11516666Y-27691666D01*
X11516666Y-27525000D01*
X11583333Y-27425000D01*
X11683333Y-27358333D01*
X11816666Y-27325000D01*
X11950000Y-27358333D01*
X12050000Y-27425000D01*
X12116666Y-27525000D01*
X12150000Y-27658333D01*
X12116666Y-27791666D01*
X12050000Y-27891666D01*
X11950000Y-27958333D01*
X11816666Y-27991666D01*
X11683333Y-27958333D01*
X11583333Y-27891666D01*
X10950000Y-27858333D02*
X11016666Y-27891666D01*
X11150000Y-27891666D01*
X11216666Y-27858333D01*
X11250000Y-27791666D01*
X11250000Y-27525000D01*
X11216666Y-27458333D01*
X11150000Y-27425000D01*
X11016666Y-27425000D01*
X10950000Y-27458333D01*
X10916666Y-27525000D01*
X10916666Y-27591666D01*
X11250000Y-27658333D01*
X10316666Y-27425000D02*
X10316666Y-27891666D01*
X10616666Y-27425000D02*
X10616666Y-27791666D01*
X10583333Y-27858333D01*
X10516666Y-27891666D01*
X10416666Y-27891666D01*
X10350000Y-27858333D01*
X10316666Y-27825000D01*
X9683333Y-27858333D02*
X9750000Y-27891666D01*
X9883333Y-27891666D01*
X9950000Y-27858333D01*
X9983333Y-27825000D01*
X10016666Y-27758333D01*
X10016666Y-27558333D01*
X9983333Y-27491666D01*
X9950000Y-27458333D01*
X9883333Y-27425000D01*
X9750000Y-27425000D01*
X9683333Y-27458333D01*
X9083333Y-27891666D02*
X9083333Y-27525000D01*
X9116666Y-27458333D01*
X9183333Y-27425000D01*
X9316666Y-27425000D01*
X9383333Y-27458333D01*
X9083333Y-27858333D02*
X9150000Y-27891666D01*
X9316666Y-27891666D01*
X9383333Y-27858333D01*
X9416666Y-27791666D01*
X9416666Y-27725000D01*
X9383333Y-27658333D01*
X9316666Y-27625000D01*
X9150000Y-27625000D01*
X9083333Y-27591666D01*
X8650000Y-27891666D02*
X8716666Y-27858333D01*
X8750000Y-27791666D01*
X8750000Y-27191666D01*
X8450000Y-27425000D02*
X8283333Y-27891666D01*
X8116666Y-27425000D02*
X8283333Y-27891666D01*
X8350000Y-28058333D01*
X8383333Y-28091666D01*
X8450000Y-28125000D01*
X7850000Y-27425000D02*
X7850000Y-27891666D01*
X7850000Y-27491666D02*
X7816666Y-27458333D01*
X7750000Y-27425000D01*
X7650000Y-27425000D01*
X7583333Y-27458333D01*
X7550000Y-27525000D01*
X7550000Y-27891666D01*
X7383333Y-27958333D02*
X6850000Y-27958333D01*
X19192857Y-19621428D02*
X19192857Y-19021428D01*
X18992857Y-19450000D01*
X18792857Y-19021428D01*
X18792857Y-19621428D01*
X18392857Y-19021428D02*
X18278571Y-19021428D01*
X18221428Y-19050000D01*
X18164285Y-19107142D01*
X18135714Y-19221428D01*
X18135714Y-19421428D01*
X18164285Y-19535714D01*
X18221428Y-19592857D01*
X18278571Y-19621428D01*
X18392857Y-19621428D01*
X18450000Y-19592857D01*
X18507142Y-19535714D01*
X18535714Y-19421428D01*
X18535714Y-19221428D01*
X18507142Y-19107142D01*
X18450000Y-19050000D01*
X18392857Y-19021428D01*
X17907142Y-19592857D02*
X17821428Y-19621428D01*
X17678571Y-19621428D01*
X17621428Y-19592857D01*
X17592857Y-19564285D01*
X17564285Y-19507142D01*
X17564285Y-19450000D01*
X17592857Y-19392857D01*
X17621428Y-19364285D01*
X17678571Y-19335714D01*
X17792857Y-19307142D01*
X17850000Y-19278571D01*
X17878571Y-19250000D01*
X17907142Y-19192857D01*
X17907142Y-19135714D01*
X17878571Y-19078571D01*
X17850000Y-19050000D01*
X17792857Y-19021428D01*
X17650000Y-19021428D01*
X17564285Y-19050000D01*
X17307142Y-19621428D02*
X17307142Y-19021428D01*
X19233333Y-23616666D02*
X19000000Y-24316666D01*
X18766666Y-23616666D01*
X18133333Y-24250000D02*
X18166666Y-24283333D01*
X18266666Y-24316666D01*
X18333333Y-24316666D01*
X18433333Y-24283333D01*
X18500000Y-24216666D01*
X18533333Y-24150000D01*
X18566666Y-24016666D01*
X18566666Y-23916666D01*
X18533333Y-23783333D01*
X18500000Y-23716666D01*
X18433333Y-23650000D01*
X18333333Y-23616666D01*
X18266666Y-23616666D01*
X18166666Y-23650000D01*
X18133333Y-23683333D01*
X17433333Y-24250000D02*
X17466666Y-24283333D01*
X17566666Y-24316666D01*
X17633333Y-24316666D01*
X17733333Y-24283333D01*
X17800000Y-24216666D01*
X17833333Y-24150000D01*
X17866666Y-24016666D01*
X17866666Y-23916666D01*
X17833333Y-23783333D01*
X17800000Y-23716666D01*
X17733333Y-23650000D01*
X17633333Y-23616666D01*
X17566666Y-23616666D01*
X17466666Y-23650000D01*
X17433333Y-23683333D01*
X19192857Y-21671428D02*
X19192857Y-21071428D01*
X18992857Y-21500000D01*
X18792857Y-21071428D01*
X18792857Y-21671428D01*
X18507142Y-21671428D02*
X18507142Y-21071428D01*
X18250000Y-21642857D02*
X18164285Y-21671428D01*
X18021428Y-21671428D01*
X17964285Y-21642857D01*
X17935714Y-21614285D01*
X17907142Y-21557142D01*
X17907142Y-21500000D01*
X17935714Y-21442857D01*
X17964285Y-21414285D01*
X18021428Y-21385714D01*
X18135714Y-21357142D01*
X18192857Y-21328571D01*
X18221428Y-21300000D01*
X18250000Y-21242857D01*
X18250000Y-21185714D01*
X18221428Y-21128571D01*
X18192857Y-21100000D01*
X18135714Y-21071428D01*
X17992857Y-21071428D01*
X17907142Y-21100000D01*
X17535714Y-21071428D02*
X17421428Y-21071428D01*
X17364285Y-21100000D01*
X17307142Y-21157142D01*
X17278571Y-21271428D01*
X17278571Y-21471428D01*
X17307142Y-21585714D01*
X17364285Y-21642857D01*
X17421428Y-21671428D01*
X17535714Y-21671428D01*
X17592857Y-21642857D01*
X17650000Y-21585714D01*
X17678571Y-21471428D01*
X17678571Y-21271428D01*
X17650000Y-21157142D01*
X17592857Y-21100000D01*
X17535714Y-21071428D01*
X19214285Y-16542857D02*
X19128571Y-16571428D01*
X18985714Y-16571428D01*
X18928571Y-16542857D01*
X18900000Y-16514285D01*
X18871428Y-16457142D01*
X18871428Y-16400000D01*
X18900000Y-16342857D01*
X18928571Y-16314285D01*
X18985714Y-16285714D01*
X19100000Y-16257142D01*
X19157142Y-16228571D01*
X19185714Y-16200000D01*
X19214285Y-16142857D01*
X19214285Y-16085714D01*
X19185714Y-16028571D01*
X19157142Y-16000000D01*
X19100000Y-15971428D01*
X18957142Y-15971428D01*
X18871428Y-16000000D01*
X18271428Y-16514285D02*
X18300000Y-16542857D01*
X18385714Y-16571428D01*
X18442857Y-16571428D01*
X18528571Y-16542857D01*
X18585714Y-16485714D01*
X18614285Y-16428571D01*
X18642857Y-16314285D01*
X18642857Y-16228571D01*
X18614285Y-16114285D01*
X18585714Y-16057142D01*
X18528571Y-16000000D01*
X18442857Y-15971428D01*
X18385714Y-15971428D01*
X18300000Y-16000000D01*
X18271428Y-16028571D01*
X17728571Y-16571428D02*
X18014285Y-16571428D01*
X18014285Y-15971428D01*
X17528571Y-16571428D02*
X17528571Y-15971428D01*
X17185714Y-16571428D02*
X17442857Y-16228571D01*
X17185714Y-15971428D02*
X17528571Y-16314285D01*
X18883333Y-13983333D02*
X18783333Y-14016666D01*
X18616666Y-14016666D01*
X18550000Y-13983333D01*
X18516666Y-13950000D01*
X18483333Y-13883333D01*
X18483333Y-13816666D01*
X18516666Y-13750000D01*
X18550000Y-13716666D01*
X18616666Y-13683333D01*
X18750000Y-13650000D01*
X18816666Y-13616666D01*
X18850000Y-13583333D01*
X18883333Y-13516666D01*
X18883333Y-13450000D01*
X18850000Y-13383333D01*
X18816666Y-13350000D01*
X18750000Y-13316666D01*
X18583333Y-13316666D01*
X18483333Y-13350000D01*
X18216666Y-13983333D02*
X18116666Y-14016666D01*
X17950000Y-14016666D01*
X17883333Y-13983333D01*
X17850000Y-13950000D01*
X17816666Y-13883333D01*
X17816666Y-13816666D01*
X17850000Y-13750000D01*
X17883333Y-13716666D01*
X17950000Y-13683333D01*
X18083333Y-13650000D01*
X18150000Y-13616666D01*
X18183333Y-13583333D01*
X18216666Y-13516666D01*
X18216666Y-13450000D01*
X18183333Y-13383333D01*
X18150000Y-13350000D01*
X18083333Y-13316666D01*
X17916666Y-13316666D01*
X17816666Y-13350000D01*
X19216666Y-11616666D02*
X19216666Y-10916666D01*
X18983333Y-11416666D01*
X18750000Y-10916666D01*
X18750000Y-11616666D01*
X18283333Y-10916666D02*
X18150000Y-10916666D01*
X18083333Y-10950000D01*
X18016666Y-11016666D01*
X17983333Y-11150000D01*
X17983333Y-11383333D01*
X18016666Y-11516666D01*
X18083333Y-11583333D01*
X18150000Y-11616666D01*
X18283333Y-11616666D01*
X18350000Y-11583333D01*
X18416666Y-11516666D01*
X18450000Y-11383333D01*
X18450000Y-11150000D01*
X18416666Y-11016666D01*
X18350000Y-10950000D01*
X18283333Y-10916666D01*
X17783333Y-10916666D02*
X17383333Y-10916666D01*
X17583333Y-11616666D02*
X17583333Y-10916666D01*
D11*
X17400000Y-5650000D02*
X19100000Y-5650000D01*
D10*
X18883333Y-8350000D02*
X18950000Y-8316666D01*
X19050000Y-8316666D01*
X19150000Y-8350000D01*
X19216666Y-8416666D01*
X19250000Y-8483333D01*
X19283333Y-8616666D01*
X19283333Y-8716666D01*
X19250000Y-8850000D01*
X19216666Y-8916666D01*
X19150000Y-8983333D01*
X19050000Y-9016666D01*
X18983333Y-9016666D01*
X18883333Y-8983333D01*
X18850000Y-8950000D01*
X18850000Y-8716666D01*
X18983333Y-8716666D01*
X18550000Y-9016666D02*
X18550000Y-8316666D01*
X18150000Y-9016666D01*
X18150000Y-8316666D01*
X17816666Y-9016666D02*
X17816666Y-8316666D01*
X17650000Y-8316666D01*
X17550000Y-8350000D01*
X17483333Y-8416666D01*
X17450000Y-8483333D01*
X17416666Y-8616666D01*
X17416666Y-8716666D01*
X17450000Y-8850000D01*
X17483333Y-8916666D01*
X17550000Y-8983333D01*
X17650000Y-9016666D01*
X17816666Y-9016666D01*
X18683333Y-6376190D02*
X18916666Y-6138095D01*
X19083333Y-6376190D02*
X19083333Y-5876190D01*
X18816666Y-5876190D01*
X18750000Y-5900000D01*
X18716666Y-5923809D01*
X18683333Y-5971428D01*
X18683333Y-6042857D01*
X18716666Y-6090476D01*
X18750000Y-6114285D01*
X18816666Y-6138095D01*
X19083333Y-6138095D01*
X18416666Y-6352380D02*
X18316666Y-6376190D01*
X18150000Y-6376190D01*
X18083333Y-6352380D01*
X18050000Y-6328571D01*
X18016666Y-6280952D01*
X18016666Y-6233333D01*
X18050000Y-6185714D01*
X18083333Y-6161904D01*
X18150000Y-6138095D01*
X18283333Y-6114285D01*
X18350000Y-6090476D01*
X18383333Y-6066666D01*
X18416666Y-6019047D01*
X18416666Y-5971428D01*
X18383333Y-5923809D01*
X18350000Y-5900000D01*
X18283333Y-5876190D01*
X18116666Y-5876190D01*
X18016666Y-5900000D01*
X17816666Y-5876190D02*
X17416666Y-5876190D01*
X17616666Y-6376190D02*
X17616666Y-5876190D01*
M02*
