G04 #@! TF.GenerationSoftware,KiCad,Pcbnew,(5.1.5)-3*
G04 #@! TF.CreationDate,2021-07-20T23:34:01+09:00*
G04 #@! TF.ProjectId,pmw3360,706d7733-3336-4302-9e6b-696361645f70,rev?*
G04 #@! TF.SameCoordinates,PX5b136e0PY4bcb138*
G04 #@! TF.FileFunction,Other,Comment*
%FSLAX46Y46*%
G04 Gerber Fmt 4.6, Leading zero omitted, Abs format (unit mm)*
G04 Created by KiCad (PCBNEW (5.1.5)-3) date 2021-07-20 23:34:01*
%MOMM*%
%LPD*%
G04 APERTURE LIST*
%ADD10C,0.150000*%
G04 APERTURE END LIST*
D10*
X11307142Y-20900000D02*
X11354761Y-20947619D01*
X11402380Y-21090476D01*
X11402380Y-21185714D01*
X11354761Y-21328571D01*
X11259523Y-21423809D01*
X11164285Y-21471428D01*
X10973809Y-21519047D01*
X10830952Y-21519047D01*
X10640476Y-21471428D01*
X10545238Y-21423809D01*
X10450000Y-21328571D01*
X10402380Y-21185714D01*
X10402380Y-21090476D01*
X10450000Y-20947619D01*
X10497619Y-20900000D01*
X10735714Y-20042857D02*
X11402380Y-20042857D01*
X10735714Y-20471428D02*
X11259523Y-20471428D01*
X11354761Y-20423809D01*
X11402380Y-20328571D01*
X11402380Y-20185714D01*
X11354761Y-20090476D01*
X11307142Y-20042857D01*
X10735714Y-19709523D02*
X10735714Y-19328571D01*
X10402380Y-19566666D02*
X11259523Y-19566666D01*
X11354761Y-19519047D01*
X11402380Y-19423809D01*
X11402380Y-19328571D01*
X11402380Y-18090476D02*
X11354761Y-18185714D01*
X11307142Y-18233333D01*
X11211904Y-18280952D01*
X10926190Y-18280952D01*
X10830952Y-18233333D01*
X10783333Y-18185714D01*
X10735714Y-18090476D01*
X10735714Y-17947619D01*
X10783333Y-17852380D01*
X10830952Y-17804761D01*
X10926190Y-17757142D01*
X11211904Y-17757142D01*
X11307142Y-17804761D01*
X11354761Y-17852380D01*
X11402380Y-17947619D01*
X11402380Y-18090476D01*
X10735714Y-16900000D02*
X11402380Y-16900000D01*
X10735714Y-17328571D02*
X11259523Y-17328571D01*
X11354761Y-17280952D01*
X11402380Y-17185714D01*
X11402380Y-17042857D01*
X11354761Y-16947619D01*
X11307142Y-16900000D01*
X10735714Y-16566666D02*
X10735714Y-16185714D01*
X10402380Y-16423809D02*
X11259523Y-16423809D01*
X11354761Y-16376190D01*
X11402380Y-16280952D01*
X11402380Y-16185714D01*
X11402380Y-15090476D02*
X10402380Y-15090476D01*
X11402380Y-14661904D02*
X10878571Y-14661904D01*
X10783333Y-14709523D01*
X10735714Y-14804761D01*
X10735714Y-14947619D01*
X10783333Y-15042857D01*
X10830952Y-15090476D01*
X11354761Y-13804761D02*
X11402380Y-13900000D01*
X11402380Y-14090476D01*
X11354761Y-14185714D01*
X11259523Y-14233333D01*
X10878571Y-14233333D01*
X10783333Y-14185714D01*
X10735714Y-14090476D01*
X10735714Y-13900000D01*
X10783333Y-13804761D01*
X10878571Y-13757142D01*
X10973809Y-13757142D01*
X11069047Y-14233333D01*
X11402380Y-13328571D02*
X10735714Y-13328571D01*
X10926190Y-13328571D02*
X10830952Y-13280952D01*
X10783333Y-13233333D01*
X10735714Y-13138095D01*
X10735714Y-13042857D01*
X11354761Y-12328571D02*
X11402380Y-12423809D01*
X11402380Y-12614285D01*
X11354761Y-12709523D01*
X11259523Y-12757142D01*
X10878571Y-12757142D01*
X10783333Y-12709523D01*
X10735714Y-12614285D01*
X10735714Y-12423809D01*
X10783333Y-12328571D01*
X10878571Y-12280952D01*
X10973809Y-12280952D01*
X11069047Y-12757142D01*
X21700000Y-27500000D02*
G75*
G03X21700000Y-27500000I-2200000J0D01*
G01*
X4700000Y-27500000D02*
G75*
G03X4700000Y-27500000I-2200000J0D01*
G01*
X4700000Y-2500000D02*
G75*
G03X4700000Y-2500000I-2200000J0D01*
G01*
X21700000Y-2525000D02*
G75*
G03X21700000Y-2525000I-2200000J0D01*
G01*
M02*
