G04 #@! TF.GenerationSoftware,KiCad,Pcbnew,(5.1.5)-3*
G04 #@! TF.CreationDate,2021-07-20T23:34:02+09:00*
G04 #@! TF.ProjectId,pmw3360,706d7733-3336-4302-9e6b-696361645f70,rev?*
G04 #@! TF.SameCoordinates,PX5b136e0PY4bcb138*
G04 #@! TF.FileFunction,Other,Fab,Top*
%FSLAX46Y46*%
G04 Gerber Fmt 4.6, Leading zero omitted, Abs format (unit mm)*
G04 Created by KiCad (PCBNEW (5.1.5)-3) date 2021-07-20 23:34:02*
%MOMM*%
%LPD*%
G04 APERTURE LIST*
%ADD10C,0.100000*%
%ADD11C,0.200000*%
%ADD12C,0.060000*%
%ADD13C,0.150000*%
%ADD14C,0.075000*%
%ADD15C,0.030000*%
G04 APERTURE END LIST*
D10*
X12916666Y-27833333D02*
X13483333Y-27833333D01*
X13550000Y-27800000D01*
X13583333Y-27766666D01*
X13616666Y-27700000D01*
X13616666Y-27566666D01*
X13583333Y-27500000D01*
X13550000Y-27466666D01*
X13483333Y-27433333D01*
X12916666Y-27433333D01*
X12983333Y-27133333D02*
X12950000Y-27100000D01*
X12916666Y-27033333D01*
X12916666Y-26866666D01*
X12950000Y-26800000D01*
X12983333Y-26766666D01*
X13050000Y-26733333D01*
X13116666Y-26733333D01*
X13216666Y-26766666D01*
X13616666Y-27166666D01*
X13616666Y-26733333D01*
X16550001Y-26587500D02*
X16550001Y-28187500D01*
X15750001Y-26587500D02*
X16550001Y-26587500D01*
X15750001Y-28187500D02*
X15750001Y-26587500D01*
X16550001Y-28187500D02*
X15750001Y-28187500D01*
X18600000Y-11362500D02*
X18600000Y-12962500D01*
X17800000Y-11362500D02*
X18600000Y-11362500D01*
X17800000Y-12962500D02*
X17800000Y-11362500D01*
X18600000Y-12962500D02*
X17800000Y-12962500D01*
X8550000Y-28187500D02*
X8550000Y-26587500D01*
X9350000Y-28187500D02*
X8550000Y-28187500D01*
X9350000Y-26587500D02*
X9350000Y-28187500D01*
X8550000Y-26587500D02*
X9350000Y-26587500D01*
X7250000Y-4442893D02*
X7750000Y-5150000D01*
X6750000Y-5150000D02*
X7250000Y-4442893D01*
X16200000Y250000D02*
X5800000Y250000D01*
X16200000Y-5150000D02*
X16200000Y250000D01*
X5800000Y-5150000D02*
X16200000Y-5150000D01*
X5800000Y250000D02*
X5800000Y-5150000D01*
X1750000Y-6162500D02*
X1750000Y-7762500D01*
X950000Y-6162500D02*
X1750000Y-6162500D01*
X950000Y-7762500D02*
X950000Y-6162500D01*
X1750000Y-7762500D02*
X950000Y-7762500D01*
X2050000Y-13287500D02*
X2050000Y-14887500D01*
X1250000Y-13287500D02*
X2050000Y-13287500D01*
X1250000Y-14887500D02*
X1250000Y-13287500D01*
X2050000Y-14887500D02*
X1250000Y-14887500D01*
X7650000Y-26587500D02*
X7650000Y-28187500D01*
X6850000Y-26587500D02*
X7650000Y-26587500D01*
X6850000Y-28187500D02*
X6850000Y-26587500D01*
X7650000Y-28187500D02*
X6850000Y-28187500D01*
X11100000Y-26587500D02*
X11100000Y-28187500D01*
X10300000Y-26587500D02*
X11100000Y-26587500D01*
X10300000Y-28187500D02*
X10300000Y-26587500D01*
X11100000Y-28187500D02*
X10300000Y-28187500D01*
X18600000Y-16112500D02*
X18600000Y-17712500D01*
X17800000Y-16112500D02*
X18600000Y-16112500D01*
X17800000Y-17712500D02*
X17800000Y-16112500D01*
X18600000Y-17712500D02*
X17800000Y-17712500D01*
X17800000Y-21437500D02*
X17800000Y-19837500D01*
X18600000Y-21437500D02*
X17800000Y-21437500D01*
X18600000Y-19837500D02*
X18600000Y-21437500D01*
X17800000Y-19837500D02*
X18600000Y-19837500D01*
X1750000Y-18675000D02*
X2250000Y-19175000D01*
X3950000Y-17825000D02*
X3950000Y-19175000D01*
X1750000Y-17825000D02*
X3950000Y-17825000D01*
X2250000Y-19175000D02*
X3950000Y-19175000D01*
X1750000Y-17825000D02*
X1750000Y-18675000D01*
D11*
X6450000Y-7550000D02*
X15550000Y-7550000D01*
X6450000Y-23750000D02*
X6450000Y-7550000D01*
X15550000Y-23750000D02*
X6450000Y-23750000D01*
X15550000Y-7550000D02*
X15550000Y-23750000D01*
D10*
X1150000Y-11100000D02*
X1150000Y-9750000D01*
X3150000Y-11450000D02*
X1650000Y-11450000D01*
X3150000Y-9750000D02*
X3150000Y-11450000D01*
X1150000Y-9750000D02*
X3150000Y-9750000D01*
X1150000Y-11100000D02*
X1650000Y-11450000D01*
X21720000Y-24485000D02*
X21085000Y-25120000D01*
X21720000Y-4800000D02*
X21720000Y-24485000D01*
X19180000Y-4800000D02*
X21720000Y-4800000D01*
X19180000Y-25120000D02*
X19180000Y-4800000D01*
X21085000Y-25120000D02*
X19180000Y-25120000D01*
X15952380Y-30076190D02*
X15666666Y-30076190D01*
X15809523Y-30076190D02*
X15809523Y-29576190D01*
X15761904Y-29647619D01*
X15714285Y-29695238D01*
X15666666Y-29719047D01*
X16380952Y-29742857D02*
X16380952Y-30076190D01*
X16166666Y-29742857D02*
X16166666Y-30004761D01*
X16190476Y-30052380D01*
X16238095Y-30076190D01*
X16309523Y-30076190D01*
X16357142Y-30052380D01*
X16380952Y-30028571D01*
X16785714Y-29814285D02*
X16619047Y-29814285D01*
X16619047Y-30076190D02*
X16619047Y-29576190D01*
X16857142Y-29576190D01*
D12*
X16292858Y-27454166D02*
X16311905Y-27473214D01*
X16330953Y-27530357D01*
X16330953Y-27568452D01*
X16311905Y-27625595D01*
X16273810Y-27663690D01*
X16235715Y-27682738D01*
X16159524Y-27701785D01*
X16102381Y-27701785D01*
X16026191Y-27682738D01*
X15988096Y-27663690D01*
X15950001Y-27625595D01*
X15930953Y-27568452D01*
X15930953Y-27530357D01*
X15950001Y-27473214D01*
X15969048Y-27454166D01*
X15930953Y-27320833D02*
X15930953Y-27073214D01*
X16083334Y-27206547D01*
X16083334Y-27149404D01*
X16102381Y-27111309D01*
X16121429Y-27092261D01*
X16159524Y-27073214D01*
X16254762Y-27073214D01*
X16292858Y-27092261D01*
X16311905Y-27111309D01*
X16330953Y-27149404D01*
X16330953Y-27263690D01*
X16311905Y-27301785D01*
X16292858Y-27320833D01*
D10*
X19426190Y-12547619D02*
X19426190Y-12833333D01*
X19426190Y-12690476D02*
X18926190Y-12690476D01*
X18997619Y-12738095D01*
X19045238Y-12785714D01*
X19069047Y-12833333D01*
X18926190Y-12238095D02*
X18926190Y-12190476D01*
X18950000Y-12142857D01*
X18973809Y-12119047D01*
X19021428Y-12095238D01*
X19116666Y-12071428D01*
X19235714Y-12071428D01*
X19330952Y-12095238D01*
X19378571Y-12119047D01*
X19402380Y-12142857D01*
X19426190Y-12190476D01*
X19426190Y-12238095D01*
X19402380Y-12285714D01*
X19378571Y-12309523D01*
X19330952Y-12333333D01*
X19235714Y-12357142D01*
X19116666Y-12357142D01*
X19021428Y-12333333D01*
X18973809Y-12309523D01*
X18950000Y-12285714D01*
X18926190Y-12238095D01*
X19426190Y-11857142D02*
X18926190Y-11857142D01*
X19235714Y-11809523D02*
X19426190Y-11666666D01*
X19092857Y-11666666D02*
X19283333Y-11857142D01*
D12*
X18380952Y-12229166D02*
X18190476Y-12362500D01*
X18380952Y-12457738D02*
X17980952Y-12457738D01*
X17980952Y-12305357D01*
X18000000Y-12267261D01*
X18019047Y-12248214D01*
X18057142Y-12229166D01*
X18114285Y-12229166D01*
X18152380Y-12248214D01*
X18171428Y-12267261D01*
X18190476Y-12305357D01*
X18190476Y-12457738D01*
X18019047Y-12076785D02*
X18000000Y-12057738D01*
X17980952Y-12019642D01*
X17980952Y-11924404D01*
X18000000Y-11886309D01*
X18019047Y-11867261D01*
X18057142Y-11848214D01*
X18095238Y-11848214D01*
X18152380Y-11867261D01*
X18380952Y-12095833D01*
X18380952Y-11848214D01*
D10*
X8345238Y-29601190D02*
X8654761Y-29601190D01*
X8488095Y-29791666D01*
X8559523Y-29791666D01*
X8607142Y-29815476D01*
X8630952Y-29839285D01*
X8654761Y-29886904D01*
X8654761Y-30005952D01*
X8630952Y-30053571D01*
X8607142Y-30077380D01*
X8559523Y-30101190D01*
X8416666Y-30101190D01*
X8369047Y-30077380D01*
X8345238Y-30053571D01*
X8892857Y-30101190D02*
X8988095Y-30101190D01*
X9035714Y-30077380D01*
X9059523Y-30053571D01*
X9107142Y-29982142D01*
X9130952Y-29886904D01*
X9130952Y-29696428D01*
X9107142Y-29648809D01*
X9083333Y-29625000D01*
X9035714Y-29601190D01*
X8940476Y-29601190D01*
X8892857Y-29625000D01*
X8869047Y-29648809D01*
X8845238Y-29696428D01*
X8845238Y-29815476D01*
X8869047Y-29863095D01*
X8892857Y-29886904D01*
X8940476Y-29910714D01*
X9035714Y-29910714D01*
X9083333Y-29886904D01*
X9107142Y-29863095D01*
X9130952Y-29815476D01*
X9630952Y-30101190D02*
X9464285Y-29863095D01*
X9345238Y-30101190D02*
X9345238Y-29601190D01*
X9535714Y-29601190D01*
X9583333Y-29625000D01*
X9607142Y-29648809D01*
X9630952Y-29696428D01*
X9630952Y-29767857D01*
X9607142Y-29815476D01*
X9583333Y-29839285D01*
X9535714Y-29863095D01*
X9345238Y-29863095D01*
D12*
X9130952Y-27454166D02*
X8940476Y-27587500D01*
X9130952Y-27682738D02*
X8730952Y-27682738D01*
X8730952Y-27530357D01*
X8750000Y-27492261D01*
X8769047Y-27473214D01*
X8807142Y-27454166D01*
X8864285Y-27454166D01*
X8902380Y-27473214D01*
X8921428Y-27492261D01*
X8940476Y-27530357D01*
X8940476Y-27682738D01*
X9130952Y-27073214D02*
X9130952Y-27301785D01*
X9130952Y-27187500D02*
X8730952Y-27187500D01*
X8788095Y-27225595D01*
X8826190Y-27263690D01*
X8845238Y-27301785D01*
D13*
X10666666Y97620D02*
X10666666Y-616666D01*
X10619047Y-759523D01*
X10523809Y-854761D01*
X10380952Y-902380D01*
X10285714Y-902380D01*
X11666666Y-902380D02*
X11095238Y-902380D01*
X11380952Y-902380D02*
X11380952Y97620D01*
X11285714Y-45238D01*
X11190476Y-140476D01*
X11095238Y-188095D01*
D10*
X2201190Y-7796428D02*
X2201190Y-7748809D01*
X2225000Y-7701190D01*
X2248809Y-7677380D01*
X2296428Y-7653571D01*
X2391666Y-7629761D01*
X2510714Y-7629761D01*
X2605952Y-7653571D01*
X2653571Y-7677380D01*
X2677380Y-7701190D01*
X2701190Y-7748809D01*
X2701190Y-7796428D01*
X2677380Y-7844047D01*
X2653571Y-7867857D01*
X2605952Y-7891666D01*
X2510714Y-7915476D01*
X2391666Y-7915476D01*
X2296428Y-7891666D01*
X2248809Y-7867857D01*
X2225000Y-7844047D01*
X2201190Y-7796428D01*
X2653571Y-7415476D02*
X2677380Y-7391666D01*
X2701190Y-7415476D01*
X2677380Y-7439285D01*
X2653571Y-7415476D01*
X2701190Y-7415476D01*
X2701190Y-6915476D02*
X2701190Y-7201190D01*
X2701190Y-7058333D02*
X2201190Y-7058333D01*
X2272619Y-7105952D01*
X2320238Y-7153571D01*
X2344047Y-7201190D01*
X2367857Y-6486904D02*
X2701190Y-6486904D01*
X2367857Y-6701190D02*
X2629761Y-6701190D01*
X2677380Y-6677380D01*
X2701190Y-6629761D01*
X2701190Y-6558333D01*
X2677380Y-6510714D01*
X2653571Y-6486904D01*
X2439285Y-6082142D02*
X2439285Y-6248809D01*
X2701190Y-6248809D02*
X2201190Y-6248809D01*
X2201190Y-6010714D01*
D12*
X1492857Y-7029166D02*
X1511904Y-7048214D01*
X1530952Y-7105357D01*
X1530952Y-7143452D01*
X1511904Y-7200595D01*
X1473809Y-7238690D01*
X1435714Y-7257738D01*
X1359523Y-7276785D01*
X1302380Y-7276785D01*
X1226190Y-7257738D01*
X1188095Y-7238690D01*
X1150000Y-7200595D01*
X1130952Y-7143452D01*
X1130952Y-7105357D01*
X1150000Y-7048214D01*
X1169047Y-7029166D01*
X1130952Y-6686309D02*
X1130952Y-6762500D01*
X1150000Y-6800595D01*
X1169047Y-6819642D01*
X1226190Y-6857738D01*
X1302380Y-6876785D01*
X1454761Y-6876785D01*
X1492857Y-6857738D01*
X1511904Y-6838690D01*
X1530952Y-6800595D01*
X1530952Y-6724404D01*
X1511904Y-6686309D01*
X1492857Y-6667261D01*
X1454761Y-6648214D01*
X1359523Y-6648214D01*
X1321428Y-6667261D01*
X1302380Y-6686309D01*
X1283333Y-6724404D01*
X1283333Y-6800595D01*
X1302380Y-6838690D01*
X1321428Y-6857738D01*
X1359523Y-6876785D01*
D10*
X2501190Y-14921428D02*
X2501190Y-14873809D01*
X2525000Y-14826190D01*
X2548809Y-14802380D01*
X2596428Y-14778571D01*
X2691666Y-14754761D01*
X2810714Y-14754761D01*
X2905952Y-14778571D01*
X2953571Y-14802380D01*
X2977380Y-14826190D01*
X3001190Y-14873809D01*
X3001190Y-14921428D01*
X2977380Y-14969047D01*
X2953571Y-14992857D01*
X2905952Y-15016666D01*
X2810714Y-15040476D01*
X2691666Y-15040476D01*
X2596428Y-15016666D01*
X2548809Y-14992857D01*
X2525000Y-14969047D01*
X2501190Y-14921428D01*
X2953571Y-14540476D02*
X2977380Y-14516666D01*
X3001190Y-14540476D01*
X2977380Y-14564285D01*
X2953571Y-14540476D01*
X3001190Y-14540476D01*
X3001190Y-14040476D02*
X3001190Y-14326190D01*
X3001190Y-14183333D02*
X2501190Y-14183333D01*
X2572619Y-14230952D01*
X2620238Y-14278571D01*
X2644047Y-14326190D01*
X2667857Y-13611904D02*
X3001190Y-13611904D01*
X2667857Y-13826190D02*
X2929761Y-13826190D01*
X2977380Y-13802380D01*
X3001190Y-13754761D01*
X3001190Y-13683333D01*
X2977380Y-13635714D01*
X2953571Y-13611904D01*
X2739285Y-13207142D02*
X2739285Y-13373809D01*
X3001190Y-13373809D02*
X2501190Y-13373809D01*
X2501190Y-13135714D01*
D12*
X1792857Y-14154166D02*
X1811904Y-14173214D01*
X1830952Y-14230357D01*
X1830952Y-14268452D01*
X1811904Y-14325595D01*
X1773809Y-14363690D01*
X1735714Y-14382738D01*
X1659523Y-14401785D01*
X1602380Y-14401785D01*
X1526190Y-14382738D01*
X1488095Y-14363690D01*
X1450000Y-14325595D01*
X1430952Y-14268452D01*
X1430952Y-14230357D01*
X1450000Y-14173214D01*
X1469047Y-14154166D01*
X1430952Y-13792261D02*
X1430952Y-13982738D01*
X1621428Y-14001785D01*
X1602380Y-13982738D01*
X1583333Y-13944642D01*
X1583333Y-13849404D01*
X1602380Y-13811309D01*
X1621428Y-13792261D01*
X1659523Y-13773214D01*
X1754761Y-13773214D01*
X1792857Y-13792261D01*
X1811904Y-13811309D01*
X1830952Y-13849404D01*
X1830952Y-13944642D01*
X1811904Y-13982738D01*
X1792857Y-14001785D01*
D10*
X6952380Y-30151190D02*
X6666666Y-30151190D01*
X6809523Y-30151190D02*
X6809523Y-29651190D01*
X6761904Y-29722619D01*
X6714285Y-29770238D01*
X6666666Y-29794047D01*
X7261904Y-29651190D02*
X7309523Y-29651190D01*
X7357142Y-29675000D01*
X7380952Y-29698809D01*
X7404761Y-29746428D01*
X7428571Y-29841666D01*
X7428571Y-29960714D01*
X7404761Y-30055952D01*
X7380952Y-30103571D01*
X7357142Y-30127380D01*
X7309523Y-30151190D01*
X7261904Y-30151190D01*
X7214285Y-30127380D01*
X7190476Y-30103571D01*
X7166666Y-30055952D01*
X7142857Y-29960714D01*
X7142857Y-29841666D01*
X7166666Y-29746428D01*
X7190476Y-29698809D01*
X7214285Y-29675000D01*
X7261904Y-29651190D01*
X7642857Y-30151190D02*
X7642857Y-29651190D01*
X7690476Y-29960714D02*
X7833333Y-30151190D01*
X7833333Y-29817857D02*
X7642857Y-30008333D01*
D12*
X7430952Y-27454166D02*
X7240476Y-27587500D01*
X7430952Y-27682738D02*
X7030952Y-27682738D01*
X7030952Y-27530357D01*
X7050000Y-27492261D01*
X7069047Y-27473214D01*
X7107142Y-27454166D01*
X7164285Y-27454166D01*
X7202380Y-27473214D01*
X7221428Y-27492261D01*
X7240476Y-27530357D01*
X7240476Y-27682738D01*
X7030952Y-27320833D02*
X7030952Y-27073214D01*
X7183333Y-27206547D01*
X7183333Y-27149404D01*
X7202380Y-27111309D01*
X7221428Y-27092261D01*
X7259523Y-27073214D01*
X7354761Y-27073214D01*
X7392857Y-27092261D01*
X7411904Y-27111309D01*
X7430952Y-27149404D01*
X7430952Y-27263690D01*
X7411904Y-27301785D01*
X7392857Y-27320833D01*
D10*
X10402380Y-30076190D02*
X10116666Y-30076190D01*
X10259523Y-30076190D02*
X10259523Y-29576190D01*
X10211904Y-29647619D01*
X10164285Y-29695238D01*
X10116666Y-29719047D01*
X10830952Y-29742857D02*
X10830952Y-30076190D01*
X10616666Y-29742857D02*
X10616666Y-30004761D01*
X10640476Y-30052380D01*
X10688095Y-30076190D01*
X10759523Y-30076190D01*
X10807142Y-30052380D01*
X10830952Y-30028571D01*
X11235714Y-29814285D02*
X11069047Y-29814285D01*
X11069047Y-30076190D02*
X11069047Y-29576190D01*
X11307142Y-29576190D01*
D12*
X10842857Y-27454166D02*
X10861904Y-27473214D01*
X10880952Y-27530357D01*
X10880952Y-27568452D01*
X10861904Y-27625595D01*
X10823809Y-27663690D01*
X10785714Y-27682738D01*
X10709523Y-27701785D01*
X10652380Y-27701785D01*
X10576190Y-27682738D01*
X10538095Y-27663690D01*
X10500000Y-27625595D01*
X10480952Y-27568452D01*
X10480952Y-27530357D01*
X10500000Y-27473214D01*
X10519047Y-27454166D01*
X10614285Y-27111309D02*
X10880952Y-27111309D01*
X10461904Y-27206547D02*
X10747619Y-27301785D01*
X10747619Y-27054166D01*
D10*
X18926190Y-17921428D02*
X18926190Y-17873809D01*
X18950000Y-17826190D01*
X18973809Y-17802380D01*
X19021428Y-17778571D01*
X19116666Y-17754761D01*
X19235714Y-17754761D01*
X19330952Y-17778571D01*
X19378571Y-17802380D01*
X19402380Y-17826190D01*
X19426190Y-17873809D01*
X19426190Y-17921428D01*
X19402380Y-17969047D01*
X19378571Y-17992857D01*
X19330952Y-18016666D01*
X19235714Y-18040476D01*
X19116666Y-18040476D01*
X19021428Y-18016666D01*
X18973809Y-17992857D01*
X18950000Y-17969047D01*
X18926190Y-17921428D01*
X19378571Y-17540476D02*
X19402380Y-17516666D01*
X19426190Y-17540476D01*
X19402380Y-17564285D01*
X19378571Y-17540476D01*
X19426190Y-17540476D01*
X19426190Y-17040476D02*
X19426190Y-17326190D01*
X19426190Y-17183333D02*
X18926190Y-17183333D01*
X18997619Y-17230952D01*
X19045238Y-17278571D01*
X19069047Y-17326190D01*
X19092857Y-16611904D02*
X19426190Y-16611904D01*
X19092857Y-16826190D02*
X19354761Y-16826190D01*
X19402380Y-16802380D01*
X19426190Y-16754761D01*
X19426190Y-16683333D01*
X19402380Y-16635714D01*
X19378571Y-16611904D01*
X19164285Y-16207142D02*
X19164285Y-16373809D01*
X19426190Y-16373809D02*
X18926190Y-16373809D01*
X18926190Y-16135714D01*
D12*
X18342857Y-16979166D02*
X18361904Y-16998214D01*
X18380952Y-17055357D01*
X18380952Y-17093452D01*
X18361904Y-17150595D01*
X18323809Y-17188690D01*
X18285714Y-17207738D01*
X18209523Y-17226785D01*
X18152380Y-17226785D01*
X18076190Y-17207738D01*
X18038095Y-17188690D01*
X18000000Y-17150595D01*
X17980952Y-17093452D01*
X17980952Y-17055357D01*
X18000000Y-16998214D01*
X18019047Y-16979166D01*
X18019047Y-16826785D02*
X18000000Y-16807738D01*
X17980952Y-16769642D01*
X17980952Y-16674404D01*
X18000000Y-16636309D01*
X18019047Y-16617261D01*
X18057142Y-16598214D01*
X18095238Y-16598214D01*
X18152380Y-16617261D01*
X18380952Y-16845833D01*
X18380952Y-16598214D01*
D10*
X19092857Y-21452380D02*
X19426190Y-21452380D01*
X18902380Y-21571428D02*
X19259523Y-21690476D01*
X19259523Y-21380952D01*
X19378571Y-21190476D02*
X19402380Y-21166666D01*
X19426190Y-21190476D01*
X19402380Y-21214285D01*
X19378571Y-21190476D01*
X19426190Y-21190476D01*
X18926190Y-21000000D02*
X18926190Y-20666666D01*
X19426190Y-20880952D01*
X19092857Y-20261904D02*
X19426190Y-20261904D01*
X19092857Y-20476190D02*
X19354761Y-20476190D01*
X19402380Y-20452380D01*
X19426190Y-20404761D01*
X19426190Y-20333333D01*
X19402380Y-20285714D01*
X19378571Y-20261904D01*
X19164285Y-19857142D02*
X19164285Y-20023809D01*
X19426190Y-20023809D02*
X18926190Y-20023809D01*
X18926190Y-19785714D01*
D12*
X18342857Y-20704166D02*
X18361904Y-20723214D01*
X18380952Y-20780357D01*
X18380952Y-20818452D01*
X18361904Y-20875595D01*
X18323809Y-20913690D01*
X18285714Y-20932738D01*
X18209523Y-20951785D01*
X18152380Y-20951785D01*
X18076190Y-20932738D01*
X18038095Y-20913690D01*
X18000000Y-20875595D01*
X17980952Y-20818452D01*
X17980952Y-20780357D01*
X18000000Y-20723214D01*
X18019047Y-20704166D01*
X18380952Y-20323214D02*
X18380952Y-20551785D01*
X18380952Y-20437500D02*
X17980952Y-20437500D01*
X18038095Y-20475595D01*
X18076190Y-20513690D01*
X18095238Y-20551785D01*
D10*
X-8464286Y-18852380D02*
X-8392858Y-18876190D01*
X-8273810Y-18876190D01*
X-8226191Y-18852380D01*
X-8202381Y-18828571D01*
X-8178572Y-18780952D01*
X-8178572Y-18733333D01*
X-8202381Y-18685714D01*
X-8226191Y-18661904D01*
X-8273810Y-18638095D01*
X-8369048Y-18614285D01*
X-8416667Y-18590476D01*
X-8440477Y-18566666D01*
X-8464286Y-18519047D01*
X-8464286Y-18471428D01*
X-8440477Y-18423809D01*
X-8416667Y-18400000D01*
X-8369048Y-18376190D01*
X-8250000Y-18376190D01*
X-8178572Y-18400000D01*
X-7964286Y-18876190D02*
X-7964286Y-18376190D01*
X-7678572Y-18876190D01*
X-7678572Y-18376190D01*
X-7488096Y-18376190D02*
X-7154762Y-18376190D01*
X-7369048Y-18876190D01*
X-6750000Y-18542857D02*
X-6750000Y-18876190D01*
X-6869048Y-18352380D02*
X-6988096Y-18709523D01*
X-6678572Y-18709523D01*
X-6250000Y-18876190D02*
X-6488096Y-18876190D01*
X-6488096Y-18376190D01*
X-6154762Y-18376190D02*
X-5988096Y-18876190D01*
X-5821429Y-18376190D01*
X-5369048Y-18828571D02*
X-5392858Y-18852380D01*
X-5464286Y-18876190D01*
X-5511905Y-18876190D01*
X-5583334Y-18852380D01*
X-5630953Y-18804761D01*
X-5654762Y-18757142D01*
X-5678572Y-18661904D01*
X-5678572Y-18590476D01*
X-5654762Y-18495238D01*
X-5630953Y-18447619D01*
X-5583334Y-18400000D01*
X-5511905Y-18376190D01*
X-5464286Y-18376190D01*
X-5392858Y-18400000D01*
X-5369048Y-18423809D01*
X-4892858Y-18876190D02*
X-5178572Y-18876190D01*
X-5035715Y-18876190D02*
X-5035715Y-18376190D01*
X-5083334Y-18447619D01*
X-5130953Y-18495238D01*
X-5178572Y-18519047D01*
X-4750000Y-18376190D02*
X-4464286Y-18376190D01*
X-4607143Y-18876190D02*
X-4607143Y-18376190D01*
X-4083334Y-18542857D02*
X-4083334Y-18876190D01*
X-4202381Y-18352380D02*
X-4321429Y-18709523D01*
X-4011905Y-18709523D01*
X-3583334Y-18376190D02*
X-3821429Y-18376190D01*
X-3845239Y-18614285D01*
X-3821429Y-18590476D01*
X-3773810Y-18566666D01*
X-3654762Y-18566666D01*
X-3607143Y-18590476D01*
X-3583334Y-18614285D01*
X-3559524Y-18661904D01*
X-3559524Y-18780952D01*
X-3583334Y-18828571D01*
X-3607143Y-18852380D01*
X-3654762Y-18876190D01*
X-3773810Y-18876190D01*
X-3821429Y-18852380D01*
X-3845239Y-18828571D01*
X-3011905Y-18923809D02*
X-3059524Y-18900000D01*
X-3107143Y-18852380D01*
X-3178572Y-18780952D01*
X-3226191Y-18757142D01*
X-3273810Y-18757142D01*
X-3250000Y-18876190D02*
X-3297620Y-18852380D01*
X-3345239Y-18804761D01*
X-3369048Y-18709523D01*
X-3369048Y-18542857D01*
X-3345239Y-18447619D01*
X-3297620Y-18400000D01*
X-3250000Y-18376190D01*
X-3154762Y-18376190D01*
X-3107143Y-18400000D01*
X-3059524Y-18447619D01*
X-3035715Y-18542857D01*
X-3035715Y-18709523D01*
X-3059524Y-18804761D01*
X-3107143Y-18852380D01*
X-3154762Y-18876190D01*
X-3250000Y-18876190D01*
X-2821429Y-18876190D02*
X-2821429Y-18376190D01*
X-2702381Y-18376190D01*
X-2630953Y-18400000D01*
X-2583334Y-18447619D01*
X-2559524Y-18495238D01*
X-2535715Y-18590476D01*
X-2535715Y-18661904D01*
X-2559524Y-18757142D01*
X-2583334Y-18804761D01*
X-2630953Y-18852380D01*
X-2702381Y-18876190D01*
X-2821429Y-18876190D01*
X-2035715Y-18828571D02*
X-2059524Y-18852380D01*
X-2130953Y-18876190D01*
X-2178572Y-18876190D01*
X-2250000Y-18852380D01*
X-2297620Y-18804761D01*
X-2321429Y-18757142D01*
X-2345239Y-18661904D01*
X-2345239Y-18590476D01*
X-2321429Y-18495238D01*
X-2297620Y-18447619D01*
X-2250000Y-18400000D01*
X-2178572Y-18376190D01*
X-2130953Y-18376190D01*
X-2059524Y-18400000D01*
X-2035715Y-18423809D01*
X-1821429Y-18876190D02*
X-1821429Y-18376190D01*
X-1535715Y-18876190D02*
X-1750000Y-18590476D01*
X-1535715Y-18376190D02*
X-1821429Y-18661904D01*
X-1035715Y-18876190D02*
X-1202381Y-18638095D01*
X-1321429Y-18876190D02*
X-1321429Y-18376190D01*
X-1130953Y-18376190D01*
X-1083334Y-18400000D01*
X-1059524Y-18423809D01*
X-1035715Y-18471428D01*
X-1035715Y-18542857D01*
X-1059524Y-18590476D01*
X-1083334Y-18614285D01*
X-1130953Y-18638095D01*
X-1321429Y-18638095D01*
X-488096Y-18923809D02*
X-535715Y-18900000D01*
X-583334Y-18852380D01*
X-654762Y-18780952D01*
X-702381Y-18757142D01*
X-750000Y-18757142D01*
X-726191Y-18876190D02*
X-773810Y-18852380D01*
X-821429Y-18804761D01*
X-845239Y-18709523D01*
X-845239Y-18542857D01*
X-821429Y-18447619D01*
X-773810Y-18400000D01*
X-726191Y-18376190D01*
X-630953Y-18376190D01*
X-583334Y-18400000D01*
X-535715Y-18447619D01*
X-511905Y-18542857D01*
X-511905Y-18709523D01*
X-535715Y-18804761D01*
X-583334Y-18852380D01*
X-630953Y-18876190D01*
X-726191Y-18876190D01*
X-35715Y-18876190D02*
X-321429Y-18876190D01*
X-178572Y-18876190D02*
X-178572Y-18376190D01*
X-226191Y-18447619D01*
X-273810Y-18495238D01*
X-321429Y-18519047D01*
D14*
X2469047Y-18226190D02*
X2469047Y-18630952D01*
X2492857Y-18678571D01*
X2516666Y-18702380D01*
X2564285Y-18726190D01*
X2659523Y-18726190D01*
X2707142Y-18702380D01*
X2730952Y-18678571D01*
X2754761Y-18630952D01*
X2754761Y-18226190D01*
X2945238Y-18226190D02*
X3254761Y-18226190D01*
X3088095Y-18416666D01*
X3159523Y-18416666D01*
X3207142Y-18440476D01*
X3230952Y-18464285D01*
X3254761Y-18511904D01*
X3254761Y-18630952D01*
X3230952Y-18678571D01*
X3207142Y-18702380D01*
X3159523Y-18726190D01*
X3016666Y-18726190D01*
X2969047Y-18702380D01*
X2945238Y-18678571D01*
D13*
X-9371429Y-10152380D02*
X-8800000Y-10152380D01*
X-9085715Y-11152380D02*
X-9085715Y-10152380D01*
X-8561905Y-10152380D02*
X-7895239Y-11152380D01*
X-7895239Y-10152380D02*
X-8561905Y-11152380D01*
X-7180953Y-10628571D02*
X-7038096Y-10676190D01*
X-6990477Y-10723809D01*
X-6942858Y-10819047D01*
X-6942858Y-10961904D01*
X-6990477Y-11057142D01*
X-7038096Y-11104761D01*
X-7133334Y-11152380D01*
X-7514286Y-11152380D01*
X-7514286Y-10152380D01*
X-7180953Y-10152380D01*
X-7085715Y-10200000D01*
X-7038096Y-10247619D01*
X-6990477Y-10342857D01*
X-6990477Y-10438095D01*
X-7038096Y-10533333D01*
X-7085715Y-10580952D01*
X-7180953Y-10628571D01*
X-7514286Y-10628571D01*
X-6323810Y-10152380D02*
X-6228572Y-10152380D01*
X-6133334Y-10200000D01*
X-6085715Y-10247619D01*
X-6038096Y-10342857D01*
X-5990477Y-10533333D01*
X-5990477Y-10771428D01*
X-6038096Y-10961904D01*
X-6085715Y-11057142D01*
X-6133334Y-11104761D01*
X-6228572Y-11152380D01*
X-6323810Y-11152380D01*
X-6419048Y-11104761D01*
X-6466667Y-11057142D01*
X-6514286Y-10961904D01*
X-6561905Y-10771428D01*
X-6561905Y-10533333D01*
X-6514286Y-10342857D01*
X-6466667Y-10247619D01*
X-6419048Y-10200000D01*
X-6323810Y-10152380D01*
X-5038096Y-11152380D02*
X-5609524Y-11152380D01*
X-5323810Y-11152380D02*
X-5323810Y-10152380D01*
X-5419048Y-10295238D01*
X-5514286Y-10390476D01*
X-5609524Y-10438095D01*
X-4419048Y-10152380D02*
X-4323810Y-10152380D01*
X-4228572Y-10200000D01*
X-4180953Y-10247619D01*
X-4133334Y-10342857D01*
X-4085715Y-10533333D01*
X-4085715Y-10771428D01*
X-4133334Y-10961904D01*
X-4180953Y-11057142D01*
X-4228572Y-11104761D01*
X-4323810Y-11152380D01*
X-4419048Y-11152380D01*
X-4514286Y-11104761D01*
X-4561905Y-11057142D01*
X-4609524Y-10961904D01*
X-4657143Y-10771428D01*
X-4657143Y-10533333D01*
X-4609524Y-10342857D01*
X-4561905Y-10247619D01*
X-4514286Y-10200000D01*
X-4419048Y-10152380D01*
X-3228572Y-10485714D02*
X-3228572Y-11152380D01*
X-3466667Y-10104761D02*
X-3704762Y-10819047D01*
X-3085715Y-10819047D01*
X-2133334Y-11152380D02*
X-2466667Y-10676190D01*
X-2704762Y-11152380D02*
X-2704762Y-10152380D01*
X-2323810Y-10152380D01*
X-2228572Y-10200000D01*
X-2180953Y-10247619D01*
X-2133334Y-10342857D01*
X-2133334Y-10485714D01*
X-2180953Y-10580952D01*
X-2228572Y-10628571D01*
X-2323810Y-10676190D01*
X-2704762Y-10676190D01*
X-1704762Y-10152380D02*
X-1704762Y-10961904D01*
X-1657143Y-11057142D01*
X-1609524Y-11104761D01*
X-1514286Y-11152380D01*
X-1323810Y-11152380D01*
X-1228572Y-11104761D01*
X-1180953Y-11057142D01*
X-1133334Y-10961904D01*
X-1133334Y-10152380D01*
X-800000Y-10152380D02*
X-228572Y-10152380D01*
X-514286Y-11152380D02*
X-514286Y-10152380D01*
D15*
X1985714Y-10828571D02*
X2228571Y-10828571D01*
X2257142Y-10814285D01*
X2271428Y-10800000D01*
X2285714Y-10771428D01*
X2285714Y-10714285D01*
X2271428Y-10685714D01*
X2257142Y-10671428D01*
X2228571Y-10657142D01*
X1985714Y-10657142D01*
X2085714Y-10385714D02*
X2285714Y-10385714D01*
X1971428Y-10457142D02*
X2185714Y-10528571D01*
X2185714Y-10342857D01*
D13*
X-5845239Y-22152380D02*
X-5845239Y-22866666D01*
X-5892858Y-23009523D01*
X-5988096Y-23104761D01*
X-6130953Y-23152380D01*
X-6226191Y-23152380D01*
X-5369048Y-23152380D02*
X-5369048Y-22152380D01*
X-4988096Y-22152380D01*
X-4892858Y-22200000D01*
X-4845239Y-22247619D01*
X-4797620Y-22342857D01*
X-4797620Y-22485714D01*
X-4845239Y-22580952D01*
X-4892858Y-22628571D01*
X-4988096Y-22676190D01*
X-5369048Y-22676190D01*
X-4607143Y-23247619D02*
X-3845239Y-23247619D01*
X-3416667Y-22152380D02*
X-3226191Y-22152380D01*
X-3130953Y-22200000D01*
X-3035715Y-22295238D01*
X-2988096Y-22485714D01*
X-2988096Y-22819047D01*
X-3035715Y-23009523D01*
X-3130953Y-23104761D01*
X-3226191Y-23152380D01*
X-3416667Y-23152380D01*
X-3511905Y-23104761D01*
X-3607143Y-23009523D01*
X-3654762Y-22819047D01*
X-3654762Y-22485714D01*
X-3607143Y-22295238D01*
X-3511905Y-22200000D01*
X-3416667Y-22152380D01*
X-2559524Y-22485714D02*
X-2559524Y-23485714D01*
X-2559524Y-22533333D02*
X-2464286Y-22485714D01*
X-2273810Y-22485714D01*
X-2178572Y-22533333D01*
X-2130953Y-22580952D01*
X-2083334Y-22676190D01*
X-2083334Y-22961904D01*
X-2130953Y-23057142D01*
X-2178572Y-23104761D01*
X-2273810Y-23152380D01*
X-2464286Y-23152380D01*
X-2559524Y-23104761D01*
X-1273810Y-23104761D02*
X-1369048Y-23152380D01*
X-1559524Y-23152380D01*
X-1654762Y-23104761D01*
X-1702381Y-23009523D01*
X-1702381Y-22628571D01*
X-1654762Y-22533333D01*
X-1559524Y-22485714D01*
X-1369048Y-22485714D01*
X-1273810Y-22533333D01*
X-1226191Y-22628571D01*
X-1226191Y-22723809D01*
X-1702381Y-22819047D01*
X-797620Y-22485714D02*
X-797620Y-23152380D01*
X-797620Y-22580952D02*
X-750000Y-22533333D01*
X-654762Y-22485714D01*
X-511905Y-22485714D01*
X-416667Y-22533333D01*
X-369048Y-22628571D01*
X-369048Y-23152380D01*
X19902380Y-15293333D02*
X20616666Y-15293333D01*
X20759523Y-15340952D01*
X20854761Y-15436190D01*
X20902380Y-15579047D01*
X20902380Y-15674285D01*
X19997619Y-14864761D02*
X19950000Y-14817142D01*
X19902380Y-14721904D01*
X19902380Y-14483809D01*
X19950000Y-14388571D01*
X19997619Y-14340952D01*
X20092857Y-14293333D01*
X20188095Y-14293333D01*
X20330952Y-14340952D01*
X20902380Y-14912380D01*
X20902380Y-14293333D01*
M02*
