G04 #@! TF.GenerationSoftware,KiCad,Pcbnew,(5.1.5)-3*
G04 #@! TF.CreationDate,2021-07-20T23:34:01+09:00*
G04 #@! TF.ProjectId,pmw3360,706d7733-3336-4302-9e6b-696361645f70,rev?*
G04 #@! TF.SameCoordinates,PX5b136e0PY4bcb138*
G04 #@! TF.FileFunction,Copper,L1,Top*
G04 #@! TF.FilePolarity,Positive*
%FSLAX46Y46*%
G04 Gerber Fmt 4.6, Leading zero omitted, Abs format (unit mm)*
G04 Created by KiCad (PCBNEW (5.1.5)-3) date 2021-07-20 23:34:01*
%MOMM*%
%LPD*%
G04 APERTURE LIST*
%ADD10R,0.800000X0.550000*%
%ADD11C,0.100000*%
%ADD12O,0.900000X1.400000*%
%ADD13R,0.400000X0.650000*%
%ADD14C,1.300000*%
%ADD15R,0.250000X0.150000*%
%ADD16R,0.600000X0.200000*%
%ADD17R,0.200000X0.600000*%
%ADD18R,1.000000X1.500000*%
%ADD19O,1.700000X1.700000*%
%ADD20R,1.700000X1.700000*%
%ADD21C,0.800000*%
%ADD22C,1.000000*%
%ADD23C,0.250000*%
%ADD24C,0.500000*%
%ADD25C,0.400000*%
%ADD26C,0.200000*%
%ADD27C,0.254000*%
G04 APERTURE END LIST*
D10*
X12200000Y-28350000D03*
X12200000Y-26450000D03*
X14600000Y-26450000D03*
X14600000Y-27400000D03*
X14600000Y-28350000D03*
G04 #@! TA.AperFunction,SMDPad,CuDef*
D11*
G36*
X16427692Y-26163553D02*
G01*
X16448927Y-26166703D01*
X16469751Y-26171919D01*
X16489963Y-26179151D01*
X16509369Y-26188330D01*
X16527782Y-26199366D01*
X16545025Y-26212154D01*
X16560931Y-26226570D01*
X16575347Y-26242476D01*
X16588135Y-26259719D01*
X16599171Y-26278132D01*
X16608350Y-26297538D01*
X16615582Y-26317750D01*
X16620798Y-26338574D01*
X16623948Y-26359809D01*
X16625001Y-26381250D01*
X16625001Y-26818750D01*
X16623948Y-26840191D01*
X16620798Y-26861426D01*
X16615582Y-26882250D01*
X16608350Y-26902462D01*
X16599171Y-26921868D01*
X16588135Y-26940281D01*
X16575347Y-26957524D01*
X16560931Y-26973430D01*
X16545025Y-26987846D01*
X16527782Y-27000634D01*
X16509369Y-27011670D01*
X16489963Y-27020849D01*
X16469751Y-27028081D01*
X16448927Y-27033297D01*
X16427692Y-27036447D01*
X16406251Y-27037500D01*
X15893751Y-27037500D01*
X15872310Y-27036447D01*
X15851075Y-27033297D01*
X15830251Y-27028081D01*
X15810039Y-27020849D01*
X15790633Y-27011670D01*
X15772220Y-27000634D01*
X15754977Y-26987846D01*
X15739071Y-26973430D01*
X15724655Y-26957524D01*
X15711867Y-26940281D01*
X15700831Y-26921868D01*
X15691652Y-26902462D01*
X15684420Y-26882250D01*
X15679204Y-26861426D01*
X15676054Y-26840191D01*
X15675001Y-26818750D01*
X15675001Y-26381250D01*
X15676054Y-26359809D01*
X15679204Y-26338574D01*
X15684420Y-26317750D01*
X15691652Y-26297538D01*
X15700831Y-26278132D01*
X15711867Y-26259719D01*
X15724655Y-26242476D01*
X15739071Y-26226570D01*
X15754977Y-26212154D01*
X15772220Y-26199366D01*
X15790633Y-26188330D01*
X15810039Y-26179151D01*
X15830251Y-26171919D01*
X15851075Y-26166703D01*
X15872310Y-26163553D01*
X15893751Y-26162500D01*
X16406251Y-26162500D01*
X16427692Y-26163553D01*
G37*
G04 #@! TD.AperFunction*
G04 #@! TA.AperFunction,SMDPad,CuDef*
G36*
X16427692Y-27738553D02*
G01*
X16448927Y-27741703D01*
X16469751Y-27746919D01*
X16489963Y-27754151D01*
X16509369Y-27763330D01*
X16527782Y-27774366D01*
X16545025Y-27787154D01*
X16560931Y-27801570D01*
X16575347Y-27817476D01*
X16588135Y-27834719D01*
X16599171Y-27853132D01*
X16608350Y-27872538D01*
X16615582Y-27892750D01*
X16620798Y-27913574D01*
X16623948Y-27934809D01*
X16625001Y-27956250D01*
X16625001Y-28393750D01*
X16623948Y-28415191D01*
X16620798Y-28436426D01*
X16615582Y-28457250D01*
X16608350Y-28477462D01*
X16599171Y-28496868D01*
X16588135Y-28515281D01*
X16575347Y-28532524D01*
X16560931Y-28548430D01*
X16545025Y-28562846D01*
X16527782Y-28575634D01*
X16509369Y-28586670D01*
X16489963Y-28595849D01*
X16469751Y-28603081D01*
X16448927Y-28608297D01*
X16427692Y-28611447D01*
X16406251Y-28612500D01*
X15893751Y-28612500D01*
X15872310Y-28611447D01*
X15851075Y-28608297D01*
X15830251Y-28603081D01*
X15810039Y-28595849D01*
X15790633Y-28586670D01*
X15772220Y-28575634D01*
X15754977Y-28562846D01*
X15739071Y-28548430D01*
X15724655Y-28532524D01*
X15711867Y-28515281D01*
X15700831Y-28496868D01*
X15691652Y-28477462D01*
X15684420Y-28457250D01*
X15679204Y-28436426D01*
X15676054Y-28415191D01*
X15675001Y-28393750D01*
X15675001Y-27956250D01*
X15676054Y-27934809D01*
X15679204Y-27913574D01*
X15684420Y-27892750D01*
X15691652Y-27872538D01*
X15700831Y-27853132D01*
X15711867Y-27834719D01*
X15724655Y-27817476D01*
X15739071Y-27801570D01*
X15754977Y-27787154D01*
X15772220Y-27774366D01*
X15790633Y-27763330D01*
X15810039Y-27754151D01*
X15830251Y-27746919D01*
X15851075Y-27741703D01*
X15872310Y-27738553D01*
X15893751Y-27737500D01*
X16406251Y-27737500D01*
X16427692Y-27738553D01*
G37*
G04 #@! TD.AperFunction*
G04 #@! TA.AperFunction,SMDPad,CuDef*
G36*
X18477691Y-10938553D02*
G01*
X18498926Y-10941703D01*
X18519750Y-10946919D01*
X18539962Y-10954151D01*
X18559368Y-10963330D01*
X18577781Y-10974366D01*
X18595024Y-10987154D01*
X18610930Y-11001570D01*
X18625346Y-11017476D01*
X18638134Y-11034719D01*
X18649170Y-11053132D01*
X18658349Y-11072538D01*
X18665581Y-11092750D01*
X18670797Y-11113574D01*
X18673947Y-11134809D01*
X18675000Y-11156250D01*
X18675000Y-11593750D01*
X18673947Y-11615191D01*
X18670797Y-11636426D01*
X18665581Y-11657250D01*
X18658349Y-11677462D01*
X18649170Y-11696868D01*
X18638134Y-11715281D01*
X18625346Y-11732524D01*
X18610930Y-11748430D01*
X18595024Y-11762846D01*
X18577781Y-11775634D01*
X18559368Y-11786670D01*
X18539962Y-11795849D01*
X18519750Y-11803081D01*
X18498926Y-11808297D01*
X18477691Y-11811447D01*
X18456250Y-11812500D01*
X17943750Y-11812500D01*
X17922309Y-11811447D01*
X17901074Y-11808297D01*
X17880250Y-11803081D01*
X17860038Y-11795849D01*
X17840632Y-11786670D01*
X17822219Y-11775634D01*
X17804976Y-11762846D01*
X17789070Y-11748430D01*
X17774654Y-11732524D01*
X17761866Y-11715281D01*
X17750830Y-11696868D01*
X17741651Y-11677462D01*
X17734419Y-11657250D01*
X17729203Y-11636426D01*
X17726053Y-11615191D01*
X17725000Y-11593750D01*
X17725000Y-11156250D01*
X17726053Y-11134809D01*
X17729203Y-11113574D01*
X17734419Y-11092750D01*
X17741651Y-11072538D01*
X17750830Y-11053132D01*
X17761866Y-11034719D01*
X17774654Y-11017476D01*
X17789070Y-11001570D01*
X17804976Y-10987154D01*
X17822219Y-10974366D01*
X17840632Y-10963330D01*
X17860038Y-10954151D01*
X17880250Y-10946919D01*
X17901074Y-10941703D01*
X17922309Y-10938553D01*
X17943750Y-10937500D01*
X18456250Y-10937500D01*
X18477691Y-10938553D01*
G37*
G04 #@! TD.AperFunction*
G04 #@! TA.AperFunction,SMDPad,CuDef*
G36*
X18477691Y-12513553D02*
G01*
X18498926Y-12516703D01*
X18519750Y-12521919D01*
X18539962Y-12529151D01*
X18559368Y-12538330D01*
X18577781Y-12549366D01*
X18595024Y-12562154D01*
X18610930Y-12576570D01*
X18625346Y-12592476D01*
X18638134Y-12609719D01*
X18649170Y-12628132D01*
X18658349Y-12647538D01*
X18665581Y-12667750D01*
X18670797Y-12688574D01*
X18673947Y-12709809D01*
X18675000Y-12731250D01*
X18675000Y-13168750D01*
X18673947Y-13190191D01*
X18670797Y-13211426D01*
X18665581Y-13232250D01*
X18658349Y-13252462D01*
X18649170Y-13271868D01*
X18638134Y-13290281D01*
X18625346Y-13307524D01*
X18610930Y-13323430D01*
X18595024Y-13337846D01*
X18577781Y-13350634D01*
X18559368Y-13361670D01*
X18539962Y-13370849D01*
X18519750Y-13378081D01*
X18498926Y-13383297D01*
X18477691Y-13386447D01*
X18456250Y-13387500D01*
X17943750Y-13387500D01*
X17922309Y-13386447D01*
X17901074Y-13383297D01*
X17880250Y-13378081D01*
X17860038Y-13370849D01*
X17840632Y-13361670D01*
X17822219Y-13350634D01*
X17804976Y-13337846D01*
X17789070Y-13323430D01*
X17774654Y-13307524D01*
X17761866Y-13290281D01*
X17750830Y-13271868D01*
X17741651Y-13252462D01*
X17734419Y-13232250D01*
X17729203Y-13211426D01*
X17726053Y-13190191D01*
X17725000Y-13168750D01*
X17725000Y-12731250D01*
X17726053Y-12709809D01*
X17729203Y-12688574D01*
X17734419Y-12667750D01*
X17741651Y-12647538D01*
X17750830Y-12628132D01*
X17761866Y-12609719D01*
X17774654Y-12592476D01*
X17789070Y-12576570D01*
X17804976Y-12562154D01*
X17822219Y-12549366D01*
X17840632Y-12538330D01*
X17860038Y-12529151D01*
X17880250Y-12521919D01*
X17901074Y-12516703D01*
X17922309Y-12513553D01*
X17943750Y-12512500D01*
X18456250Y-12512500D01*
X18477691Y-12513553D01*
G37*
G04 #@! TD.AperFunction*
G04 #@! TA.AperFunction,SMDPad,CuDef*
G36*
X9227691Y-27738553D02*
G01*
X9248926Y-27741703D01*
X9269750Y-27746919D01*
X9289962Y-27754151D01*
X9309368Y-27763330D01*
X9327781Y-27774366D01*
X9345024Y-27787154D01*
X9360930Y-27801570D01*
X9375346Y-27817476D01*
X9388134Y-27834719D01*
X9399170Y-27853132D01*
X9408349Y-27872538D01*
X9415581Y-27892750D01*
X9420797Y-27913574D01*
X9423947Y-27934809D01*
X9425000Y-27956250D01*
X9425000Y-28393750D01*
X9423947Y-28415191D01*
X9420797Y-28436426D01*
X9415581Y-28457250D01*
X9408349Y-28477462D01*
X9399170Y-28496868D01*
X9388134Y-28515281D01*
X9375346Y-28532524D01*
X9360930Y-28548430D01*
X9345024Y-28562846D01*
X9327781Y-28575634D01*
X9309368Y-28586670D01*
X9289962Y-28595849D01*
X9269750Y-28603081D01*
X9248926Y-28608297D01*
X9227691Y-28611447D01*
X9206250Y-28612500D01*
X8693750Y-28612500D01*
X8672309Y-28611447D01*
X8651074Y-28608297D01*
X8630250Y-28603081D01*
X8610038Y-28595849D01*
X8590632Y-28586670D01*
X8572219Y-28575634D01*
X8554976Y-28562846D01*
X8539070Y-28548430D01*
X8524654Y-28532524D01*
X8511866Y-28515281D01*
X8500830Y-28496868D01*
X8491651Y-28477462D01*
X8484419Y-28457250D01*
X8479203Y-28436426D01*
X8476053Y-28415191D01*
X8475000Y-28393750D01*
X8475000Y-27956250D01*
X8476053Y-27934809D01*
X8479203Y-27913574D01*
X8484419Y-27892750D01*
X8491651Y-27872538D01*
X8500830Y-27853132D01*
X8511866Y-27834719D01*
X8524654Y-27817476D01*
X8539070Y-27801570D01*
X8554976Y-27787154D01*
X8572219Y-27774366D01*
X8590632Y-27763330D01*
X8610038Y-27754151D01*
X8630250Y-27746919D01*
X8651074Y-27741703D01*
X8672309Y-27738553D01*
X8693750Y-27737500D01*
X9206250Y-27737500D01*
X9227691Y-27738553D01*
G37*
G04 #@! TD.AperFunction*
G04 #@! TA.AperFunction,SMDPad,CuDef*
G36*
X9227691Y-26163553D02*
G01*
X9248926Y-26166703D01*
X9269750Y-26171919D01*
X9289962Y-26179151D01*
X9309368Y-26188330D01*
X9327781Y-26199366D01*
X9345024Y-26212154D01*
X9360930Y-26226570D01*
X9375346Y-26242476D01*
X9388134Y-26259719D01*
X9399170Y-26278132D01*
X9408349Y-26297538D01*
X9415581Y-26317750D01*
X9420797Y-26338574D01*
X9423947Y-26359809D01*
X9425000Y-26381250D01*
X9425000Y-26818750D01*
X9423947Y-26840191D01*
X9420797Y-26861426D01*
X9415581Y-26882250D01*
X9408349Y-26902462D01*
X9399170Y-26921868D01*
X9388134Y-26940281D01*
X9375346Y-26957524D01*
X9360930Y-26973430D01*
X9345024Y-26987846D01*
X9327781Y-27000634D01*
X9309368Y-27011670D01*
X9289962Y-27020849D01*
X9269750Y-27028081D01*
X9248926Y-27033297D01*
X9227691Y-27036447D01*
X9206250Y-27037500D01*
X8693750Y-27037500D01*
X8672309Y-27036447D01*
X8651074Y-27033297D01*
X8630250Y-27028081D01*
X8610038Y-27020849D01*
X8590632Y-27011670D01*
X8572219Y-27000634D01*
X8554976Y-26987846D01*
X8539070Y-26973430D01*
X8524654Y-26957524D01*
X8511866Y-26940281D01*
X8500830Y-26921868D01*
X8491651Y-26902462D01*
X8484419Y-26882250D01*
X8479203Y-26861426D01*
X8476053Y-26840191D01*
X8475000Y-26818750D01*
X8475000Y-26381250D01*
X8476053Y-26359809D01*
X8479203Y-26338574D01*
X8484419Y-26317750D01*
X8491651Y-26297538D01*
X8500830Y-26278132D01*
X8511866Y-26259719D01*
X8524654Y-26242476D01*
X8539070Y-26226570D01*
X8554976Y-26212154D01*
X8572219Y-26199366D01*
X8590632Y-26188330D01*
X8610038Y-26179151D01*
X8630250Y-26171919D01*
X8651074Y-26166703D01*
X8672309Y-26163553D01*
X8693750Y-26162500D01*
X9206250Y-26162500D01*
X9227691Y-26163553D01*
G37*
G04 #@! TD.AperFunction*
D12*
X14750000Y-4250000D03*
X13500000Y-4250000D03*
X12250000Y-4250000D03*
X11000000Y-4250000D03*
X9750000Y-4250000D03*
X8500000Y-4250000D03*
G04 #@! TA.AperFunction,ComponentPad*
D11*
G36*
X7497054Y-3551083D02*
G01*
X7518895Y-3554323D01*
X7540314Y-3559688D01*
X7561104Y-3567127D01*
X7581064Y-3576568D01*
X7600003Y-3587919D01*
X7617738Y-3601073D01*
X7634099Y-3615901D01*
X7648927Y-3632262D01*
X7662081Y-3649997D01*
X7673432Y-3668936D01*
X7682873Y-3688896D01*
X7690312Y-3709686D01*
X7695677Y-3731105D01*
X7698917Y-3752946D01*
X7700000Y-3775000D01*
X7700000Y-4725000D01*
X7698917Y-4747054D01*
X7695677Y-4768895D01*
X7690312Y-4790314D01*
X7682873Y-4811104D01*
X7673432Y-4831064D01*
X7662081Y-4850003D01*
X7648927Y-4867738D01*
X7634099Y-4884099D01*
X7617738Y-4898927D01*
X7600003Y-4912081D01*
X7581064Y-4923432D01*
X7561104Y-4932873D01*
X7540314Y-4940312D01*
X7518895Y-4945677D01*
X7497054Y-4948917D01*
X7475000Y-4950000D01*
X7025000Y-4950000D01*
X7002946Y-4948917D01*
X6981105Y-4945677D01*
X6959686Y-4940312D01*
X6938896Y-4932873D01*
X6918936Y-4923432D01*
X6899997Y-4912081D01*
X6882262Y-4898927D01*
X6865901Y-4884099D01*
X6851073Y-4867738D01*
X6837919Y-4850003D01*
X6826568Y-4831064D01*
X6817127Y-4811104D01*
X6809688Y-4790314D01*
X6804323Y-4768895D01*
X6801083Y-4747054D01*
X6800000Y-4725000D01*
X6800000Y-3775000D01*
X6801083Y-3752946D01*
X6804323Y-3731105D01*
X6809688Y-3709686D01*
X6817127Y-3688896D01*
X6826568Y-3668936D01*
X6837919Y-3649997D01*
X6851073Y-3632262D01*
X6865901Y-3615901D01*
X6882262Y-3601073D01*
X6899997Y-3587919D01*
X6918936Y-3576568D01*
X6938896Y-3567127D01*
X6959686Y-3559688D01*
X6981105Y-3554323D01*
X7002946Y-3551083D01*
X7025000Y-3550000D01*
X7475000Y-3550000D01*
X7497054Y-3551083D01*
G37*
G04 #@! TD.AperFunction*
G04 #@! TA.AperFunction,SMDPad,CuDef*
G36*
X1627691Y-5738553D02*
G01*
X1648926Y-5741703D01*
X1669750Y-5746919D01*
X1689962Y-5754151D01*
X1709368Y-5763330D01*
X1727781Y-5774366D01*
X1745024Y-5787154D01*
X1760930Y-5801570D01*
X1775346Y-5817476D01*
X1788134Y-5834719D01*
X1799170Y-5853132D01*
X1808349Y-5872538D01*
X1815581Y-5892750D01*
X1820797Y-5913574D01*
X1823947Y-5934809D01*
X1825000Y-5956250D01*
X1825000Y-6393750D01*
X1823947Y-6415191D01*
X1820797Y-6436426D01*
X1815581Y-6457250D01*
X1808349Y-6477462D01*
X1799170Y-6496868D01*
X1788134Y-6515281D01*
X1775346Y-6532524D01*
X1760930Y-6548430D01*
X1745024Y-6562846D01*
X1727781Y-6575634D01*
X1709368Y-6586670D01*
X1689962Y-6595849D01*
X1669750Y-6603081D01*
X1648926Y-6608297D01*
X1627691Y-6611447D01*
X1606250Y-6612500D01*
X1093750Y-6612500D01*
X1072309Y-6611447D01*
X1051074Y-6608297D01*
X1030250Y-6603081D01*
X1010038Y-6595849D01*
X990632Y-6586670D01*
X972219Y-6575634D01*
X954976Y-6562846D01*
X939070Y-6548430D01*
X924654Y-6532524D01*
X911866Y-6515281D01*
X900830Y-6496868D01*
X891651Y-6477462D01*
X884419Y-6457250D01*
X879203Y-6436426D01*
X876053Y-6415191D01*
X875000Y-6393750D01*
X875000Y-5956250D01*
X876053Y-5934809D01*
X879203Y-5913574D01*
X884419Y-5892750D01*
X891651Y-5872538D01*
X900830Y-5853132D01*
X911866Y-5834719D01*
X924654Y-5817476D01*
X939070Y-5801570D01*
X954976Y-5787154D01*
X972219Y-5774366D01*
X990632Y-5763330D01*
X1010038Y-5754151D01*
X1030250Y-5746919D01*
X1051074Y-5741703D01*
X1072309Y-5738553D01*
X1093750Y-5737500D01*
X1606250Y-5737500D01*
X1627691Y-5738553D01*
G37*
G04 #@! TD.AperFunction*
G04 #@! TA.AperFunction,SMDPad,CuDef*
G36*
X1627691Y-7313553D02*
G01*
X1648926Y-7316703D01*
X1669750Y-7321919D01*
X1689962Y-7329151D01*
X1709368Y-7338330D01*
X1727781Y-7349366D01*
X1745024Y-7362154D01*
X1760930Y-7376570D01*
X1775346Y-7392476D01*
X1788134Y-7409719D01*
X1799170Y-7428132D01*
X1808349Y-7447538D01*
X1815581Y-7467750D01*
X1820797Y-7488574D01*
X1823947Y-7509809D01*
X1825000Y-7531250D01*
X1825000Y-7968750D01*
X1823947Y-7990191D01*
X1820797Y-8011426D01*
X1815581Y-8032250D01*
X1808349Y-8052462D01*
X1799170Y-8071868D01*
X1788134Y-8090281D01*
X1775346Y-8107524D01*
X1760930Y-8123430D01*
X1745024Y-8137846D01*
X1727781Y-8150634D01*
X1709368Y-8161670D01*
X1689962Y-8170849D01*
X1669750Y-8178081D01*
X1648926Y-8183297D01*
X1627691Y-8186447D01*
X1606250Y-8187500D01*
X1093750Y-8187500D01*
X1072309Y-8186447D01*
X1051074Y-8183297D01*
X1030250Y-8178081D01*
X1010038Y-8170849D01*
X990632Y-8161670D01*
X972219Y-8150634D01*
X954976Y-8137846D01*
X939070Y-8123430D01*
X924654Y-8107524D01*
X911866Y-8090281D01*
X900830Y-8071868D01*
X891651Y-8052462D01*
X884419Y-8032250D01*
X879203Y-8011426D01*
X876053Y-7990191D01*
X875000Y-7968750D01*
X875000Y-7531250D01*
X876053Y-7509809D01*
X879203Y-7488574D01*
X884419Y-7467750D01*
X891651Y-7447538D01*
X900830Y-7428132D01*
X911866Y-7409719D01*
X924654Y-7392476D01*
X939070Y-7376570D01*
X954976Y-7362154D01*
X972219Y-7349366D01*
X990632Y-7338330D01*
X1010038Y-7329151D01*
X1030250Y-7321919D01*
X1051074Y-7316703D01*
X1072309Y-7313553D01*
X1093750Y-7312500D01*
X1606250Y-7312500D01*
X1627691Y-7313553D01*
G37*
G04 #@! TD.AperFunction*
G04 #@! TA.AperFunction,SMDPad,CuDef*
G36*
X1927691Y-12863553D02*
G01*
X1948926Y-12866703D01*
X1969750Y-12871919D01*
X1989962Y-12879151D01*
X2009368Y-12888330D01*
X2027781Y-12899366D01*
X2045024Y-12912154D01*
X2060930Y-12926570D01*
X2075346Y-12942476D01*
X2088134Y-12959719D01*
X2099170Y-12978132D01*
X2108349Y-12997538D01*
X2115581Y-13017750D01*
X2120797Y-13038574D01*
X2123947Y-13059809D01*
X2125000Y-13081250D01*
X2125000Y-13518750D01*
X2123947Y-13540191D01*
X2120797Y-13561426D01*
X2115581Y-13582250D01*
X2108349Y-13602462D01*
X2099170Y-13621868D01*
X2088134Y-13640281D01*
X2075346Y-13657524D01*
X2060930Y-13673430D01*
X2045024Y-13687846D01*
X2027781Y-13700634D01*
X2009368Y-13711670D01*
X1989962Y-13720849D01*
X1969750Y-13728081D01*
X1948926Y-13733297D01*
X1927691Y-13736447D01*
X1906250Y-13737500D01*
X1393750Y-13737500D01*
X1372309Y-13736447D01*
X1351074Y-13733297D01*
X1330250Y-13728081D01*
X1310038Y-13720849D01*
X1290632Y-13711670D01*
X1272219Y-13700634D01*
X1254976Y-13687846D01*
X1239070Y-13673430D01*
X1224654Y-13657524D01*
X1211866Y-13640281D01*
X1200830Y-13621868D01*
X1191651Y-13602462D01*
X1184419Y-13582250D01*
X1179203Y-13561426D01*
X1176053Y-13540191D01*
X1175000Y-13518750D01*
X1175000Y-13081250D01*
X1176053Y-13059809D01*
X1179203Y-13038574D01*
X1184419Y-13017750D01*
X1191651Y-12997538D01*
X1200830Y-12978132D01*
X1211866Y-12959719D01*
X1224654Y-12942476D01*
X1239070Y-12926570D01*
X1254976Y-12912154D01*
X1272219Y-12899366D01*
X1290632Y-12888330D01*
X1310038Y-12879151D01*
X1330250Y-12871919D01*
X1351074Y-12866703D01*
X1372309Y-12863553D01*
X1393750Y-12862500D01*
X1906250Y-12862500D01*
X1927691Y-12863553D01*
G37*
G04 #@! TD.AperFunction*
G04 #@! TA.AperFunction,SMDPad,CuDef*
G36*
X1927691Y-14438553D02*
G01*
X1948926Y-14441703D01*
X1969750Y-14446919D01*
X1989962Y-14454151D01*
X2009368Y-14463330D01*
X2027781Y-14474366D01*
X2045024Y-14487154D01*
X2060930Y-14501570D01*
X2075346Y-14517476D01*
X2088134Y-14534719D01*
X2099170Y-14553132D01*
X2108349Y-14572538D01*
X2115581Y-14592750D01*
X2120797Y-14613574D01*
X2123947Y-14634809D01*
X2125000Y-14656250D01*
X2125000Y-15093750D01*
X2123947Y-15115191D01*
X2120797Y-15136426D01*
X2115581Y-15157250D01*
X2108349Y-15177462D01*
X2099170Y-15196868D01*
X2088134Y-15215281D01*
X2075346Y-15232524D01*
X2060930Y-15248430D01*
X2045024Y-15262846D01*
X2027781Y-15275634D01*
X2009368Y-15286670D01*
X1989962Y-15295849D01*
X1969750Y-15303081D01*
X1948926Y-15308297D01*
X1927691Y-15311447D01*
X1906250Y-15312500D01*
X1393750Y-15312500D01*
X1372309Y-15311447D01*
X1351074Y-15308297D01*
X1330250Y-15303081D01*
X1310038Y-15295849D01*
X1290632Y-15286670D01*
X1272219Y-15275634D01*
X1254976Y-15262846D01*
X1239070Y-15248430D01*
X1224654Y-15232524D01*
X1211866Y-15215281D01*
X1200830Y-15196868D01*
X1191651Y-15177462D01*
X1184419Y-15157250D01*
X1179203Y-15136426D01*
X1176053Y-15115191D01*
X1175000Y-15093750D01*
X1175000Y-14656250D01*
X1176053Y-14634809D01*
X1179203Y-14613574D01*
X1184419Y-14592750D01*
X1191651Y-14572538D01*
X1200830Y-14553132D01*
X1211866Y-14534719D01*
X1224654Y-14517476D01*
X1239070Y-14501570D01*
X1254976Y-14487154D01*
X1272219Y-14474366D01*
X1290632Y-14463330D01*
X1310038Y-14454151D01*
X1330250Y-14446919D01*
X1351074Y-14441703D01*
X1372309Y-14438553D01*
X1393750Y-14437500D01*
X1906250Y-14437500D01*
X1927691Y-14438553D01*
G37*
G04 #@! TD.AperFunction*
G04 #@! TA.AperFunction,SMDPad,CuDef*
G36*
X7527691Y-26163553D02*
G01*
X7548926Y-26166703D01*
X7569750Y-26171919D01*
X7589962Y-26179151D01*
X7609368Y-26188330D01*
X7627781Y-26199366D01*
X7645024Y-26212154D01*
X7660930Y-26226570D01*
X7675346Y-26242476D01*
X7688134Y-26259719D01*
X7699170Y-26278132D01*
X7708349Y-26297538D01*
X7715581Y-26317750D01*
X7720797Y-26338574D01*
X7723947Y-26359809D01*
X7725000Y-26381250D01*
X7725000Y-26818750D01*
X7723947Y-26840191D01*
X7720797Y-26861426D01*
X7715581Y-26882250D01*
X7708349Y-26902462D01*
X7699170Y-26921868D01*
X7688134Y-26940281D01*
X7675346Y-26957524D01*
X7660930Y-26973430D01*
X7645024Y-26987846D01*
X7627781Y-27000634D01*
X7609368Y-27011670D01*
X7589962Y-27020849D01*
X7569750Y-27028081D01*
X7548926Y-27033297D01*
X7527691Y-27036447D01*
X7506250Y-27037500D01*
X6993750Y-27037500D01*
X6972309Y-27036447D01*
X6951074Y-27033297D01*
X6930250Y-27028081D01*
X6910038Y-27020849D01*
X6890632Y-27011670D01*
X6872219Y-27000634D01*
X6854976Y-26987846D01*
X6839070Y-26973430D01*
X6824654Y-26957524D01*
X6811866Y-26940281D01*
X6800830Y-26921868D01*
X6791651Y-26902462D01*
X6784419Y-26882250D01*
X6779203Y-26861426D01*
X6776053Y-26840191D01*
X6775000Y-26818750D01*
X6775000Y-26381250D01*
X6776053Y-26359809D01*
X6779203Y-26338574D01*
X6784419Y-26317750D01*
X6791651Y-26297538D01*
X6800830Y-26278132D01*
X6811866Y-26259719D01*
X6824654Y-26242476D01*
X6839070Y-26226570D01*
X6854976Y-26212154D01*
X6872219Y-26199366D01*
X6890632Y-26188330D01*
X6910038Y-26179151D01*
X6930250Y-26171919D01*
X6951074Y-26166703D01*
X6972309Y-26163553D01*
X6993750Y-26162500D01*
X7506250Y-26162500D01*
X7527691Y-26163553D01*
G37*
G04 #@! TD.AperFunction*
G04 #@! TA.AperFunction,SMDPad,CuDef*
G36*
X7527691Y-27738553D02*
G01*
X7548926Y-27741703D01*
X7569750Y-27746919D01*
X7589962Y-27754151D01*
X7609368Y-27763330D01*
X7627781Y-27774366D01*
X7645024Y-27787154D01*
X7660930Y-27801570D01*
X7675346Y-27817476D01*
X7688134Y-27834719D01*
X7699170Y-27853132D01*
X7708349Y-27872538D01*
X7715581Y-27892750D01*
X7720797Y-27913574D01*
X7723947Y-27934809D01*
X7725000Y-27956250D01*
X7725000Y-28393750D01*
X7723947Y-28415191D01*
X7720797Y-28436426D01*
X7715581Y-28457250D01*
X7708349Y-28477462D01*
X7699170Y-28496868D01*
X7688134Y-28515281D01*
X7675346Y-28532524D01*
X7660930Y-28548430D01*
X7645024Y-28562846D01*
X7627781Y-28575634D01*
X7609368Y-28586670D01*
X7589962Y-28595849D01*
X7569750Y-28603081D01*
X7548926Y-28608297D01*
X7527691Y-28611447D01*
X7506250Y-28612500D01*
X6993750Y-28612500D01*
X6972309Y-28611447D01*
X6951074Y-28608297D01*
X6930250Y-28603081D01*
X6910038Y-28595849D01*
X6890632Y-28586670D01*
X6872219Y-28575634D01*
X6854976Y-28562846D01*
X6839070Y-28548430D01*
X6824654Y-28532524D01*
X6811866Y-28515281D01*
X6800830Y-28496868D01*
X6791651Y-28477462D01*
X6784419Y-28457250D01*
X6779203Y-28436426D01*
X6776053Y-28415191D01*
X6775000Y-28393750D01*
X6775000Y-27956250D01*
X6776053Y-27934809D01*
X6779203Y-27913574D01*
X6784419Y-27892750D01*
X6791651Y-27872538D01*
X6800830Y-27853132D01*
X6811866Y-27834719D01*
X6824654Y-27817476D01*
X6839070Y-27801570D01*
X6854976Y-27787154D01*
X6872219Y-27774366D01*
X6890632Y-27763330D01*
X6910038Y-27754151D01*
X6930250Y-27746919D01*
X6951074Y-27741703D01*
X6972309Y-27738553D01*
X6993750Y-27737500D01*
X7506250Y-27737500D01*
X7527691Y-27738553D01*
G37*
G04 #@! TD.AperFunction*
G04 #@! TA.AperFunction,SMDPad,CuDef*
G36*
X10977691Y-26163553D02*
G01*
X10998926Y-26166703D01*
X11019750Y-26171919D01*
X11039962Y-26179151D01*
X11059368Y-26188330D01*
X11077781Y-26199366D01*
X11095024Y-26212154D01*
X11110930Y-26226570D01*
X11125346Y-26242476D01*
X11138134Y-26259719D01*
X11149170Y-26278132D01*
X11158349Y-26297538D01*
X11165581Y-26317750D01*
X11170797Y-26338574D01*
X11173947Y-26359809D01*
X11175000Y-26381250D01*
X11175000Y-26818750D01*
X11173947Y-26840191D01*
X11170797Y-26861426D01*
X11165581Y-26882250D01*
X11158349Y-26902462D01*
X11149170Y-26921868D01*
X11138134Y-26940281D01*
X11125346Y-26957524D01*
X11110930Y-26973430D01*
X11095024Y-26987846D01*
X11077781Y-27000634D01*
X11059368Y-27011670D01*
X11039962Y-27020849D01*
X11019750Y-27028081D01*
X10998926Y-27033297D01*
X10977691Y-27036447D01*
X10956250Y-27037500D01*
X10443750Y-27037500D01*
X10422309Y-27036447D01*
X10401074Y-27033297D01*
X10380250Y-27028081D01*
X10360038Y-27020849D01*
X10340632Y-27011670D01*
X10322219Y-27000634D01*
X10304976Y-26987846D01*
X10289070Y-26973430D01*
X10274654Y-26957524D01*
X10261866Y-26940281D01*
X10250830Y-26921868D01*
X10241651Y-26902462D01*
X10234419Y-26882250D01*
X10229203Y-26861426D01*
X10226053Y-26840191D01*
X10225000Y-26818750D01*
X10225000Y-26381250D01*
X10226053Y-26359809D01*
X10229203Y-26338574D01*
X10234419Y-26317750D01*
X10241651Y-26297538D01*
X10250830Y-26278132D01*
X10261866Y-26259719D01*
X10274654Y-26242476D01*
X10289070Y-26226570D01*
X10304976Y-26212154D01*
X10322219Y-26199366D01*
X10340632Y-26188330D01*
X10360038Y-26179151D01*
X10380250Y-26171919D01*
X10401074Y-26166703D01*
X10422309Y-26163553D01*
X10443750Y-26162500D01*
X10956250Y-26162500D01*
X10977691Y-26163553D01*
G37*
G04 #@! TD.AperFunction*
G04 #@! TA.AperFunction,SMDPad,CuDef*
G36*
X10977691Y-27738553D02*
G01*
X10998926Y-27741703D01*
X11019750Y-27746919D01*
X11039962Y-27754151D01*
X11059368Y-27763330D01*
X11077781Y-27774366D01*
X11095024Y-27787154D01*
X11110930Y-27801570D01*
X11125346Y-27817476D01*
X11138134Y-27834719D01*
X11149170Y-27853132D01*
X11158349Y-27872538D01*
X11165581Y-27892750D01*
X11170797Y-27913574D01*
X11173947Y-27934809D01*
X11175000Y-27956250D01*
X11175000Y-28393750D01*
X11173947Y-28415191D01*
X11170797Y-28436426D01*
X11165581Y-28457250D01*
X11158349Y-28477462D01*
X11149170Y-28496868D01*
X11138134Y-28515281D01*
X11125346Y-28532524D01*
X11110930Y-28548430D01*
X11095024Y-28562846D01*
X11077781Y-28575634D01*
X11059368Y-28586670D01*
X11039962Y-28595849D01*
X11019750Y-28603081D01*
X10998926Y-28608297D01*
X10977691Y-28611447D01*
X10956250Y-28612500D01*
X10443750Y-28612500D01*
X10422309Y-28611447D01*
X10401074Y-28608297D01*
X10380250Y-28603081D01*
X10360038Y-28595849D01*
X10340632Y-28586670D01*
X10322219Y-28575634D01*
X10304976Y-28562846D01*
X10289070Y-28548430D01*
X10274654Y-28532524D01*
X10261866Y-28515281D01*
X10250830Y-28496868D01*
X10241651Y-28477462D01*
X10234419Y-28457250D01*
X10229203Y-28436426D01*
X10226053Y-28415191D01*
X10225000Y-28393750D01*
X10225000Y-27956250D01*
X10226053Y-27934809D01*
X10229203Y-27913574D01*
X10234419Y-27892750D01*
X10241651Y-27872538D01*
X10250830Y-27853132D01*
X10261866Y-27834719D01*
X10274654Y-27817476D01*
X10289070Y-27801570D01*
X10304976Y-27787154D01*
X10322219Y-27774366D01*
X10340632Y-27763330D01*
X10360038Y-27754151D01*
X10380250Y-27746919D01*
X10401074Y-27741703D01*
X10422309Y-27738553D01*
X10443750Y-27737500D01*
X10956250Y-27737500D01*
X10977691Y-27738553D01*
G37*
G04 #@! TD.AperFunction*
G04 #@! TA.AperFunction,SMDPad,CuDef*
G36*
X18477691Y-15688553D02*
G01*
X18498926Y-15691703D01*
X18519750Y-15696919D01*
X18539962Y-15704151D01*
X18559368Y-15713330D01*
X18577781Y-15724366D01*
X18595024Y-15737154D01*
X18610930Y-15751570D01*
X18625346Y-15767476D01*
X18638134Y-15784719D01*
X18649170Y-15803132D01*
X18658349Y-15822538D01*
X18665581Y-15842750D01*
X18670797Y-15863574D01*
X18673947Y-15884809D01*
X18675000Y-15906250D01*
X18675000Y-16343750D01*
X18673947Y-16365191D01*
X18670797Y-16386426D01*
X18665581Y-16407250D01*
X18658349Y-16427462D01*
X18649170Y-16446868D01*
X18638134Y-16465281D01*
X18625346Y-16482524D01*
X18610930Y-16498430D01*
X18595024Y-16512846D01*
X18577781Y-16525634D01*
X18559368Y-16536670D01*
X18539962Y-16545849D01*
X18519750Y-16553081D01*
X18498926Y-16558297D01*
X18477691Y-16561447D01*
X18456250Y-16562500D01*
X17943750Y-16562500D01*
X17922309Y-16561447D01*
X17901074Y-16558297D01*
X17880250Y-16553081D01*
X17860038Y-16545849D01*
X17840632Y-16536670D01*
X17822219Y-16525634D01*
X17804976Y-16512846D01*
X17789070Y-16498430D01*
X17774654Y-16482524D01*
X17761866Y-16465281D01*
X17750830Y-16446868D01*
X17741651Y-16427462D01*
X17734419Y-16407250D01*
X17729203Y-16386426D01*
X17726053Y-16365191D01*
X17725000Y-16343750D01*
X17725000Y-15906250D01*
X17726053Y-15884809D01*
X17729203Y-15863574D01*
X17734419Y-15842750D01*
X17741651Y-15822538D01*
X17750830Y-15803132D01*
X17761866Y-15784719D01*
X17774654Y-15767476D01*
X17789070Y-15751570D01*
X17804976Y-15737154D01*
X17822219Y-15724366D01*
X17840632Y-15713330D01*
X17860038Y-15704151D01*
X17880250Y-15696919D01*
X17901074Y-15691703D01*
X17922309Y-15688553D01*
X17943750Y-15687500D01*
X18456250Y-15687500D01*
X18477691Y-15688553D01*
G37*
G04 #@! TD.AperFunction*
G04 #@! TA.AperFunction,SMDPad,CuDef*
G36*
X18477691Y-17263553D02*
G01*
X18498926Y-17266703D01*
X18519750Y-17271919D01*
X18539962Y-17279151D01*
X18559368Y-17288330D01*
X18577781Y-17299366D01*
X18595024Y-17312154D01*
X18610930Y-17326570D01*
X18625346Y-17342476D01*
X18638134Y-17359719D01*
X18649170Y-17378132D01*
X18658349Y-17397538D01*
X18665581Y-17417750D01*
X18670797Y-17438574D01*
X18673947Y-17459809D01*
X18675000Y-17481250D01*
X18675000Y-17918750D01*
X18673947Y-17940191D01*
X18670797Y-17961426D01*
X18665581Y-17982250D01*
X18658349Y-18002462D01*
X18649170Y-18021868D01*
X18638134Y-18040281D01*
X18625346Y-18057524D01*
X18610930Y-18073430D01*
X18595024Y-18087846D01*
X18577781Y-18100634D01*
X18559368Y-18111670D01*
X18539962Y-18120849D01*
X18519750Y-18128081D01*
X18498926Y-18133297D01*
X18477691Y-18136447D01*
X18456250Y-18137500D01*
X17943750Y-18137500D01*
X17922309Y-18136447D01*
X17901074Y-18133297D01*
X17880250Y-18128081D01*
X17860038Y-18120849D01*
X17840632Y-18111670D01*
X17822219Y-18100634D01*
X17804976Y-18087846D01*
X17789070Y-18073430D01*
X17774654Y-18057524D01*
X17761866Y-18040281D01*
X17750830Y-18021868D01*
X17741651Y-18002462D01*
X17734419Y-17982250D01*
X17729203Y-17961426D01*
X17726053Y-17940191D01*
X17725000Y-17918750D01*
X17725000Y-17481250D01*
X17726053Y-17459809D01*
X17729203Y-17438574D01*
X17734419Y-17417750D01*
X17741651Y-17397538D01*
X17750830Y-17378132D01*
X17761866Y-17359719D01*
X17774654Y-17342476D01*
X17789070Y-17326570D01*
X17804976Y-17312154D01*
X17822219Y-17299366D01*
X17840632Y-17288330D01*
X17860038Y-17279151D01*
X17880250Y-17271919D01*
X17901074Y-17266703D01*
X17922309Y-17263553D01*
X17943750Y-17262500D01*
X18456250Y-17262500D01*
X18477691Y-17263553D01*
G37*
G04 #@! TD.AperFunction*
G04 #@! TA.AperFunction,SMDPad,CuDef*
G36*
X18477691Y-20988553D02*
G01*
X18498926Y-20991703D01*
X18519750Y-20996919D01*
X18539962Y-21004151D01*
X18559368Y-21013330D01*
X18577781Y-21024366D01*
X18595024Y-21037154D01*
X18610930Y-21051570D01*
X18625346Y-21067476D01*
X18638134Y-21084719D01*
X18649170Y-21103132D01*
X18658349Y-21122538D01*
X18665581Y-21142750D01*
X18670797Y-21163574D01*
X18673947Y-21184809D01*
X18675000Y-21206250D01*
X18675000Y-21643750D01*
X18673947Y-21665191D01*
X18670797Y-21686426D01*
X18665581Y-21707250D01*
X18658349Y-21727462D01*
X18649170Y-21746868D01*
X18638134Y-21765281D01*
X18625346Y-21782524D01*
X18610930Y-21798430D01*
X18595024Y-21812846D01*
X18577781Y-21825634D01*
X18559368Y-21836670D01*
X18539962Y-21845849D01*
X18519750Y-21853081D01*
X18498926Y-21858297D01*
X18477691Y-21861447D01*
X18456250Y-21862500D01*
X17943750Y-21862500D01*
X17922309Y-21861447D01*
X17901074Y-21858297D01*
X17880250Y-21853081D01*
X17860038Y-21845849D01*
X17840632Y-21836670D01*
X17822219Y-21825634D01*
X17804976Y-21812846D01*
X17789070Y-21798430D01*
X17774654Y-21782524D01*
X17761866Y-21765281D01*
X17750830Y-21746868D01*
X17741651Y-21727462D01*
X17734419Y-21707250D01*
X17729203Y-21686426D01*
X17726053Y-21665191D01*
X17725000Y-21643750D01*
X17725000Y-21206250D01*
X17726053Y-21184809D01*
X17729203Y-21163574D01*
X17734419Y-21142750D01*
X17741651Y-21122538D01*
X17750830Y-21103132D01*
X17761866Y-21084719D01*
X17774654Y-21067476D01*
X17789070Y-21051570D01*
X17804976Y-21037154D01*
X17822219Y-21024366D01*
X17840632Y-21013330D01*
X17860038Y-21004151D01*
X17880250Y-20996919D01*
X17901074Y-20991703D01*
X17922309Y-20988553D01*
X17943750Y-20987500D01*
X18456250Y-20987500D01*
X18477691Y-20988553D01*
G37*
G04 #@! TD.AperFunction*
G04 #@! TA.AperFunction,SMDPad,CuDef*
G36*
X18477691Y-19413553D02*
G01*
X18498926Y-19416703D01*
X18519750Y-19421919D01*
X18539962Y-19429151D01*
X18559368Y-19438330D01*
X18577781Y-19449366D01*
X18595024Y-19462154D01*
X18610930Y-19476570D01*
X18625346Y-19492476D01*
X18638134Y-19509719D01*
X18649170Y-19528132D01*
X18658349Y-19547538D01*
X18665581Y-19567750D01*
X18670797Y-19588574D01*
X18673947Y-19609809D01*
X18675000Y-19631250D01*
X18675000Y-20068750D01*
X18673947Y-20090191D01*
X18670797Y-20111426D01*
X18665581Y-20132250D01*
X18658349Y-20152462D01*
X18649170Y-20171868D01*
X18638134Y-20190281D01*
X18625346Y-20207524D01*
X18610930Y-20223430D01*
X18595024Y-20237846D01*
X18577781Y-20250634D01*
X18559368Y-20261670D01*
X18539962Y-20270849D01*
X18519750Y-20278081D01*
X18498926Y-20283297D01*
X18477691Y-20286447D01*
X18456250Y-20287500D01*
X17943750Y-20287500D01*
X17922309Y-20286447D01*
X17901074Y-20283297D01*
X17880250Y-20278081D01*
X17860038Y-20270849D01*
X17840632Y-20261670D01*
X17822219Y-20250634D01*
X17804976Y-20237846D01*
X17789070Y-20223430D01*
X17774654Y-20207524D01*
X17761866Y-20190281D01*
X17750830Y-20171868D01*
X17741651Y-20152462D01*
X17734419Y-20132250D01*
X17729203Y-20111426D01*
X17726053Y-20090191D01*
X17725000Y-20068750D01*
X17725000Y-19631250D01*
X17726053Y-19609809D01*
X17729203Y-19588574D01*
X17734419Y-19567750D01*
X17741651Y-19547538D01*
X17750830Y-19528132D01*
X17761866Y-19509719D01*
X17774654Y-19492476D01*
X17789070Y-19476570D01*
X17804976Y-19462154D01*
X17822219Y-19449366D01*
X17840632Y-19438330D01*
X17860038Y-19429151D01*
X17880250Y-19421919D01*
X17901074Y-19416703D01*
X17922309Y-19413553D01*
X17943750Y-19412500D01*
X18456250Y-19412500D01*
X18477691Y-19413553D01*
G37*
G04 #@! TD.AperFunction*
D13*
X2200000Y-17550000D03*
X3500000Y-17550000D03*
X2850000Y-19450000D03*
X2850000Y-17550000D03*
X3500000Y-19450000D03*
X2200000Y-19450000D03*
D14*
X5650000Y-21435000D03*
X5650000Y-19655000D03*
X5650000Y-17875000D03*
X5650000Y-16095000D03*
X5650000Y-14315000D03*
X5650000Y-12535000D03*
X5650000Y-10755000D03*
X5650000Y-8975000D03*
X16350000Y-9865000D03*
X16350000Y-11645000D03*
X16350000Y-13425000D03*
X16350000Y-15205000D03*
X16350000Y-16985000D03*
X16350000Y-18765000D03*
X16350000Y-20545000D03*
X16350000Y-22325000D03*
D15*
X1175000Y-11025000D03*
D16*
X1350000Y-10600000D03*
D17*
X1350000Y-9950000D03*
X1750000Y-9950000D03*
X2150000Y-9950000D03*
X2550000Y-9950000D03*
X2950000Y-9950000D03*
D16*
X2950000Y-10600000D03*
D17*
X2950000Y-11250000D03*
X2550000Y-11250000D03*
X2150000Y-11250000D03*
X1750000Y-11250000D03*
X1350000Y-11250000D03*
D18*
X3800000Y-22750000D03*
X2500000Y-22750000D03*
D19*
X20450000Y-6070000D03*
X20450000Y-8610000D03*
X20450000Y-11150000D03*
X20450000Y-13690000D03*
X20450000Y-16230000D03*
X20450000Y-18770000D03*
X20450000Y-21310000D03*
D20*
X20450000Y-23850000D03*
D21*
X15500000Y-2050000D03*
X17050000Y-27400000D03*
X12800000Y-27400000D03*
X1050000Y-5050000D03*
X1150000Y-24800000D03*
X1350000Y-16200000D03*
X9200000Y-6600000D03*
X4025000Y-9725000D03*
X5000000Y-29000000D03*
X18450000Y-25200000D03*
D22*
X2600000Y-6000000D03*
X6200000Y-27350000D03*
D21*
X2400000Y-15900000D03*
X3450000Y-16400000D03*
X3600000Y-18500000D03*
X4450000Y-13250000D03*
X4350000Y-12250000D03*
X3450000Y-13350000D03*
D23*
X2950000Y-10600000D02*
X3200000Y-10600000D01*
D24*
X14750000Y-4250000D02*
X14750000Y-4750000D01*
X16350000Y-6350000D02*
X16350000Y-9865000D01*
X14750000Y-4750000D02*
X16350000Y-6350000D01*
D23*
X3200000Y-10600000D02*
X3850000Y-9900000D01*
X3850000Y-9900000D02*
X4025000Y-9775000D01*
D24*
X15350001Y-27400000D02*
X16150001Y-26600000D01*
X14600000Y-27400000D02*
X15350001Y-27400000D01*
D23*
X10700000Y-26600000D02*
X10750000Y-26600000D01*
D24*
X16250000Y-26600000D02*
X17050000Y-27400000D01*
X16150001Y-26600000D02*
X16250000Y-26600000D01*
X18200000Y-16125000D02*
X18200000Y-14750000D01*
X18200000Y-14750000D02*
X19150000Y-13800000D01*
X19150000Y-9910000D02*
X20450000Y-8610000D01*
X19150000Y-13800000D02*
X19150000Y-9910000D01*
X18200000Y-21425000D02*
X18200000Y-21400000D01*
X18200000Y-21400000D02*
X19150000Y-20450000D01*
X19150000Y-17075000D02*
X18200000Y-16125000D01*
X19150000Y-20450000D02*
X19150000Y-17075000D01*
X14750000Y-3600000D02*
X14750000Y-4250000D01*
X12500000Y-1350000D02*
X14750000Y-3600000D01*
X6500000Y-1350000D02*
X12500000Y-1350000D01*
X4850000Y-3000000D02*
X6500000Y-1350000D01*
X4850000Y-4250000D02*
X4850000Y-3000000D01*
X1350000Y-6175000D02*
X1350000Y-5900000D01*
X1350000Y-5900000D02*
X2150000Y-5100000D01*
X2150000Y-5100000D02*
X4000000Y-5100000D01*
X4000000Y-5100000D02*
X4850000Y-4250000D01*
D23*
X1650000Y-14875000D02*
X1575000Y-14875000D01*
D24*
X1050000Y-5875000D02*
X1350000Y-6175000D01*
X1050000Y-5050000D02*
X1050000Y-5875000D01*
X11500000Y-27400000D02*
X10700000Y-26600000D01*
X12800000Y-27400000D02*
X11500000Y-27400000D01*
D23*
X1350000Y-15150000D02*
X1625000Y-14875000D01*
X1625000Y-14875000D02*
X1650000Y-14875000D01*
D24*
X1350000Y-16200000D02*
X1350000Y-17950000D01*
X1350000Y-17950000D02*
X1900000Y-18500000D01*
D25*
X1900000Y-18500000D02*
X2500000Y-18500000D01*
X2850000Y-18850000D02*
X2850000Y-19450000D01*
X2500000Y-18500000D02*
X2850000Y-18850000D01*
D24*
X1350000Y-15175000D02*
X1650000Y-14875000D01*
X1350000Y-16200000D02*
X1350000Y-15175000D01*
X6850000Y-6600000D02*
X9200000Y-6600000D01*
X4025000Y-9725000D02*
X3850000Y-9900000D01*
X13000000Y-6600000D02*
X6850000Y-6600000D01*
X14750000Y-4250000D02*
X14750000Y-4850000D01*
X14750000Y-4850000D02*
X13000000Y-6600000D01*
X4100000Y-9650000D02*
X4025000Y-9725000D01*
X4100000Y-8750000D02*
X4100000Y-9650000D01*
X6850000Y-6600000D02*
X6250000Y-6600000D01*
X6250000Y-6600000D02*
X4100000Y-8750000D01*
D23*
X16350000Y-18765000D02*
X16350000Y-18800000D01*
X17115000Y-18765000D02*
X18200000Y-19850000D01*
X16350000Y-18765000D02*
X17115000Y-18765000D01*
X18200000Y-19850000D02*
X18200000Y-17700000D01*
D26*
X1350000Y-9950000D02*
X1350000Y-7750000D01*
D24*
X2600000Y-6500000D02*
X1350000Y-7750000D01*
X2600000Y-6000000D02*
X2600000Y-6500000D01*
X1350000Y-7750000D02*
X650000Y-8450000D01*
X650000Y-8450000D02*
X500000Y-8600000D01*
X600000Y-19450000D02*
X500000Y-19350000D01*
X500000Y-19000000D02*
X950000Y-19450000D01*
X500000Y-18950000D02*
X500000Y-19000000D01*
X500000Y-18950000D02*
X500000Y-19350000D01*
X950000Y-19450000D02*
X600000Y-19450000D01*
X500000Y-8600000D02*
X500000Y-18950000D01*
X950000Y-19450000D02*
X500000Y-19900000D01*
X500000Y-19350000D02*
X500000Y-19900000D01*
X15975001Y-28350000D02*
X16150001Y-28175000D01*
X14600000Y-28350000D02*
X15975001Y-28350000D01*
X950000Y-19450000D02*
X2200000Y-19450000D01*
X14100000Y-26450000D02*
X14600000Y-26450000D01*
X13750000Y-26800000D02*
X14100000Y-26450000D01*
X14600000Y-28350000D02*
X14150000Y-28350000D01*
X13750000Y-27950000D02*
X13750000Y-26800000D01*
X14150000Y-28350000D02*
X13750000Y-27950000D01*
X3950000Y-24550000D02*
X5250000Y-25850000D01*
X2400000Y-24550000D02*
X3950000Y-24550000D01*
X1550000Y-23700000D02*
X2400000Y-24550000D01*
X500000Y-19900000D02*
X1550000Y-20950000D01*
X1550000Y-20950000D02*
X1550000Y-23700000D01*
X5250000Y-25850000D02*
X5250000Y-27900000D01*
X5250000Y-27900000D02*
X6450000Y-29100000D01*
X6450000Y-29100000D02*
X13850000Y-29100000D01*
X13850000Y-29100000D02*
X14600000Y-28350000D01*
X15750000Y-25700000D02*
X17600000Y-23850000D01*
X17600000Y-23850000D02*
X20450000Y-23850000D01*
X14600000Y-26450000D02*
X14700000Y-26450000D01*
X15450000Y-25700000D02*
X15750000Y-25700000D01*
X14700000Y-26450000D02*
X15450000Y-25700000D01*
D23*
X16350000Y-15205000D02*
X16495000Y-15205000D01*
D26*
X1350000Y-10600000D02*
X1350000Y-11250000D01*
X1175000Y-11075000D02*
X1350000Y-11250000D01*
X1175000Y-11025000D02*
X1175000Y-11075000D01*
X1175000Y-10775000D02*
X1350000Y-10600000D01*
X1175000Y-11025000D02*
X1175000Y-10775000D01*
X1350000Y-13100000D02*
X1650000Y-13400000D01*
X1350000Y-11250000D02*
X1350000Y-13100000D01*
D24*
X16350000Y-15205000D02*
X16350000Y-16985000D01*
X7250000Y-28175000D02*
X8950000Y-28175000D01*
X8950000Y-28175000D02*
X10700000Y-28175000D01*
X10875000Y-28350000D02*
X10700000Y-28175000D01*
X12200000Y-28350000D02*
X10875000Y-28350000D01*
X16350000Y-15205000D02*
X16745000Y-15205000D01*
X18200000Y-13750000D02*
X18200000Y-12950000D01*
X16745000Y-15205000D02*
X18200000Y-13750000D01*
X7250000Y-28175000D02*
X7025000Y-28175000D01*
X7025000Y-28175000D02*
X6200000Y-27350000D01*
X3000000Y-14650000D02*
X1650000Y-13300000D01*
X2400000Y-15900000D02*
X3000000Y-15300000D01*
X3000000Y-15300000D02*
X3000000Y-14650000D01*
X2200000Y-16100000D02*
X2400000Y-15900000D01*
X2200000Y-17550000D02*
X2200000Y-16100000D01*
D26*
X1750000Y-8700000D02*
X2150000Y-8300000D01*
X1750000Y-9950000D02*
X1750000Y-8700000D01*
D23*
X13500000Y-3550000D02*
X13500000Y-4250000D01*
X11900000Y-1950000D02*
X13500000Y-3550000D01*
X2150000Y-7800000D02*
X5450000Y-4500000D01*
X2150000Y-8300000D02*
X2150000Y-7800000D01*
X5450000Y-3250000D02*
X6750000Y-1950000D01*
X6750000Y-1950000D02*
X11900000Y-1950000D01*
X5450000Y-4500000D02*
X5450000Y-3250000D01*
D26*
X2150000Y-9050000D02*
X2600000Y-8600000D01*
X2150000Y-9950000D02*
X2150000Y-9050000D01*
D23*
X12250000Y-3550000D02*
X12250000Y-4250000D01*
X11100000Y-2400000D02*
X12250000Y-3550000D01*
X2600000Y-8050000D02*
X5900000Y-4750000D01*
X2600000Y-8600000D02*
X2600000Y-8050000D01*
X5900000Y-4750000D02*
X5900000Y-3450000D01*
X5900000Y-3450000D02*
X6950000Y-2400000D01*
X6950000Y-2400000D02*
X11100000Y-2400000D01*
X2850000Y-17000000D02*
X2850000Y-17550000D01*
X3450000Y-16400000D02*
X2850000Y-17000000D01*
D26*
X2550000Y-9950000D02*
X2550000Y-9300000D01*
X2550000Y-9300000D02*
X3050000Y-8800000D01*
D23*
X11000000Y-3650000D02*
X11000000Y-4250000D01*
X10200000Y-2850000D02*
X11000000Y-3650000D01*
X3050000Y-8250000D02*
X6350000Y-4950000D01*
X3050000Y-8800000D02*
X3050000Y-8250000D01*
X6350000Y-4950000D02*
X6350000Y-3650000D01*
X7150000Y-2850000D02*
X10200000Y-2850000D01*
X6350000Y-3650000D02*
X7150000Y-2850000D01*
D26*
X2950000Y-9950000D02*
X2950000Y-9550000D01*
X2950000Y-9550000D02*
X3200000Y-9300000D01*
X3200000Y-9300000D02*
X3400000Y-9100000D01*
D23*
X9750000Y-4650000D02*
X9750000Y-4250000D01*
X6650000Y-5300000D02*
X9100000Y-5300000D01*
X3500000Y-9000000D02*
X3500000Y-8450000D01*
X3400000Y-9100000D02*
X3500000Y-9000000D01*
X3500000Y-8450000D02*
X6650000Y-5300000D01*
X9100000Y-5300000D02*
X9750000Y-4650000D01*
X3600000Y-19350000D02*
X3500000Y-19450000D01*
X3600000Y-18500000D02*
X3600000Y-19350000D01*
X17930000Y-11645000D02*
X18200000Y-11375000D01*
X16350000Y-11645000D02*
X17930000Y-11645000D01*
X18200000Y-8320000D02*
X20450000Y-6070000D01*
X18200000Y-11375000D02*
X18200000Y-8320000D01*
X3500000Y-17550000D02*
X3550000Y-17550000D01*
X3550000Y-17550000D02*
X4550000Y-16550000D01*
X4550000Y-15415000D02*
X5650000Y-14315000D01*
X4550000Y-16550000D02*
X4550000Y-15415000D01*
X3500000Y-17550000D02*
X4050000Y-17550000D01*
X4050000Y-17550000D02*
X4650000Y-18150000D01*
X4650000Y-18150000D02*
X4650000Y-20400000D01*
X4200000Y-20850000D02*
X4650000Y-20400000D01*
X3800000Y-22750000D02*
X4200000Y-22350000D01*
X4200000Y-22350000D02*
X4200000Y-20850000D01*
X6950000Y-26800000D02*
X7250000Y-26800000D01*
X2500000Y-23250000D02*
X3200000Y-23950000D01*
X2500000Y-22750000D02*
X2500000Y-23250000D01*
X3200000Y-23950000D02*
X4200000Y-23950000D01*
X4200000Y-23950000D02*
X6750000Y-26500000D01*
X6750000Y-26500000D02*
X7250000Y-26500000D01*
X4650000Y-23750000D02*
X6600000Y-25700000D01*
X5650000Y-19655000D02*
X5650000Y-20050000D01*
X5650000Y-20050000D02*
X4650000Y-21050000D01*
X6600000Y-25700000D02*
X8150000Y-25700000D01*
X8150000Y-25700000D02*
X8950000Y-26500000D01*
X4650000Y-21050000D02*
X4650000Y-23750000D01*
D26*
X3750000Y-12650000D02*
X2850000Y-12650000D01*
X4350000Y-13250000D02*
X3750000Y-12650000D01*
X2150000Y-11950000D02*
X2150000Y-11250000D01*
X4450000Y-13250000D02*
X4350000Y-13250000D01*
X2850000Y-12650000D02*
X2150000Y-11950000D01*
X5635000Y-12535000D02*
X5650000Y-12535000D01*
X2950000Y-11250000D02*
X4350000Y-11250000D01*
X4350000Y-11250000D02*
X5635000Y-12535000D01*
X2550000Y-11250000D02*
X2550000Y-11750000D01*
X2550000Y-11750000D02*
X3050000Y-12250000D01*
X3050000Y-12250000D02*
X4350000Y-12250000D01*
X1750000Y-12150000D02*
X1750000Y-11250000D01*
X2950000Y-13350000D02*
X1750000Y-12150000D01*
X3450000Y-13350000D02*
X2950000Y-13350000D01*
D27*
G36*
X665000Y-21316579D02*
G01*
X665001Y-23656521D01*
X660719Y-23700000D01*
X677805Y-23873490D01*
X728412Y-24040313D01*
X810590Y-24194059D01*
X893468Y-24295046D01*
X893471Y-24295049D01*
X921184Y-24328817D01*
X954951Y-24356529D01*
X1743470Y-25145049D01*
X1771183Y-25178817D01*
X1804951Y-25206530D01*
X1804953Y-25206532D01*
X1905941Y-25289411D01*
X2059686Y-25371589D01*
X2178902Y-25407753D01*
X2226510Y-25422195D01*
X2356523Y-25435000D01*
X2356531Y-25435000D01*
X2400000Y-25439281D01*
X2443469Y-25435000D01*
X3583422Y-25435000D01*
X4365000Y-26216579D01*
X4365001Y-27856521D01*
X4360719Y-27900000D01*
X4377805Y-28073490D01*
X4428412Y-28240313D01*
X4510590Y-28394059D01*
X4593468Y-28495046D01*
X4593471Y-28495049D01*
X4621184Y-28528817D01*
X4654951Y-28556529D01*
X5438421Y-29340000D01*
X2532279Y-29340000D01*
X2143224Y-29301853D01*
X1800036Y-29198238D01*
X1483511Y-29029939D01*
X1205704Y-28803365D01*
X977195Y-28527146D01*
X806690Y-28211803D01*
X700681Y-27869344D01*
X660000Y-27482288D01*
X660000Y-27329117D01*
X765000Y-27329117D01*
X765000Y-27670883D01*
X831675Y-28006081D01*
X962463Y-28321831D01*
X1152337Y-28605998D01*
X1394002Y-28847663D01*
X1678169Y-29037537D01*
X1993919Y-29168325D01*
X2329117Y-29235000D01*
X2670883Y-29235000D01*
X3006081Y-29168325D01*
X3321831Y-29037537D01*
X3605998Y-28847663D01*
X3847663Y-28605998D01*
X4037537Y-28321831D01*
X4168325Y-28006081D01*
X4235000Y-27670883D01*
X4235000Y-27329117D01*
X4168325Y-26993919D01*
X4037537Y-26678169D01*
X3847663Y-26394002D01*
X3605998Y-26152337D01*
X3321831Y-25962463D01*
X3006081Y-25831675D01*
X2670883Y-25765000D01*
X2329117Y-25765000D01*
X1993919Y-25831675D01*
X1678169Y-25962463D01*
X1394002Y-26152337D01*
X1152337Y-26394002D01*
X962463Y-26678169D01*
X831675Y-26993919D01*
X765000Y-27329117D01*
X660000Y-27329117D01*
X660000Y-21311579D01*
X665000Y-21316579D01*
G37*
X665000Y-21316579D02*
X665001Y-23656521D01*
X660719Y-23700000D01*
X677805Y-23873490D01*
X728412Y-24040313D01*
X810590Y-24194059D01*
X893468Y-24295046D01*
X893471Y-24295049D01*
X921184Y-24328817D01*
X954951Y-24356529D01*
X1743470Y-25145049D01*
X1771183Y-25178817D01*
X1804951Y-25206530D01*
X1804953Y-25206532D01*
X1905941Y-25289411D01*
X2059686Y-25371589D01*
X2178902Y-25407753D01*
X2226510Y-25422195D01*
X2356523Y-25435000D01*
X2356531Y-25435000D01*
X2400000Y-25439281D01*
X2443469Y-25435000D01*
X3583422Y-25435000D01*
X4365000Y-26216579D01*
X4365001Y-27856521D01*
X4360719Y-27900000D01*
X4377805Y-28073490D01*
X4428412Y-28240313D01*
X4510590Y-28394059D01*
X4593468Y-28495046D01*
X4593471Y-28495049D01*
X4621184Y-28528817D01*
X4654951Y-28556529D01*
X5438421Y-29340000D01*
X2532279Y-29340000D01*
X2143224Y-29301853D01*
X1800036Y-29198238D01*
X1483511Y-29029939D01*
X1205704Y-28803365D01*
X977195Y-28527146D01*
X806690Y-28211803D01*
X700681Y-27869344D01*
X660000Y-27482288D01*
X660000Y-27329117D01*
X765000Y-27329117D01*
X765000Y-27670883D01*
X831675Y-28006081D01*
X962463Y-28321831D01*
X1152337Y-28605998D01*
X1394002Y-28847663D01*
X1678169Y-29037537D01*
X1993919Y-29168325D01*
X2329117Y-29235000D01*
X2670883Y-29235000D01*
X3006081Y-29168325D01*
X3321831Y-29037537D01*
X3605998Y-28847663D01*
X3847663Y-28605998D01*
X4037537Y-28321831D01*
X4168325Y-28006081D01*
X4235000Y-27670883D01*
X4235000Y-27329117D01*
X4168325Y-26993919D01*
X4037537Y-26678169D01*
X3847663Y-26394002D01*
X3605998Y-26152337D01*
X3321831Y-25962463D01*
X3006081Y-25831675D01*
X2670883Y-25765000D01*
X2329117Y-25765000D01*
X1993919Y-25831675D01*
X1678169Y-25962463D01*
X1394002Y-26152337D01*
X1152337Y-26394002D01*
X962463Y-26678169D01*
X831675Y-26993919D01*
X765000Y-27329117D01*
X660000Y-27329117D01*
X660000Y-21311579D01*
X665000Y-21316579D01*
G36*
X18974188Y-24824482D02*
G01*
X19010498Y-24944180D01*
X19069463Y-25054494D01*
X19148815Y-25151185D01*
X19245506Y-25230537D01*
X19355820Y-25289502D01*
X19475518Y-25325812D01*
X19600000Y-25338072D01*
X21300000Y-25338072D01*
X21340001Y-25334132D01*
X21340001Y-27467711D01*
X21301853Y-27856776D01*
X21198238Y-28199964D01*
X21029939Y-28516489D01*
X20803365Y-28794296D01*
X20527146Y-29022805D01*
X20211803Y-29193310D01*
X19869344Y-29299319D01*
X19482288Y-29340000D01*
X14861579Y-29340000D01*
X14938507Y-29263072D01*
X15000000Y-29263072D01*
X15124482Y-29250812D01*
X15176607Y-29235000D01*
X15735649Y-29235000D01*
X15893751Y-29250572D01*
X16406251Y-29250572D01*
X16573409Y-29234108D01*
X16734143Y-29185350D01*
X16882276Y-29106171D01*
X17012116Y-28999615D01*
X17118672Y-28869775D01*
X17197851Y-28721642D01*
X17246609Y-28560908D01*
X17263073Y-28393750D01*
X17263073Y-27956250D01*
X17246609Y-27789092D01*
X17197851Y-27628358D01*
X17118672Y-27480225D01*
X17100901Y-27458570D01*
X17155538Y-27391994D01*
X17189146Y-27329117D01*
X17765000Y-27329117D01*
X17765000Y-27670883D01*
X17831675Y-28006081D01*
X17962463Y-28321831D01*
X18152337Y-28605998D01*
X18394002Y-28847663D01*
X18678169Y-29037537D01*
X18993919Y-29168325D01*
X19329117Y-29235000D01*
X19670883Y-29235000D01*
X20006081Y-29168325D01*
X20321831Y-29037537D01*
X20605998Y-28847663D01*
X20847663Y-28605998D01*
X21037537Y-28321831D01*
X21168325Y-28006081D01*
X21235000Y-27670883D01*
X21235000Y-27329117D01*
X21168325Y-26993919D01*
X21037537Y-26678169D01*
X20847663Y-26394002D01*
X20605998Y-26152337D01*
X20321831Y-25962463D01*
X20006081Y-25831675D01*
X19670883Y-25765000D01*
X19329117Y-25765000D01*
X18993919Y-25831675D01*
X18678169Y-25962463D01*
X18394002Y-26152337D01*
X18152337Y-26394002D01*
X17962463Y-26678169D01*
X17831675Y-26993919D01*
X17765000Y-27329117D01*
X17189146Y-27329117D01*
X17214503Y-27281680D01*
X17250813Y-27161982D01*
X17263073Y-27037500D01*
X17260001Y-26885750D01*
X17101251Y-26727000D01*
X16277001Y-26727000D01*
X16277001Y-26747000D01*
X16023001Y-26747000D01*
X16023001Y-26727000D01*
X16003001Y-26727000D01*
X16003001Y-26548075D01*
X16090313Y-26521589D01*
X16218635Y-26453000D01*
X16277001Y-26453000D01*
X16277001Y-26473000D01*
X17101251Y-26473000D01*
X17260001Y-26314250D01*
X17263073Y-26162500D01*
X17250813Y-26038018D01*
X17214503Y-25918320D01*
X17155538Y-25808006D01*
X17076186Y-25711315D01*
X17028993Y-25672585D01*
X17966579Y-24735000D01*
X18965375Y-24735000D01*
X18974188Y-24824482D01*
G37*
X18974188Y-24824482D02*
X19010498Y-24944180D01*
X19069463Y-25054494D01*
X19148815Y-25151185D01*
X19245506Y-25230537D01*
X19355820Y-25289502D01*
X19475518Y-25325812D01*
X19600000Y-25338072D01*
X21300000Y-25338072D01*
X21340001Y-25334132D01*
X21340001Y-27467711D01*
X21301853Y-27856776D01*
X21198238Y-28199964D01*
X21029939Y-28516489D01*
X20803365Y-28794296D01*
X20527146Y-29022805D01*
X20211803Y-29193310D01*
X19869344Y-29299319D01*
X19482288Y-29340000D01*
X14861579Y-29340000D01*
X14938507Y-29263072D01*
X15000000Y-29263072D01*
X15124482Y-29250812D01*
X15176607Y-29235000D01*
X15735649Y-29235000D01*
X15893751Y-29250572D01*
X16406251Y-29250572D01*
X16573409Y-29234108D01*
X16734143Y-29185350D01*
X16882276Y-29106171D01*
X17012116Y-28999615D01*
X17118672Y-28869775D01*
X17197851Y-28721642D01*
X17246609Y-28560908D01*
X17263073Y-28393750D01*
X17263073Y-27956250D01*
X17246609Y-27789092D01*
X17197851Y-27628358D01*
X17118672Y-27480225D01*
X17100901Y-27458570D01*
X17155538Y-27391994D01*
X17189146Y-27329117D01*
X17765000Y-27329117D01*
X17765000Y-27670883D01*
X17831675Y-28006081D01*
X17962463Y-28321831D01*
X18152337Y-28605998D01*
X18394002Y-28847663D01*
X18678169Y-29037537D01*
X18993919Y-29168325D01*
X19329117Y-29235000D01*
X19670883Y-29235000D01*
X20006081Y-29168325D01*
X20321831Y-29037537D01*
X20605998Y-28847663D01*
X20847663Y-28605998D01*
X21037537Y-28321831D01*
X21168325Y-28006081D01*
X21235000Y-27670883D01*
X21235000Y-27329117D01*
X21168325Y-26993919D01*
X21037537Y-26678169D01*
X20847663Y-26394002D01*
X20605998Y-26152337D01*
X20321831Y-25962463D01*
X20006081Y-25831675D01*
X19670883Y-25765000D01*
X19329117Y-25765000D01*
X18993919Y-25831675D01*
X18678169Y-25962463D01*
X18394002Y-26152337D01*
X18152337Y-26394002D01*
X17962463Y-26678169D01*
X17831675Y-26993919D01*
X17765000Y-27329117D01*
X17189146Y-27329117D01*
X17214503Y-27281680D01*
X17250813Y-27161982D01*
X17263073Y-27037500D01*
X17260001Y-26885750D01*
X17101251Y-26727000D01*
X16277001Y-26727000D01*
X16277001Y-26747000D01*
X16023001Y-26747000D01*
X16023001Y-26727000D01*
X16003001Y-26727000D01*
X16003001Y-26548075D01*
X16090313Y-26521589D01*
X16218635Y-26453000D01*
X16277001Y-26453000D01*
X16277001Y-26473000D01*
X17101251Y-26473000D01*
X17260001Y-26314250D01*
X17263073Y-26162500D01*
X17250813Y-26038018D01*
X17214503Y-25918320D01*
X17155538Y-25808006D01*
X17076186Y-25711315D01*
X17028993Y-25672585D01*
X17966579Y-24735000D01*
X18965375Y-24735000D01*
X18974188Y-24824482D01*
G36*
X12865000Y-27496627D02*
G01*
X12844180Y-27485498D01*
X12724482Y-27449188D01*
X12600000Y-27436928D01*
X11800000Y-27436928D01*
X11675518Y-27449188D01*
X11652991Y-27456021D01*
X11705537Y-27391994D01*
X11724947Y-27355680D01*
X11800000Y-27363072D01*
X12600000Y-27363072D01*
X12724482Y-27350812D01*
X12844180Y-27314502D01*
X12865001Y-27303373D01*
X12865000Y-27496627D01*
G37*
X12865000Y-27496627D02*
X12844180Y-27485498D01*
X12724482Y-27449188D01*
X12600000Y-27436928D01*
X11800000Y-27436928D01*
X11675518Y-27449188D01*
X11652991Y-27456021D01*
X11705537Y-27391994D01*
X11724947Y-27355680D01*
X11800000Y-27363072D01*
X12600000Y-27363072D01*
X12724482Y-27350812D01*
X12844180Y-27314502D01*
X12865001Y-27303373D01*
X12865000Y-27496627D01*
G36*
X14747000Y-27436928D02*
G01*
X14635000Y-27436928D01*
X14635000Y-27363072D01*
X14747000Y-27363072D01*
X14747000Y-27436928D01*
G37*
X14747000Y-27436928D02*
X14635000Y-27436928D01*
X14635000Y-27363072D01*
X14747000Y-27363072D01*
X14747000Y-27436928D01*
G36*
X10827000Y-26473000D02*
G01*
X10847000Y-26473000D01*
X10847000Y-26727000D01*
X10827000Y-26727000D01*
X10827000Y-26747000D01*
X10573000Y-26747000D01*
X10573000Y-26727000D01*
X10553000Y-26727000D01*
X10553000Y-26473000D01*
X10573000Y-26473000D01*
X10573000Y-26453000D01*
X10827000Y-26453000D01*
X10827000Y-26473000D01*
G37*
X10827000Y-26473000D02*
X10847000Y-26473000D01*
X10847000Y-26727000D01*
X10827000Y-26727000D01*
X10827000Y-26747000D01*
X10573000Y-26747000D01*
X10573000Y-26727000D01*
X10553000Y-26727000D01*
X10553000Y-26473000D01*
X10573000Y-26473000D01*
X10573000Y-26453000D01*
X10827000Y-26453000D01*
X10827000Y-26473000D01*
G36*
X18327000Y-21298000D02*
G01*
X18347000Y-21298000D01*
X18347000Y-21552000D01*
X18327000Y-21552000D01*
X18327000Y-22338750D01*
X18485750Y-22497500D01*
X18675000Y-22500572D01*
X18799482Y-22488312D01*
X18919180Y-22452002D01*
X19029494Y-22393037D01*
X19126185Y-22313685D01*
X19205537Y-22216994D01*
X19234204Y-22163362D01*
X19296525Y-22256632D01*
X19428380Y-22388487D01*
X19355820Y-22410498D01*
X19245506Y-22469463D01*
X19148815Y-22548815D01*
X19069463Y-22645506D01*
X19010498Y-22755820D01*
X18974188Y-22875518D01*
X18965375Y-22965000D01*
X17643465Y-22965000D01*
X17599999Y-22960719D01*
X17556533Y-22965000D01*
X17556523Y-22965000D01*
X17461574Y-22974352D01*
X17488753Y-22933676D01*
X17585619Y-22699821D01*
X17627168Y-22490937D01*
X17725000Y-22500572D01*
X17914250Y-22497500D01*
X18073000Y-22338750D01*
X18073000Y-21552000D01*
X18053000Y-21552000D01*
X18053000Y-21298000D01*
X18073000Y-21298000D01*
X18073000Y-21278000D01*
X18327000Y-21278000D01*
X18327000Y-21298000D01*
G37*
X18327000Y-21298000D02*
X18347000Y-21298000D01*
X18347000Y-21552000D01*
X18327000Y-21552000D01*
X18327000Y-22338750D01*
X18485750Y-22497500D01*
X18675000Y-22500572D01*
X18799482Y-22488312D01*
X18919180Y-22452002D01*
X19029494Y-22393037D01*
X19126185Y-22313685D01*
X19205537Y-22216994D01*
X19234204Y-22163362D01*
X19296525Y-22256632D01*
X19428380Y-22388487D01*
X19355820Y-22410498D01*
X19245506Y-22469463D01*
X19148815Y-22548815D01*
X19069463Y-22645506D01*
X19010498Y-22755820D01*
X18974188Y-22875518D01*
X18965375Y-22965000D01*
X17643465Y-22965000D01*
X17599999Y-22960719D01*
X17556533Y-22965000D01*
X17556523Y-22965000D01*
X17461574Y-22974352D01*
X17488753Y-22933676D01*
X17585619Y-22699821D01*
X17627168Y-22490937D01*
X17725000Y-22500572D01*
X17914250Y-22497500D01*
X18073000Y-22338750D01*
X18073000Y-21552000D01*
X18053000Y-21552000D01*
X18053000Y-21298000D01*
X18073000Y-21298000D01*
X18073000Y-21278000D01*
X18327000Y-21278000D01*
X18327000Y-21298000D01*
G36*
X19503368Y-19923475D02*
G01*
X19677760Y-20040000D01*
X19503368Y-20156525D01*
X19296525Y-20363368D01*
X19156381Y-20573109D01*
X19150900Y-20566430D01*
X19168671Y-20544775D01*
X19247850Y-20396642D01*
X19296608Y-20235908D01*
X19313072Y-20068750D01*
X19313072Y-19733179D01*
X19503368Y-19923475D01*
G37*
X19503368Y-19923475D02*
X19677760Y-20040000D01*
X19503368Y-20156525D01*
X19296525Y-20363368D01*
X19156381Y-20573109D01*
X19150900Y-20566430D01*
X19168671Y-20544775D01*
X19247850Y-20396642D01*
X19296608Y-20235908D01*
X19313072Y-20068750D01*
X19313072Y-19733179D01*
X19503368Y-19923475D01*
G36*
X1410498Y-18119180D02*
G01*
X1469463Y-18229494D01*
X1548815Y-18326185D01*
X1645506Y-18405537D01*
X1755820Y-18464502D01*
X1872841Y-18500000D01*
X1755820Y-18535498D01*
X1700627Y-18565000D01*
X1385000Y-18565000D01*
X1385000Y-18035124D01*
X1410498Y-18119180D01*
G37*
X1410498Y-18119180D02*
X1469463Y-18229494D01*
X1548815Y-18326185D01*
X1645506Y-18405537D01*
X1755820Y-18464502D01*
X1872841Y-18500000D01*
X1755820Y-18535498D01*
X1700627Y-18565000D01*
X1385000Y-18565000D01*
X1385000Y-18035124D01*
X1410498Y-18119180D01*
G36*
X19296525Y-17176632D02*
G01*
X19503368Y-17383475D01*
X19677760Y-17500000D01*
X19503368Y-17616525D01*
X19313072Y-17806821D01*
X19313072Y-17481250D01*
X19296608Y-17314092D01*
X19247850Y-17153358D01*
X19168671Y-17005225D01*
X19150900Y-16983570D01*
X19160064Y-16972403D01*
X19296525Y-17176632D01*
G37*
X19296525Y-17176632D02*
X19503368Y-17383475D01*
X19677760Y-17500000D01*
X19503368Y-17616525D01*
X19313072Y-17806821D01*
X19313072Y-17481250D01*
X19296608Y-17314092D01*
X19247850Y-17153358D01*
X19168671Y-17005225D01*
X19150900Y-16983570D01*
X19160064Y-16972403D01*
X19296525Y-17176632D01*
G36*
X19022068Y-14123158D02*
G01*
X19134010Y-14393411D01*
X19296525Y-14636632D01*
X19503368Y-14843475D01*
X19677760Y-14960000D01*
X19503368Y-15076525D01*
X19296525Y-15283368D01*
X19231235Y-15381082D01*
X19205537Y-15333006D01*
X19126185Y-15236315D01*
X19029494Y-15156963D01*
X18919180Y-15097998D01*
X18799482Y-15061688D01*
X18675000Y-15049428D01*
X18485750Y-15052500D01*
X18327000Y-15211250D01*
X18327000Y-15998000D01*
X18347000Y-15998000D01*
X18347000Y-16252000D01*
X18327000Y-16252000D01*
X18327000Y-16272000D01*
X18073000Y-16272000D01*
X18073000Y-16252000D01*
X18053000Y-16252000D01*
X18053000Y-15998000D01*
X18073000Y-15998000D01*
X18073000Y-15211250D01*
X18031664Y-15169914D01*
X18795050Y-14406529D01*
X18828817Y-14378817D01*
X18866579Y-14332805D01*
X18939411Y-14244059D01*
X18981126Y-14166014D01*
X19017177Y-14098568D01*
X19022068Y-14123158D01*
G37*
X19022068Y-14123158D02*
X19134010Y-14393411D01*
X19296525Y-14636632D01*
X19503368Y-14843475D01*
X19677760Y-14960000D01*
X19503368Y-15076525D01*
X19296525Y-15283368D01*
X19231235Y-15381082D01*
X19205537Y-15333006D01*
X19126185Y-15236315D01*
X19029494Y-15156963D01*
X18919180Y-15097998D01*
X18799482Y-15061688D01*
X18675000Y-15049428D01*
X18485750Y-15052500D01*
X18327000Y-15211250D01*
X18327000Y-15998000D01*
X18347000Y-15998000D01*
X18347000Y-16252000D01*
X18327000Y-16252000D01*
X18327000Y-16272000D01*
X18073000Y-16272000D01*
X18073000Y-16252000D01*
X18053000Y-16252000D01*
X18053000Y-15998000D01*
X18073000Y-15998000D01*
X18073000Y-15211250D01*
X18031664Y-15169914D01*
X18795050Y-14406529D01*
X18828817Y-14378817D01*
X18866579Y-14332805D01*
X18939411Y-14244059D01*
X18981126Y-14166014D01*
X19017177Y-14098568D01*
X19022068Y-14123158D01*
G36*
X1777000Y-14748000D02*
G01*
X1797000Y-14748000D01*
X1797000Y-15002000D01*
X1777000Y-15002000D01*
X1777000Y-15022000D01*
X1523000Y-15022000D01*
X1523000Y-15002000D01*
X1503000Y-15002000D01*
X1503000Y-14748000D01*
X1523000Y-14748000D01*
X1523000Y-14728000D01*
X1777000Y-14728000D01*
X1777000Y-14748000D01*
G37*
X1777000Y-14748000D02*
X1797000Y-14748000D01*
X1797000Y-15002000D01*
X1777000Y-15002000D01*
X1777000Y-15022000D01*
X1523000Y-15022000D01*
X1523000Y-15002000D01*
X1503000Y-15002000D01*
X1503000Y-14748000D01*
X1523000Y-14748000D01*
X1523000Y-14728000D01*
X1777000Y-14728000D01*
X1777000Y-14748000D01*
G36*
X18965000Y-8737002D02*
G01*
X19129844Y-8737002D01*
X19008524Y-8966890D01*
X19053175Y-9114099D01*
X19178359Y-9376920D01*
X19352412Y-9610269D01*
X19568645Y-9805178D01*
X19685534Y-9874805D01*
X19503368Y-9996525D01*
X19296525Y-10203368D01*
X19134010Y-10446589D01*
X19081322Y-10573789D01*
X19062115Y-10550385D01*
X18960000Y-10466582D01*
X18960000Y-8634801D01*
X18965000Y-8629801D01*
X18965000Y-8737002D01*
G37*
X18965000Y-8737002D02*
X19129844Y-8737002D01*
X19008524Y-8966890D01*
X19053175Y-9114099D01*
X19178359Y-9376920D01*
X19352412Y-9610269D01*
X19568645Y-9805178D01*
X19685534Y-9874805D01*
X19503368Y-9996525D01*
X19296525Y-10203368D01*
X19134010Y-10446589D01*
X19081322Y-10573789D01*
X19062115Y-10550385D01*
X18960000Y-10466582D01*
X18960000Y-8634801D01*
X18965000Y-8629801D01*
X18965000Y-8737002D01*
G36*
X4365000Y-8848439D02*
G01*
X4365000Y-9101561D01*
X4414381Y-9349821D01*
X4511247Y-9583676D01*
X4651875Y-9794140D01*
X4722735Y-9865000D01*
X4651875Y-9935860D01*
X4511247Y-10146324D01*
X4414381Y-10380179D01*
X4387536Y-10515141D01*
X4386105Y-10515000D01*
X4350000Y-10511444D01*
X4313895Y-10515000D01*
X3885000Y-10515000D01*
X3885000Y-10472998D01*
X3853252Y-10472998D01*
X3885000Y-10441250D01*
X3869190Y-10345922D01*
X3827233Y-10228085D01*
X3763094Y-10120697D01*
X3688072Y-10037665D01*
X3688072Y-9851374D01*
X3781731Y-9757715D01*
X3824276Y-9734974D01*
X3911002Y-9663799D01*
X4010998Y-9563803D01*
X4040001Y-9540001D01*
X4134974Y-9424276D01*
X4205546Y-9292247D01*
X4249003Y-9148986D01*
X4260000Y-9037333D01*
X4260000Y-9037323D01*
X4263676Y-9000001D01*
X4260000Y-8962678D01*
X4260000Y-8764801D01*
X4411838Y-8612963D01*
X4365000Y-8848439D01*
G37*
X4365000Y-8848439D02*
X4365000Y-9101561D01*
X4414381Y-9349821D01*
X4511247Y-9583676D01*
X4651875Y-9794140D01*
X4722735Y-9865000D01*
X4651875Y-9935860D01*
X4511247Y-10146324D01*
X4414381Y-10380179D01*
X4387536Y-10515141D01*
X4386105Y-10515000D01*
X4350000Y-10511444D01*
X4313895Y-10515000D01*
X3885000Y-10515000D01*
X3885000Y-10472998D01*
X3853252Y-10472998D01*
X3885000Y-10441250D01*
X3869190Y-10345922D01*
X3827233Y-10228085D01*
X3763094Y-10120697D01*
X3688072Y-10037665D01*
X3688072Y-9851374D01*
X3781731Y-9757715D01*
X3824276Y-9734974D01*
X3911002Y-9663799D01*
X4010998Y-9563803D01*
X4040001Y-9540001D01*
X4134974Y-9424276D01*
X4205546Y-9292247D01*
X4249003Y-9148986D01*
X4260000Y-9037333D01*
X4260000Y-9037323D01*
X4263676Y-9000001D01*
X4260000Y-8962678D01*
X4260000Y-8764801D01*
X4411838Y-8612963D01*
X4365000Y-8848439D01*
G36*
X19856775Y-698147D02*
G01*
X20199967Y-801763D01*
X20516489Y-970062D01*
X20794299Y-1196637D01*
X21022806Y-1472856D01*
X21193310Y-1788197D01*
X21299319Y-2130656D01*
X21340000Y-2517712D01*
X21340000Y-4878685D01*
X21153411Y-4754010D01*
X20883158Y-4642068D01*
X20596260Y-4585000D01*
X20303740Y-4585000D01*
X20016842Y-4642068D01*
X19746589Y-4754010D01*
X19503368Y-4916525D01*
X19296525Y-5123368D01*
X19134010Y-5366589D01*
X19022068Y-5636842D01*
X18965000Y-5923740D01*
X18965000Y-6216260D01*
X19008790Y-6436408D01*
X17688998Y-7756201D01*
X17660000Y-7779999D01*
X17636202Y-7808997D01*
X17636201Y-7808998D01*
X17565026Y-7895724D01*
X17494454Y-8027754D01*
X17470749Y-8105901D01*
X17450998Y-8171014D01*
X17443120Y-8250998D01*
X17436324Y-8320000D01*
X17440001Y-8357332D01*
X17440001Y-9206816D01*
X17235527Y-9159078D01*
X16529605Y-9865000D01*
X16543748Y-9879143D01*
X16364143Y-10058748D01*
X16350000Y-10044605D01*
X16335858Y-10058748D01*
X16156253Y-9879143D01*
X16170395Y-9865000D01*
X16156253Y-9850858D01*
X16335858Y-9671253D01*
X16350000Y-9685395D01*
X17055922Y-8979473D01*
X17002534Y-8750799D01*
X16772626Y-8644905D01*
X16526476Y-8585898D01*
X16273545Y-8576048D01*
X16110000Y-8602008D01*
X16110000Y-7682419D01*
X16113193Y-7650000D01*
X16100450Y-7520617D01*
X16062710Y-7396207D01*
X16001425Y-7281550D01*
X15918948Y-7181052D01*
X15818450Y-7098575D01*
X15703793Y-7037290D01*
X15579383Y-6999550D01*
X15450000Y-6986807D01*
X15417581Y-6990000D01*
X6582419Y-6990000D01*
X6550000Y-6986807D01*
X6420617Y-6999550D01*
X6296207Y-7037290D01*
X6181550Y-7098575D01*
X6081052Y-7181052D01*
X5998575Y-7281550D01*
X5937290Y-7396207D01*
X5899550Y-7520617D01*
X5886807Y-7650000D01*
X5890000Y-7682419D01*
X5890000Y-7712564D01*
X5776561Y-7690000D01*
X5523439Y-7690000D01*
X5287963Y-7736838D01*
X6964802Y-6060000D01*
X9062678Y-6060000D01*
X9100000Y-6063676D01*
X9137322Y-6060000D01*
X9137333Y-6060000D01*
X9248986Y-6049003D01*
X9392247Y-6005546D01*
X9524276Y-5934974D01*
X9640001Y-5840001D01*
X9663803Y-5810998D01*
X9899253Y-5575549D01*
X9962697Y-5569300D01*
X10167220Y-5507259D01*
X10355710Y-5406509D01*
X10375001Y-5390678D01*
X10394291Y-5406509D01*
X10582781Y-5507259D01*
X10787304Y-5569300D01*
X11000000Y-5590249D01*
X11212697Y-5569300D01*
X11417220Y-5507259D01*
X11605710Y-5406509D01*
X11625001Y-5390678D01*
X11644291Y-5406509D01*
X11832781Y-5507259D01*
X12037304Y-5569300D01*
X12250000Y-5590249D01*
X12462697Y-5569300D01*
X12667220Y-5507259D01*
X12855710Y-5406509D01*
X12875001Y-5390678D01*
X12894291Y-5406509D01*
X13082781Y-5507259D01*
X13287304Y-5569300D01*
X13500000Y-5590249D01*
X13712697Y-5569300D01*
X13917220Y-5507259D01*
X14105710Y-5406509D01*
X14120066Y-5394727D01*
X14181051Y-5440351D01*
X14375437Y-5533279D01*
X14455999Y-5544408D01*
X14623000Y-5417502D01*
X14623000Y-4377000D01*
X14877000Y-4377000D01*
X14877000Y-5417502D01*
X15044001Y-5544408D01*
X15124563Y-5533279D01*
X15318949Y-5440351D01*
X15491470Y-5311286D01*
X15635497Y-5151044D01*
X15745495Y-4965782D01*
X15817236Y-4762621D01*
X15847964Y-4549367D01*
X15683419Y-4377000D01*
X14877000Y-4377000D01*
X14623000Y-4377000D01*
X14603000Y-4377000D01*
X14603000Y-4123000D01*
X14623000Y-4123000D01*
X14623000Y-3082498D01*
X14877000Y-3082498D01*
X14877000Y-4123000D01*
X15683419Y-4123000D01*
X15847964Y-3950633D01*
X15817236Y-3737379D01*
X15745495Y-3534218D01*
X15635497Y-3348956D01*
X15491470Y-3188714D01*
X15318949Y-3059649D01*
X15124563Y-2966721D01*
X15044001Y-2955592D01*
X14877000Y-3082498D01*
X14623000Y-3082498D01*
X14455999Y-2955592D01*
X14375437Y-2966721D01*
X14181051Y-3059649D01*
X14120066Y-3105273D01*
X14114320Y-3100557D01*
X14040001Y-3009999D01*
X14011004Y-2986202D01*
X13378919Y-2354117D01*
X17765000Y-2354117D01*
X17765000Y-2695883D01*
X17831675Y-3031081D01*
X17962463Y-3346831D01*
X18152337Y-3630998D01*
X18394002Y-3872663D01*
X18678169Y-4062537D01*
X18993919Y-4193325D01*
X19329117Y-4260000D01*
X19670883Y-4260000D01*
X20006081Y-4193325D01*
X20321831Y-4062537D01*
X20605998Y-3872663D01*
X20847663Y-3630998D01*
X21037537Y-3346831D01*
X21168325Y-3031081D01*
X21235000Y-2695883D01*
X21235000Y-2354117D01*
X21168325Y-2018919D01*
X21037537Y-1703169D01*
X20847663Y-1419002D01*
X20605998Y-1177337D01*
X20321831Y-987463D01*
X20006081Y-856675D01*
X19670883Y-790000D01*
X19329117Y-790000D01*
X18993919Y-856675D01*
X18678169Y-987463D01*
X18394002Y-1177337D01*
X18152337Y-1419002D01*
X17962463Y-1703169D01*
X17831675Y-2018919D01*
X17765000Y-2354117D01*
X13378919Y-2354117D01*
X12463804Y-1439003D01*
X12440001Y-1409999D01*
X12324276Y-1315026D01*
X12192247Y-1244454D01*
X12048986Y-1200997D01*
X11937333Y-1190000D01*
X11937322Y-1190000D01*
X11900000Y-1186324D01*
X11862678Y-1190000D01*
X6787325Y-1190000D01*
X6750000Y-1186324D01*
X6712675Y-1190000D01*
X6712667Y-1190000D01*
X6601014Y-1200997D01*
X6457753Y-1244454D01*
X6325724Y-1315026D01*
X6209999Y-1409999D01*
X6186201Y-1438997D01*
X4938998Y-2686201D01*
X4910000Y-2709999D01*
X4886202Y-2738997D01*
X4886201Y-2738998D01*
X4815026Y-2825724D01*
X4744454Y-2957754D01*
X4716170Y-3050997D01*
X4700998Y-3101014D01*
X4695544Y-3156385D01*
X4686324Y-3250000D01*
X4690001Y-3287332D01*
X4690000Y-4185198D01*
X3528518Y-5346680D01*
X3481612Y-5276480D01*
X3323520Y-5118388D01*
X3137624Y-4994176D01*
X2931067Y-4908617D01*
X2711788Y-4865000D01*
X2488212Y-4865000D01*
X2268933Y-4908617D01*
X2062376Y-4994176D01*
X1894597Y-5106282D01*
X1825000Y-5099428D01*
X1635750Y-5102500D01*
X1477000Y-5261250D01*
X1477000Y-5827884D01*
X1465000Y-5888212D01*
X1465000Y-6111788D01*
X1497000Y-6272665D01*
X1497000Y-6302000D01*
X1477000Y-6302000D01*
X1477000Y-6322000D01*
X1223000Y-6322000D01*
X1223000Y-6302000D01*
X1203000Y-6302000D01*
X1203000Y-6048000D01*
X1223000Y-6048000D01*
X1223000Y-5261250D01*
X1064250Y-5102500D01*
X875000Y-5099428D01*
X750518Y-5111688D01*
X660000Y-5139146D01*
X660000Y-2532279D01*
X679920Y-2329117D01*
X765000Y-2329117D01*
X765000Y-2670883D01*
X831675Y-3006081D01*
X962463Y-3321831D01*
X1152337Y-3605998D01*
X1394002Y-3847663D01*
X1678169Y-4037537D01*
X1993919Y-4168325D01*
X2329117Y-4235000D01*
X2670883Y-4235000D01*
X3006081Y-4168325D01*
X3321831Y-4037537D01*
X3605998Y-3847663D01*
X3847663Y-3605998D01*
X4037537Y-3321831D01*
X4168325Y-3006081D01*
X4235000Y-2670883D01*
X4235000Y-2329117D01*
X4168325Y-1993919D01*
X4037537Y-1678169D01*
X3847663Y-1394002D01*
X3605998Y-1152337D01*
X3321831Y-962463D01*
X3006081Y-831675D01*
X2670883Y-765000D01*
X2329117Y-765000D01*
X1993919Y-831675D01*
X1678169Y-962463D01*
X1394002Y-1152337D01*
X1152337Y-1394002D01*
X962463Y-1678169D01*
X831675Y-1993919D01*
X765000Y-2329117D01*
X679920Y-2329117D01*
X698147Y-2143225D01*
X801763Y-1800033D01*
X970062Y-1483511D01*
X1196637Y-1205701D01*
X1472856Y-977194D01*
X1788197Y-806690D01*
X2130656Y-700681D01*
X2517712Y-660000D01*
X19467721Y-660000D01*
X19856775Y-698147D01*
G37*
X19856775Y-698147D02*
X20199967Y-801763D01*
X20516489Y-970062D01*
X20794299Y-1196637D01*
X21022806Y-1472856D01*
X21193310Y-1788197D01*
X21299319Y-2130656D01*
X21340000Y-2517712D01*
X21340000Y-4878685D01*
X21153411Y-4754010D01*
X20883158Y-4642068D01*
X20596260Y-4585000D01*
X20303740Y-4585000D01*
X20016842Y-4642068D01*
X19746589Y-4754010D01*
X19503368Y-4916525D01*
X19296525Y-5123368D01*
X19134010Y-5366589D01*
X19022068Y-5636842D01*
X18965000Y-5923740D01*
X18965000Y-6216260D01*
X19008790Y-6436408D01*
X17688998Y-7756201D01*
X17660000Y-7779999D01*
X17636202Y-7808997D01*
X17636201Y-7808998D01*
X17565026Y-7895724D01*
X17494454Y-8027754D01*
X17470749Y-8105901D01*
X17450998Y-8171014D01*
X17443120Y-8250998D01*
X17436324Y-8320000D01*
X17440001Y-8357332D01*
X17440001Y-9206816D01*
X17235527Y-9159078D01*
X16529605Y-9865000D01*
X16543748Y-9879143D01*
X16364143Y-10058748D01*
X16350000Y-10044605D01*
X16335858Y-10058748D01*
X16156253Y-9879143D01*
X16170395Y-9865000D01*
X16156253Y-9850858D01*
X16335858Y-9671253D01*
X16350000Y-9685395D01*
X17055922Y-8979473D01*
X17002534Y-8750799D01*
X16772626Y-8644905D01*
X16526476Y-8585898D01*
X16273545Y-8576048D01*
X16110000Y-8602008D01*
X16110000Y-7682419D01*
X16113193Y-7650000D01*
X16100450Y-7520617D01*
X16062710Y-7396207D01*
X16001425Y-7281550D01*
X15918948Y-7181052D01*
X15818450Y-7098575D01*
X15703793Y-7037290D01*
X15579383Y-6999550D01*
X15450000Y-6986807D01*
X15417581Y-6990000D01*
X6582419Y-6990000D01*
X6550000Y-6986807D01*
X6420617Y-6999550D01*
X6296207Y-7037290D01*
X6181550Y-7098575D01*
X6081052Y-7181052D01*
X5998575Y-7281550D01*
X5937290Y-7396207D01*
X5899550Y-7520617D01*
X5886807Y-7650000D01*
X5890000Y-7682419D01*
X5890000Y-7712564D01*
X5776561Y-7690000D01*
X5523439Y-7690000D01*
X5287963Y-7736838D01*
X6964802Y-6060000D01*
X9062678Y-6060000D01*
X9100000Y-6063676D01*
X9137322Y-6060000D01*
X9137333Y-6060000D01*
X9248986Y-6049003D01*
X9392247Y-6005546D01*
X9524276Y-5934974D01*
X9640001Y-5840001D01*
X9663803Y-5810998D01*
X9899253Y-5575549D01*
X9962697Y-5569300D01*
X10167220Y-5507259D01*
X10355710Y-5406509D01*
X10375001Y-5390678D01*
X10394291Y-5406509D01*
X10582781Y-5507259D01*
X10787304Y-5569300D01*
X11000000Y-5590249D01*
X11212697Y-5569300D01*
X11417220Y-5507259D01*
X11605710Y-5406509D01*
X11625001Y-5390678D01*
X11644291Y-5406509D01*
X11832781Y-5507259D01*
X12037304Y-5569300D01*
X12250000Y-5590249D01*
X12462697Y-5569300D01*
X12667220Y-5507259D01*
X12855710Y-5406509D01*
X12875001Y-5390678D01*
X12894291Y-5406509D01*
X13082781Y-5507259D01*
X13287304Y-5569300D01*
X13500000Y-5590249D01*
X13712697Y-5569300D01*
X13917220Y-5507259D01*
X14105710Y-5406509D01*
X14120066Y-5394727D01*
X14181051Y-5440351D01*
X14375437Y-5533279D01*
X14455999Y-5544408D01*
X14623000Y-5417502D01*
X14623000Y-4377000D01*
X14877000Y-4377000D01*
X14877000Y-5417502D01*
X15044001Y-5544408D01*
X15124563Y-5533279D01*
X15318949Y-5440351D01*
X15491470Y-5311286D01*
X15635497Y-5151044D01*
X15745495Y-4965782D01*
X15817236Y-4762621D01*
X15847964Y-4549367D01*
X15683419Y-4377000D01*
X14877000Y-4377000D01*
X14623000Y-4377000D01*
X14603000Y-4377000D01*
X14603000Y-4123000D01*
X14623000Y-4123000D01*
X14623000Y-3082498D01*
X14877000Y-3082498D01*
X14877000Y-4123000D01*
X15683419Y-4123000D01*
X15847964Y-3950633D01*
X15817236Y-3737379D01*
X15745495Y-3534218D01*
X15635497Y-3348956D01*
X15491470Y-3188714D01*
X15318949Y-3059649D01*
X15124563Y-2966721D01*
X15044001Y-2955592D01*
X14877000Y-3082498D01*
X14623000Y-3082498D01*
X14455999Y-2955592D01*
X14375437Y-2966721D01*
X14181051Y-3059649D01*
X14120066Y-3105273D01*
X14114320Y-3100557D01*
X14040001Y-3009999D01*
X14011004Y-2986202D01*
X13378919Y-2354117D01*
X17765000Y-2354117D01*
X17765000Y-2695883D01*
X17831675Y-3031081D01*
X17962463Y-3346831D01*
X18152337Y-3630998D01*
X18394002Y-3872663D01*
X18678169Y-4062537D01*
X18993919Y-4193325D01*
X19329117Y-4260000D01*
X19670883Y-4260000D01*
X20006081Y-4193325D01*
X20321831Y-4062537D01*
X20605998Y-3872663D01*
X20847663Y-3630998D01*
X21037537Y-3346831D01*
X21168325Y-3031081D01*
X21235000Y-2695883D01*
X21235000Y-2354117D01*
X21168325Y-2018919D01*
X21037537Y-1703169D01*
X20847663Y-1419002D01*
X20605998Y-1177337D01*
X20321831Y-987463D01*
X20006081Y-856675D01*
X19670883Y-790000D01*
X19329117Y-790000D01*
X18993919Y-856675D01*
X18678169Y-987463D01*
X18394002Y-1177337D01*
X18152337Y-1419002D01*
X17962463Y-1703169D01*
X17831675Y-2018919D01*
X17765000Y-2354117D01*
X13378919Y-2354117D01*
X12463804Y-1439003D01*
X12440001Y-1409999D01*
X12324276Y-1315026D01*
X12192247Y-1244454D01*
X12048986Y-1200997D01*
X11937333Y-1190000D01*
X11937322Y-1190000D01*
X11900000Y-1186324D01*
X11862678Y-1190000D01*
X6787325Y-1190000D01*
X6750000Y-1186324D01*
X6712675Y-1190000D01*
X6712667Y-1190000D01*
X6601014Y-1200997D01*
X6457753Y-1244454D01*
X6325724Y-1315026D01*
X6209999Y-1409999D01*
X6186201Y-1438997D01*
X4938998Y-2686201D01*
X4910000Y-2709999D01*
X4886202Y-2738997D01*
X4886201Y-2738998D01*
X4815026Y-2825724D01*
X4744454Y-2957754D01*
X4716170Y-3050997D01*
X4700998Y-3101014D01*
X4695544Y-3156385D01*
X4686324Y-3250000D01*
X4690001Y-3287332D01*
X4690000Y-4185198D01*
X3528518Y-5346680D01*
X3481612Y-5276480D01*
X3323520Y-5118388D01*
X3137624Y-4994176D01*
X2931067Y-4908617D01*
X2711788Y-4865000D01*
X2488212Y-4865000D01*
X2268933Y-4908617D01*
X2062376Y-4994176D01*
X1894597Y-5106282D01*
X1825000Y-5099428D01*
X1635750Y-5102500D01*
X1477000Y-5261250D01*
X1477000Y-5827884D01*
X1465000Y-5888212D01*
X1465000Y-6111788D01*
X1497000Y-6272665D01*
X1497000Y-6302000D01*
X1477000Y-6302000D01*
X1477000Y-6322000D01*
X1223000Y-6322000D01*
X1223000Y-6302000D01*
X1203000Y-6302000D01*
X1203000Y-6048000D01*
X1223000Y-6048000D01*
X1223000Y-5261250D01*
X1064250Y-5102500D01*
X875000Y-5099428D01*
X750518Y-5111688D01*
X660000Y-5139146D01*
X660000Y-2532279D01*
X679920Y-2329117D01*
X765000Y-2329117D01*
X765000Y-2670883D01*
X831675Y-3006081D01*
X962463Y-3321831D01*
X1152337Y-3605998D01*
X1394002Y-3847663D01*
X1678169Y-4037537D01*
X1993919Y-4168325D01*
X2329117Y-4235000D01*
X2670883Y-4235000D01*
X3006081Y-4168325D01*
X3321831Y-4037537D01*
X3605998Y-3847663D01*
X3847663Y-3605998D01*
X4037537Y-3321831D01*
X4168325Y-3006081D01*
X4235000Y-2670883D01*
X4235000Y-2329117D01*
X4168325Y-1993919D01*
X4037537Y-1678169D01*
X3847663Y-1394002D01*
X3605998Y-1152337D01*
X3321831Y-962463D01*
X3006081Y-831675D01*
X2670883Y-765000D01*
X2329117Y-765000D01*
X1993919Y-831675D01*
X1678169Y-962463D01*
X1394002Y-1152337D01*
X1152337Y-1394002D01*
X962463Y-1678169D01*
X831675Y-1993919D01*
X765000Y-2329117D01*
X679920Y-2329117D01*
X698147Y-2143225D01*
X801763Y-1800033D01*
X970062Y-1483511D01*
X1196637Y-1205701D01*
X1472856Y-977194D01*
X1788197Y-806690D01*
X2130656Y-700681D01*
X2517712Y-660000D01*
X19467721Y-660000D01*
X19856775Y-698147D01*
G36*
X20577000Y-8483000D02*
G01*
X20597000Y-8483000D01*
X20597000Y-8737000D01*
X20577000Y-8737000D01*
X20577000Y-8757000D01*
X20323000Y-8757000D01*
X20323000Y-8737000D01*
X20303000Y-8737000D01*
X20303000Y-8483000D01*
X20323000Y-8483000D01*
X20323000Y-8463000D01*
X20577000Y-8463000D01*
X20577000Y-8483000D01*
G37*
X20577000Y-8483000D02*
X20597000Y-8483000D01*
X20597000Y-8737000D01*
X20577000Y-8737000D01*
X20577000Y-8757000D01*
X20323000Y-8757000D01*
X20323000Y-8737000D01*
X20303000Y-8737000D01*
X20303000Y-8483000D01*
X20323000Y-8483000D01*
X20323000Y-8463000D01*
X20577000Y-8463000D01*
X20577000Y-8483000D01*
M02*
