G04 #@! TF.GenerationSoftware,KiCad,Pcbnew,(5.1.5)-3*
G04 #@! TF.CreationDate,2021-07-20T23:34:01+09:00*
G04 #@! TF.ProjectId,pmw3360,706d7733-3336-4302-9e6b-696361645f70,rev?*
G04 #@! TF.SameCoordinates,PX5b136e0PY4bcb138*
G04 #@! TF.FileFunction,Soldermask,Bot*
G04 #@! TF.FilePolarity,Negative*
%FSLAX46Y46*%
G04 Gerber Fmt 4.6, Leading zero omitted, Abs format (unit mm)*
G04 Created by KiCad (PCBNEW (5.1.5)-3) date 2021-07-20 23:34:01*
%MOMM*%
%LPD*%
G04 APERTURE LIST*
%ADD10C,0.100000*%
G04 APERTURE END LIST*
D10*
G36*
X19724549Y-26371116D02*
G01*
X19835734Y-26393232D01*
X20045203Y-26479997D01*
X20233720Y-26605960D01*
X20394040Y-26766280D01*
X20520003Y-26954797D01*
X20606768Y-27164266D01*
X20651000Y-27386636D01*
X20651000Y-27613364D01*
X20606768Y-27835734D01*
X20520003Y-28045203D01*
X20394040Y-28233720D01*
X20233720Y-28394040D01*
X20045203Y-28520003D01*
X19835734Y-28606768D01*
X19724549Y-28628884D01*
X19613365Y-28651000D01*
X19386635Y-28651000D01*
X19275451Y-28628884D01*
X19164266Y-28606768D01*
X18954797Y-28520003D01*
X18766280Y-28394040D01*
X18605960Y-28233720D01*
X18479997Y-28045203D01*
X18393232Y-27835734D01*
X18349000Y-27613364D01*
X18349000Y-27386636D01*
X18393232Y-27164266D01*
X18479997Y-26954797D01*
X18605960Y-26766280D01*
X18766280Y-26605960D01*
X18954797Y-26479997D01*
X19164266Y-26393232D01*
X19275451Y-26371116D01*
X19386635Y-26349000D01*
X19613365Y-26349000D01*
X19724549Y-26371116D01*
G37*
G36*
X2724549Y-26371116D02*
G01*
X2835734Y-26393232D01*
X3045203Y-26479997D01*
X3233720Y-26605960D01*
X3394040Y-26766280D01*
X3520003Y-26954797D01*
X3606768Y-27164266D01*
X3651000Y-27386636D01*
X3651000Y-27613364D01*
X3606768Y-27835734D01*
X3520003Y-28045203D01*
X3394040Y-28233720D01*
X3233720Y-28394040D01*
X3045203Y-28520003D01*
X2835734Y-28606768D01*
X2724549Y-28628884D01*
X2613365Y-28651000D01*
X2386635Y-28651000D01*
X2275451Y-28628884D01*
X2164266Y-28606768D01*
X1954797Y-28520003D01*
X1766280Y-28394040D01*
X1605960Y-28233720D01*
X1479997Y-28045203D01*
X1393232Y-27835734D01*
X1349000Y-27613364D01*
X1349000Y-27386636D01*
X1393232Y-27164266D01*
X1479997Y-26954797D01*
X1605960Y-26766280D01*
X1766280Y-26605960D01*
X1954797Y-26479997D01*
X2164266Y-26393232D01*
X2275451Y-26371116D01*
X2386635Y-26349000D01*
X2613365Y-26349000D01*
X2724549Y-26371116D01*
G37*
G36*
X21351000Y-24751000D02*
G01*
X19549000Y-24751000D01*
X19549000Y-22949000D01*
X21351000Y-22949000D01*
X21351000Y-24751000D01*
G37*
G36*
X16554473Y-21650938D02*
G01*
X16682049Y-21703782D01*
X16796859Y-21780495D01*
X16894505Y-21878141D01*
X16971218Y-21992951D01*
X17024062Y-22120527D01*
X17051000Y-22255956D01*
X17051000Y-22394044D01*
X17024062Y-22529473D01*
X16971218Y-22657049D01*
X16894505Y-22771859D01*
X16796859Y-22869505D01*
X16682049Y-22946218D01*
X16554473Y-22999062D01*
X16419044Y-23026000D01*
X16280956Y-23026000D01*
X16145527Y-22999062D01*
X16017951Y-22946218D01*
X15903141Y-22869505D01*
X15805495Y-22771859D01*
X15728782Y-22657049D01*
X15675938Y-22529473D01*
X15649000Y-22394044D01*
X15649000Y-22255956D01*
X15675938Y-22120527D01*
X15728782Y-21992951D01*
X15805495Y-21878141D01*
X15903141Y-21780495D01*
X16017951Y-21703782D01*
X16145527Y-21650938D01*
X16280956Y-21624000D01*
X16419044Y-21624000D01*
X16554473Y-21650938D01*
G37*
G36*
X20563512Y-20413927D02*
G01*
X20712812Y-20443624D01*
X20876784Y-20511544D01*
X21024354Y-20610147D01*
X21149853Y-20735646D01*
X21248456Y-20883216D01*
X21316376Y-21047188D01*
X21351000Y-21221259D01*
X21351000Y-21398741D01*
X21316376Y-21572812D01*
X21248456Y-21736784D01*
X21149853Y-21884354D01*
X21024354Y-22009853D01*
X20876784Y-22108456D01*
X20712812Y-22176376D01*
X20563512Y-22206073D01*
X20538742Y-22211000D01*
X20361258Y-22211000D01*
X20336488Y-22206073D01*
X20187188Y-22176376D01*
X20023216Y-22108456D01*
X19875646Y-22009853D01*
X19750147Y-21884354D01*
X19651544Y-21736784D01*
X19583624Y-21572812D01*
X19549000Y-21398741D01*
X19549000Y-21221259D01*
X19583624Y-21047188D01*
X19651544Y-20883216D01*
X19750147Y-20735646D01*
X19875646Y-20610147D01*
X20023216Y-20511544D01*
X20187188Y-20443624D01*
X20336488Y-20413927D01*
X20361258Y-20409000D01*
X20538742Y-20409000D01*
X20563512Y-20413927D01*
G37*
G36*
X5854473Y-20760938D02*
G01*
X5982049Y-20813782D01*
X6096859Y-20890495D01*
X6194505Y-20988141D01*
X6271218Y-21102951D01*
X6324062Y-21230527D01*
X6351000Y-21365956D01*
X6351000Y-21504044D01*
X6324062Y-21639473D01*
X6271218Y-21767049D01*
X6194505Y-21881859D01*
X6096859Y-21979505D01*
X5982049Y-22056218D01*
X5854473Y-22109062D01*
X5719044Y-22136000D01*
X5580956Y-22136000D01*
X5445527Y-22109062D01*
X5317951Y-22056218D01*
X5203141Y-21979505D01*
X5105495Y-21881859D01*
X5028782Y-21767049D01*
X4975938Y-21639473D01*
X4949000Y-21504044D01*
X4949000Y-21365956D01*
X4975938Y-21230527D01*
X5028782Y-21102951D01*
X5105495Y-20988141D01*
X5203141Y-20890495D01*
X5317951Y-20813782D01*
X5445527Y-20760938D01*
X5580956Y-20734000D01*
X5719044Y-20734000D01*
X5854473Y-20760938D01*
G37*
G36*
X16554473Y-19870938D02*
G01*
X16682049Y-19923782D01*
X16796859Y-20000495D01*
X16894505Y-20098141D01*
X16971218Y-20212951D01*
X17024062Y-20340527D01*
X17051000Y-20475956D01*
X17051000Y-20614044D01*
X17024062Y-20749473D01*
X16971218Y-20877049D01*
X16894505Y-20991859D01*
X16796859Y-21089505D01*
X16682049Y-21166218D01*
X16554473Y-21219062D01*
X16419044Y-21246000D01*
X16280956Y-21246000D01*
X16145527Y-21219062D01*
X16017951Y-21166218D01*
X15903141Y-21089505D01*
X15805495Y-20991859D01*
X15728782Y-20877049D01*
X15675938Y-20749473D01*
X15649000Y-20614044D01*
X15649000Y-20475956D01*
X15675938Y-20340527D01*
X15728782Y-20212951D01*
X15805495Y-20098141D01*
X15903141Y-20000495D01*
X16017951Y-19923782D01*
X16145527Y-19870938D01*
X16280956Y-19844000D01*
X16419044Y-19844000D01*
X16554473Y-19870938D01*
G37*
G36*
X5854473Y-18980938D02*
G01*
X5982049Y-19033782D01*
X6096859Y-19110495D01*
X6194505Y-19208141D01*
X6271218Y-19322951D01*
X6324062Y-19450527D01*
X6351000Y-19585956D01*
X6351000Y-19724044D01*
X6324062Y-19859473D01*
X6271218Y-19987049D01*
X6194505Y-20101859D01*
X6096859Y-20199505D01*
X5982049Y-20276218D01*
X5854473Y-20329062D01*
X5719044Y-20356000D01*
X5580956Y-20356000D01*
X5445527Y-20329062D01*
X5317951Y-20276218D01*
X5203141Y-20199505D01*
X5105495Y-20101859D01*
X5028782Y-19987049D01*
X4975938Y-19859473D01*
X4949000Y-19724044D01*
X4949000Y-19585956D01*
X4975938Y-19450527D01*
X5028782Y-19322951D01*
X5105495Y-19208141D01*
X5203141Y-19110495D01*
X5317951Y-19033782D01*
X5445527Y-18980938D01*
X5580956Y-18954000D01*
X5719044Y-18954000D01*
X5854473Y-18980938D01*
G37*
G36*
X20563512Y-17873927D02*
G01*
X20712812Y-17903624D01*
X20876784Y-17971544D01*
X21024354Y-18070147D01*
X21149853Y-18195646D01*
X21248456Y-18343216D01*
X21316376Y-18507188D01*
X21351000Y-18681259D01*
X21351000Y-18858741D01*
X21316376Y-19032812D01*
X21248456Y-19196784D01*
X21149853Y-19344354D01*
X21024354Y-19469853D01*
X20876784Y-19568456D01*
X20712812Y-19636376D01*
X20563512Y-19666073D01*
X20538742Y-19671000D01*
X20361258Y-19671000D01*
X20336488Y-19666073D01*
X20187188Y-19636376D01*
X20023216Y-19568456D01*
X19875646Y-19469853D01*
X19750147Y-19344354D01*
X19651544Y-19196784D01*
X19583624Y-19032812D01*
X19549000Y-18858741D01*
X19549000Y-18681259D01*
X19583624Y-18507188D01*
X19651544Y-18343216D01*
X19750147Y-18195646D01*
X19875646Y-18070147D01*
X20023216Y-17971544D01*
X20187188Y-17903624D01*
X20336488Y-17873927D01*
X20361258Y-17869000D01*
X20538742Y-17869000D01*
X20563512Y-17873927D01*
G37*
G36*
X16554473Y-18090938D02*
G01*
X16682049Y-18143782D01*
X16796859Y-18220495D01*
X16894505Y-18318141D01*
X16971218Y-18432951D01*
X17024062Y-18560527D01*
X17051000Y-18695956D01*
X17051000Y-18834044D01*
X17024062Y-18969473D01*
X16971218Y-19097049D01*
X16894505Y-19211859D01*
X16796859Y-19309505D01*
X16682049Y-19386218D01*
X16554473Y-19439062D01*
X16419044Y-19466000D01*
X16280956Y-19466000D01*
X16145527Y-19439062D01*
X16017951Y-19386218D01*
X15903141Y-19309505D01*
X15805495Y-19211859D01*
X15728782Y-19097049D01*
X15675938Y-18969473D01*
X15649000Y-18834044D01*
X15649000Y-18695956D01*
X15675938Y-18560527D01*
X15728782Y-18432951D01*
X15805495Y-18318141D01*
X15903141Y-18220495D01*
X16017951Y-18143782D01*
X16145527Y-18090938D01*
X16280956Y-18064000D01*
X16419044Y-18064000D01*
X16554473Y-18090938D01*
G37*
G36*
X5854473Y-17200938D02*
G01*
X5982049Y-17253782D01*
X6096859Y-17330495D01*
X6194505Y-17428141D01*
X6271218Y-17542951D01*
X6324062Y-17670527D01*
X6351000Y-17805956D01*
X6351000Y-17944044D01*
X6324062Y-18079473D01*
X6271218Y-18207049D01*
X6194505Y-18321859D01*
X6096859Y-18419505D01*
X5982049Y-18496218D01*
X5854473Y-18549062D01*
X5719044Y-18576000D01*
X5580956Y-18576000D01*
X5445527Y-18549062D01*
X5317951Y-18496218D01*
X5203141Y-18419505D01*
X5105495Y-18321859D01*
X5028782Y-18207049D01*
X4975938Y-18079473D01*
X4949000Y-17944044D01*
X4949000Y-17805956D01*
X4975938Y-17670527D01*
X5028782Y-17542951D01*
X5105495Y-17428141D01*
X5203141Y-17330495D01*
X5317951Y-17253782D01*
X5445527Y-17200938D01*
X5580956Y-17174000D01*
X5719044Y-17174000D01*
X5854473Y-17200938D01*
G37*
G36*
X16554473Y-16310938D02*
G01*
X16682049Y-16363782D01*
X16796859Y-16440495D01*
X16894505Y-16538141D01*
X16971218Y-16652951D01*
X17024062Y-16780527D01*
X17051000Y-16915956D01*
X17051000Y-17054044D01*
X17024062Y-17189473D01*
X16971218Y-17317049D01*
X16894505Y-17431859D01*
X16796859Y-17529505D01*
X16682049Y-17606218D01*
X16554473Y-17659062D01*
X16419044Y-17686000D01*
X16280956Y-17686000D01*
X16145527Y-17659062D01*
X16017951Y-17606218D01*
X15903141Y-17529505D01*
X15805495Y-17431859D01*
X15728782Y-17317049D01*
X15675938Y-17189473D01*
X15649000Y-17054044D01*
X15649000Y-16915956D01*
X15675938Y-16780527D01*
X15728782Y-16652951D01*
X15805495Y-16538141D01*
X15903141Y-16440495D01*
X16017951Y-16363782D01*
X16145527Y-16310938D01*
X16280956Y-16284000D01*
X16419044Y-16284000D01*
X16554473Y-16310938D01*
G37*
G36*
X20563512Y-15333927D02*
G01*
X20712812Y-15363624D01*
X20876784Y-15431544D01*
X21024354Y-15530147D01*
X21149853Y-15655646D01*
X21248456Y-15803216D01*
X21316376Y-15967188D01*
X21351000Y-16141259D01*
X21351000Y-16318741D01*
X21316376Y-16492812D01*
X21248456Y-16656784D01*
X21149853Y-16804354D01*
X21024354Y-16929853D01*
X20876784Y-17028456D01*
X20712812Y-17096376D01*
X20563512Y-17126073D01*
X20538742Y-17131000D01*
X20361258Y-17131000D01*
X20336488Y-17126073D01*
X20187188Y-17096376D01*
X20023216Y-17028456D01*
X19875646Y-16929853D01*
X19750147Y-16804354D01*
X19651544Y-16656784D01*
X19583624Y-16492812D01*
X19549000Y-16318741D01*
X19549000Y-16141259D01*
X19583624Y-15967188D01*
X19651544Y-15803216D01*
X19750147Y-15655646D01*
X19875646Y-15530147D01*
X20023216Y-15431544D01*
X20187188Y-15363624D01*
X20336488Y-15333927D01*
X20361258Y-15329000D01*
X20538742Y-15329000D01*
X20563512Y-15333927D01*
G37*
G36*
X5854473Y-15420938D02*
G01*
X5982049Y-15473782D01*
X6096859Y-15550495D01*
X6194505Y-15648141D01*
X6271218Y-15762951D01*
X6324062Y-15890527D01*
X6351000Y-16025956D01*
X6351000Y-16164044D01*
X6324062Y-16299473D01*
X6271218Y-16427049D01*
X6194505Y-16541859D01*
X6096859Y-16639505D01*
X5982049Y-16716218D01*
X5854473Y-16769062D01*
X5719044Y-16796000D01*
X5580956Y-16796000D01*
X5445527Y-16769062D01*
X5317951Y-16716218D01*
X5203141Y-16639505D01*
X5105495Y-16541859D01*
X5028782Y-16427049D01*
X4975938Y-16299473D01*
X4949000Y-16164044D01*
X4949000Y-16025956D01*
X4975938Y-15890527D01*
X5028782Y-15762951D01*
X5105495Y-15648141D01*
X5203141Y-15550495D01*
X5317951Y-15473782D01*
X5445527Y-15420938D01*
X5580956Y-15394000D01*
X5719044Y-15394000D01*
X5854473Y-15420938D01*
G37*
G36*
X16554473Y-14530938D02*
G01*
X16682049Y-14583782D01*
X16796859Y-14660495D01*
X16894505Y-14758141D01*
X16971218Y-14872951D01*
X17024062Y-15000527D01*
X17051000Y-15135956D01*
X17051000Y-15274044D01*
X17024062Y-15409473D01*
X16971218Y-15537049D01*
X16894505Y-15651859D01*
X16796859Y-15749505D01*
X16682049Y-15826218D01*
X16554473Y-15879062D01*
X16419044Y-15906000D01*
X16280956Y-15906000D01*
X16145527Y-15879062D01*
X16017951Y-15826218D01*
X15903141Y-15749505D01*
X15805495Y-15651859D01*
X15728782Y-15537049D01*
X15675938Y-15409473D01*
X15649000Y-15274044D01*
X15649000Y-15135956D01*
X15675938Y-15000527D01*
X15728782Y-14872951D01*
X15805495Y-14758141D01*
X15903141Y-14660495D01*
X16017951Y-14583782D01*
X16145527Y-14530938D01*
X16280956Y-14504000D01*
X16419044Y-14504000D01*
X16554473Y-14530938D01*
G37*
G36*
X5854473Y-13640938D02*
G01*
X5982049Y-13693782D01*
X6096859Y-13770495D01*
X6194505Y-13868141D01*
X6271218Y-13982951D01*
X6324062Y-14110527D01*
X6351000Y-14245956D01*
X6351000Y-14384044D01*
X6324062Y-14519473D01*
X6271218Y-14647049D01*
X6194505Y-14761859D01*
X6096859Y-14859505D01*
X5982049Y-14936218D01*
X5854473Y-14989062D01*
X5719044Y-15016000D01*
X5580956Y-15016000D01*
X5445527Y-14989062D01*
X5317951Y-14936218D01*
X5203141Y-14859505D01*
X5105495Y-14761859D01*
X5028782Y-14647049D01*
X4975938Y-14519473D01*
X4949000Y-14384044D01*
X4949000Y-14245956D01*
X4975938Y-14110527D01*
X5028782Y-13982951D01*
X5105495Y-13868141D01*
X5203141Y-13770495D01*
X5317951Y-13693782D01*
X5445527Y-13640938D01*
X5580956Y-13614000D01*
X5719044Y-13614000D01*
X5854473Y-13640938D01*
G37*
G36*
X20563512Y-12793927D02*
G01*
X20712812Y-12823624D01*
X20876784Y-12891544D01*
X21024354Y-12990147D01*
X21149853Y-13115646D01*
X21248456Y-13263216D01*
X21316376Y-13427188D01*
X21351000Y-13601259D01*
X21351000Y-13778741D01*
X21316376Y-13952812D01*
X21248456Y-14116784D01*
X21149853Y-14264354D01*
X21024354Y-14389853D01*
X20876784Y-14488456D01*
X20712812Y-14556376D01*
X20575029Y-14583782D01*
X20538742Y-14591000D01*
X20361258Y-14591000D01*
X20324971Y-14583782D01*
X20187188Y-14556376D01*
X20023216Y-14488456D01*
X19875646Y-14389853D01*
X19750147Y-14264354D01*
X19651544Y-14116784D01*
X19583624Y-13952812D01*
X19549000Y-13778741D01*
X19549000Y-13601259D01*
X19583624Y-13427188D01*
X19651544Y-13263216D01*
X19750147Y-13115646D01*
X19875646Y-12990147D01*
X20023216Y-12891544D01*
X20187188Y-12823624D01*
X20336488Y-12793927D01*
X20361258Y-12789000D01*
X20538742Y-12789000D01*
X20563512Y-12793927D01*
G37*
G36*
X16554473Y-12750938D02*
G01*
X16682049Y-12803782D01*
X16796859Y-12880495D01*
X16894505Y-12978141D01*
X16971218Y-13092951D01*
X17024062Y-13220527D01*
X17051000Y-13355956D01*
X17051000Y-13494044D01*
X17024062Y-13629473D01*
X16971218Y-13757049D01*
X16894505Y-13871859D01*
X16796859Y-13969505D01*
X16682049Y-14046218D01*
X16554473Y-14099062D01*
X16419044Y-14126000D01*
X16280956Y-14126000D01*
X16145527Y-14099062D01*
X16017951Y-14046218D01*
X15903141Y-13969505D01*
X15805495Y-13871859D01*
X15728782Y-13757049D01*
X15675938Y-13629473D01*
X15649000Y-13494044D01*
X15649000Y-13355956D01*
X15675938Y-13220527D01*
X15728782Y-13092951D01*
X15805495Y-12978141D01*
X15903141Y-12880495D01*
X16017951Y-12803782D01*
X16145527Y-12750938D01*
X16280956Y-12724000D01*
X16419044Y-12724000D01*
X16554473Y-12750938D01*
G37*
G36*
X5854473Y-11860938D02*
G01*
X5982049Y-11913782D01*
X6096859Y-11990495D01*
X6194505Y-12088141D01*
X6271218Y-12202951D01*
X6324062Y-12330527D01*
X6351000Y-12465956D01*
X6351000Y-12604044D01*
X6324062Y-12739473D01*
X6271218Y-12867049D01*
X6194505Y-12981859D01*
X6096859Y-13079505D01*
X5982049Y-13156218D01*
X5854473Y-13209062D01*
X5719044Y-13236000D01*
X5580956Y-13236000D01*
X5445527Y-13209062D01*
X5317951Y-13156218D01*
X5203141Y-13079505D01*
X5105495Y-12981859D01*
X5028782Y-12867049D01*
X4975938Y-12739473D01*
X4949000Y-12604044D01*
X4949000Y-12465956D01*
X4975938Y-12330527D01*
X5028782Y-12202951D01*
X5105495Y-12088141D01*
X5203141Y-11990495D01*
X5317951Y-11913782D01*
X5445527Y-11860938D01*
X5580956Y-11834000D01*
X5719044Y-11834000D01*
X5854473Y-11860938D01*
G37*
G36*
X16554473Y-10970938D02*
G01*
X16682049Y-11023782D01*
X16796859Y-11100495D01*
X16894505Y-11198141D01*
X16971218Y-11312951D01*
X17024062Y-11440527D01*
X17051000Y-11575956D01*
X17051000Y-11714044D01*
X17024062Y-11849473D01*
X16971218Y-11977049D01*
X16894505Y-12091859D01*
X16796859Y-12189505D01*
X16682049Y-12266218D01*
X16554473Y-12319062D01*
X16419044Y-12346000D01*
X16280956Y-12346000D01*
X16145527Y-12319062D01*
X16017951Y-12266218D01*
X15903141Y-12189505D01*
X15805495Y-12091859D01*
X15728782Y-11977049D01*
X15675938Y-11849473D01*
X15649000Y-11714044D01*
X15649000Y-11575956D01*
X15675938Y-11440527D01*
X15728782Y-11312951D01*
X15805495Y-11198141D01*
X15903141Y-11100495D01*
X16017951Y-11023782D01*
X16145527Y-10970938D01*
X16280956Y-10944000D01*
X16419044Y-10944000D01*
X16554473Y-10970938D01*
G37*
G36*
X20563512Y-10253927D02*
G01*
X20712812Y-10283624D01*
X20876784Y-10351544D01*
X21024354Y-10450147D01*
X21149853Y-10575646D01*
X21248456Y-10723216D01*
X21316376Y-10887188D01*
X21351000Y-11061259D01*
X21351000Y-11238741D01*
X21316376Y-11412812D01*
X21248456Y-11576784D01*
X21149853Y-11724354D01*
X21024354Y-11849853D01*
X20876784Y-11948456D01*
X20712812Y-12016376D01*
X20563512Y-12046073D01*
X20538742Y-12051000D01*
X20361258Y-12051000D01*
X20336488Y-12046073D01*
X20187188Y-12016376D01*
X20023216Y-11948456D01*
X19875646Y-11849853D01*
X19750147Y-11724354D01*
X19651544Y-11576784D01*
X19583624Y-11412812D01*
X19549000Y-11238741D01*
X19549000Y-11061259D01*
X19583624Y-10887188D01*
X19651544Y-10723216D01*
X19750147Y-10575646D01*
X19875646Y-10450147D01*
X20023216Y-10351544D01*
X20187188Y-10283624D01*
X20336488Y-10253927D01*
X20361258Y-10249000D01*
X20538742Y-10249000D01*
X20563512Y-10253927D01*
G37*
G36*
X5854473Y-10080938D02*
G01*
X5982049Y-10133782D01*
X6096859Y-10210495D01*
X6194505Y-10308141D01*
X6271218Y-10422951D01*
X6324062Y-10550527D01*
X6351000Y-10685956D01*
X6351000Y-10824044D01*
X6324062Y-10959473D01*
X6271218Y-11087049D01*
X6194505Y-11201859D01*
X6096859Y-11299505D01*
X5982049Y-11376218D01*
X5854473Y-11429062D01*
X5719044Y-11456000D01*
X5580956Y-11456000D01*
X5445527Y-11429062D01*
X5317951Y-11376218D01*
X5203141Y-11299505D01*
X5105495Y-11201859D01*
X5028782Y-11087049D01*
X4975938Y-10959473D01*
X4949000Y-10824044D01*
X4949000Y-10685956D01*
X4975938Y-10550527D01*
X5028782Y-10422951D01*
X5105495Y-10308141D01*
X5203141Y-10210495D01*
X5317951Y-10133782D01*
X5445527Y-10080938D01*
X5580956Y-10054000D01*
X5719044Y-10054000D01*
X5854473Y-10080938D01*
G37*
G36*
X16554473Y-9190938D02*
G01*
X16682049Y-9243782D01*
X16796859Y-9320495D01*
X16894505Y-9418141D01*
X16971218Y-9532951D01*
X17024062Y-9660527D01*
X17051000Y-9795956D01*
X17051000Y-9934044D01*
X17024062Y-10069473D01*
X16971218Y-10197049D01*
X16894505Y-10311859D01*
X16796859Y-10409505D01*
X16682049Y-10486218D01*
X16554473Y-10539062D01*
X16419044Y-10566000D01*
X16280956Y-10566000D01*
X16145527Y-10539062D01*
X16017951Y-10486218D01*
X15903141Y-10409505D01*
X15805495Y-10311859D01*
X15728782Y-10197049D01*
X15675938Y-10069473D01*
X15649000Y-9934044D01*
X15649000Y-9795956D01*
X15675938Y-9660527D01*
X15728782Y-9532951D01*
X15805495Y-9418141D01*
X15903141Y-9320495D01*
X16017951Y-9243782D01*
X16145527Y-9190938D01*
X16280956Y-9164000D01*
X16419044Y-9164000D01*
X16554473Y-9190938D01*
G37*
G36*
X5854473Y-8300938D02*
G01*
X5982049Y-8353782D01*
X6096859Y-8430495D01*
X6194505Y-8528141D01*
X6271218Y-8642951D01*
X6324062Y-8770527D01*
X6351000Y-8905956D01*
X6351000Y-9044044D01*
X6324062Y-9179473D01*
X6271218Y-9307049D01*
X6194505Y-9421859D01*
X6096859Y-9519505D01*
X5982049Y-9596218D01*
X5854473Y-9649062D01*
X5719044Y-9676000D01*
X5580956Y-9676000D01*
X5445527Y-9649062D01*
X5317951Y-9596218D01*
X5203141Y-9519505D01*
X5105495Y-9421859D01*
X5028782Y-9307049D01*
X4975938Y-9179473D01*
X4949000Y-9044044D01*
X4949000Y-8905956D01*
X4975938Y-8770527D01*
X5028782Y-8642951D01*
X5105495Y-8528141D01*
X5203141Y-8430495D01*
X5317951Y-8353782D01*
X5445527Y-8300938D01*
X5580956Y-8274000D01*
X5719044Y-8274000D01*
X5854473Y-8300938D01*
G37*
G36*
X20563512Y-7713927D02*
G01*
X20712812Y-7743624D01*
X20876784Y-7811544D01*
X21024354Y-7910147D01*
X21149853Y-8035646D01*
X21248456Y-8183216D01*
X21316376Y-8347188D01*
X21351000Y-8521259D01*
X21351000Y-8698741D01*
X21316376Y-8872812D01*
X21248456Y-9036784D01*
X21149853Y-9184354D01*
X21024354Y-9309853D01*
X20876784Y-9408456D01*
X20712812Y-9476376D01*
X20563512Y-9506073D01*
X20538742Y-9511000D01*
X20361258Y-9511000D01*
X20336488Y-9506073D01*
X20187188Y-9476376D01*
X20023216Y-9408456D01*
X19875646Y-9309853D01*
X19750147Y-9184354D01*
X19651544Y-9036784D01*
X19583624Y-8872812D01*
X19549000Y-8698741D01*
X19549000Y-8521259D01*
X19583624Y-8347188D01*
X19651544Y-8183216D01*
X19750147Y-8035646D01*
X19875646Y-7910147D01*
X20023216Y-7811544D01*
X20187188Y-7743624D01*
X20336488Y-7713927D01*
X20361258Y-7709000D01*
X20538742Y-7709000D01*
X20563512Y-7713927D01*
G37*
G36*
X20563512Y-5173927D02*
G01*
X20712812Y-5203624D01*
X20876784Y-5271544D01*
X21024354Y-5370147D01*
X21149853Y-5495646D01*
X21248456Y-5643216D01*
X21316376Y-5807188D01*
X21351000Y-5981259D01*
X21351000Y-6158741D01*
X21316376Y-6332812D01*
X21248456Y-6496784D01*
X21149853Y-6644354D01*
X21024354Y-6769853D01*
X20876784Y-6868456D01*
X20712812Y-6936376D01*
X20563512Y-6966073D01*
X20538742Y-6971000D01*
X20361258Y-6971000D01*
X20336488Y-6966073D01*
X20187188Y-6936376D01*
X20023216Y-6868456D01*
X19875646Y-6769853D01*
X19750147Y-6644354D01*
X19651544Y-6496784D01*
X19583624Y-6332812D01*
X19549000Y-6158741D01*
X19549000Y-5981259D01*
X19583624Y-5807188D01*
X19651544Y-5643216D01*
X19750147Y-5495646D01*
X19875646Y-5370147D01*
X20023216Y-5271544D01*
X20187188Y-5203624D01*
X20336488Y-5173927D01*
X20361258Y-5169000D01*
X20538742Y-5169000D01*
X20563512Y-5173927D01*
G37*
G36*
X14848212Y-3506249D02*
G01*
X14942651Y-3534897D01*
X15029687Y-3581418D01*
X15105975Y-3644025D01*
X15168582Y-3720313D01*
X15215103Y-3807348D01*
X15243751Y-3901787D01*
X15251000Y-3975388D01*
X15251000Y-4524612D01*
X15243751Y-4598213D01*
X15215103Y-4692652D01*
X15168582Y-4779687D01*
X15105975Y-4855975D01*
X15029687Y-4918582D01*
X14942652Y-4965103D01*
X14848213Y-4993751D01*
X14750000Y-5003424D01*
X14651788Y-4993751D01*
X14557349Y-4965103D01*
X14470314Y-4918582D01*
X14394026Y-4855975D01*
X14331419Y-4779687D01*
X14284898Y-4692652D01*
X14256250Y-4598213D01*
X14249397Y-4528633D01*
X14244616Y-4504600D01*
X14235239Y-4481961D01*
X14221625Y-4461587D01*
X14204298Y-4444260D01*
X14183924Y-4430646D01*
X14161285Y-4421269D01*
X14137252Y-4416489D01*
X14112747Y-4416489D01*
X14088714Y-4421270D01*
X14066075Y-4430647D01*
X14045701Y-4444261D01*
X14028374Y-4461588D01*
X14014760Y-4481962D01*
X14005383Y-4504601D01*
X14000605Y-4528623D01*
X13993751Y-4598213D01*
X13965103Y-4692652D01*
X13918582Y-4779687D01*
X13855975Y-4855975D01*
X13779687Y-4918582D01*
X13692652Y-4965103D01*
X13598213Y-4993751D01*
X13500000Y-5003424D01*
X13401788Y-4993751D01*
X13307349Y-4965103D01*
X13220314Y-4918582D01*
X13144026Y-4855975D01*
X13081419Y-4779687D01*
X13034898Y-4692652D01*
X13006250Y-4598213D01*
X12999397Y-4528633D01*
X12994616Y-4504600D01*
X12985239Y-4481961D01*
X12971625Y-4461587D01*
X12954298Y-4444260D01*
X12933924Y-4430646D01*
X12911285Y-4421269D01*
X12887252Y-4416489D01*
X12862747Y-4416489D01*
X12838714Y-4421270D01*
X12816075Y-4430647D01*
X12795701Y-4444261D01*
X12778374Y-4461588D01*
X12764760Y-4481962D01*
X12755383Y-4504601D01*
X12750605Y-4528623D01*
X12743751Y-4598213D01*
X12715103Y-4692652D01*
X12668582Y-4779687D01*
X12605975Y-4855975D01*
X12529687Y-4918582D01*
X12442652Y-4965103D01*
X12348213Y-4993751D01*
X12250000Y-5003424D01*
X12151788Y-4993751D01*
X12057349Y-4965103D01*
X11970314Y-4918582D01*
X11894026Y-4855975D01*
X11831419Y-4779687D01*
X11784898Y-4692652D01*
X11756250Y-4598213D01*
X11749397Y-4528633D01*
X11744616Y-4504600D01*
X11735239Y-4481961D01*
X11721625Y-4461587D01*
X11704298Y-4444260D01*
X11683924Y-4430646D01*
X11661285Y-4421269D01*
X11637252Y-4416489D01*
X11612747Y-4416489D01*
X11588714Y-4421270D01*
X11566075Y-4430647D01*
X11545701Y-4444261D01*
X11528374Y-4461588D01*
X11514760Y-4481962D01*
X11505383Y-4504601D01*
X11500605Y-4528623D01*
X11493751Y-4598213D01*
X11465103Y-4692652D01*
X11418582Y-4779687D01*
X11355975Y-4855975D01*
X11279687Y-4918582D01*
X11192652Y-4965103D01*
X11098213Y-4993751D01*
X11000000Y-5003424D01*
X10901788Y-4993751D01*
X10807349Y-4965103D01*
X10720314Y-4918582D01*
X10644026Y-4855975D01*
X10581419Y-4779687D01*
X10534898Y-4692652D01*
X10506250Y-4598213D01*
X10499397Y-4528633D01*
X10494616Y-4504600D01*
X10485239Y-4481961D01*
X10471625Y-4461587D01*
X10454298Y-4444260D01*
X10433924Y-4430646D01*
X10411285Y-4421269D01*
X10387252Y-4416489D01*
X10362747Y-4416489D01*
X10338714Y-4421270D01*
X10316075Y-4430647D01*
X10295701Y-4444261D01*
X10278374Y-4461588D01*
X10264760Y-4481962D01*
X10255383Y-4504601D01*
X10250605Y-4528623D01*
X10243751Y-4598213D01*
X10215103Y-4692652D01*
X10168582Y-4779687D01*
X10105975Y-4855975D01*
X10029687Y-4918582D01*
X9942652Y-4965103D01*
X9848213Y-4993751D01*
X9750000Y-5003424D01*
X9651788Y-4993751D01*
X9557349Y-4965103D01*
X9470314Y-4918582D01*
X9394026Y-4855975D01*
X9331419Y-4779687D01*
X9284898Y-4692652D01*
X9256250Y-4598213D01*
X9249397Y-4528633D01*
X9244616Y-4504600D01*
X9235239Y-4481961D01*
X9221625Y-4461587D01*
X9204298Y-4444260D01*
X9183924Y-4430646D01*
X9161285Y-4421269D01*
X9137252Y-4416489D01*
X9112747Y-4416489D01*
X9088714Y-4421270D01*
X9066075Y-4430647D01*
X9045701Y-4444261D01*
X9028374Y-4461588D01*
X9014760Y-4481962D01*
X9005383Y-4504601D01*
X9000605Y-4528623D01*
X8993751Y-4598213D01*
X8965103Y-4692652D01*
X8918582Y-4779687D01*
X8855975Y-4855975D01*
X8779687Y-4918582D01*
X8692652Y-4965103D01*
X8598213Y-4993751D01*
X8500000Y-5003424D01*
X8401788Y-4993751D01*
X8307349Y-4965103D01*
X8220314Y-4918582D01*
X8144026Y-4855975D01*
X8081419Y-4779687D01*
X8034898Y-4692652D01*
X8006250Y-4598213D01*
X8000396Y-4538776D01*
X7995615Y-4514742D01*
X7986238Y-4492103D01*
X7972624Y-4471729D01*
X7955297Y-4454402D01*
X7934923Y-4440789D01*
X7912284Y-4431411D01*
X7888251Y-4426631D01*
X7863747Y-4426631D01*
X7839713Y-4431412D01*
X7817074Y-4440789D01*
X7796700Y-4454403D01*
X7779373Y-4471730D01*
X7765760Y-4492104D01*
X7756382Y-4514743D01*
X7751000Y-4551028D01*
X7751000Y-4806860D01*
X7746795Y-4849560D01*
X7736131Y-4884713D01*
X7718814Y-4917110D01*
X7695509Y-4945509D01*
X7667110Y-4968814D01*
X7634713Y-4986131D01*
X7599560Y-4996795D01*
X7556860Y-5001000D01*
X6943140Y-5001000D01*
X6900440Y-4996795D01*
X6865287Y-4986131D01*
X6832890Y-4968814D01*
X6804491Y-4945509D01*
X6781186Y-4917110D01*
X6763869Y-4884713D01*
X6753205Y-4849560D01*
X6749000Y-4806860D01*
X6749000Y-3693140D01*
X6753205Y-3650440D01*
X6763869Y-3615287D01*
X6781186Y-3582890D01*
X6804491Y-3554491D01*
X6832890Y-3531186D01*
X6865287Y-3513869D01*
X6900440Y-3503205D01*
X6943140Y-3499000D01*
X7556860Y-3499000D01*
X7599560Y-3503205D01*
X7634713Y-3513869D01*
X7667110Y-3531186D01*
X7695509Y-3554491D01*
X7718814Y-3582890D01*
X7736131Y-3615287D01*
X7746795Y-3650440D01*
X7751000Y-3693140D01*
X7751000Y-3948973D01*
X7753402Y-3973359D01*
X7760515Y-3996808D01*
X7772066Y-4018419D01*
X7787611Y-4037361D01*
X7806553Y-4052906D01*
X7828164Y-4064457D01*
X7851613Y-4071570D01*
X7875999Y-4073972D01*
X7900385Y-4071570D01*
X7923834Y-4064457D01*
X7945445Y-4052906D01*
X7964387Y-4037361D01*
X7979932Y-4018419D01*
X7991483Y-3996808D01*
X8000394Y-3961231D01*
X8006249Y-3901788D01*
X8034897Y-3807349D01*
X8081418Y-3720313D01*
X8144025Y-3644025D01*
X8220313Y-3581418D01*
X8307348Y-3534897D01*
X8401787Y-3506249D01*
X8500000Y-3496576D01*
X8598212Y-3506249D01*
X8692651Y-3534897D01*
X8779687Y-3581418D01*
X8855975Y-3644025D01*
X8918582Y-3720313D01*
X8965103Y-3807348D01*
X8993751Y-3901787D01*
X9000605Y-3971377D01*
X9005384Y-3995401D01*
X9014761Y-4018039D01*
X9028375Y-4038414D01*
X9045702Y-4055741D01*
X9066076Y-4069354D01*
X9088715Y-4078732D01*
X9112748Y-4083512D01*
X9137252Y-4083512D01*
X9161286Y-4078731D01*
X9183924Y-4069354D01*
X9204299Y-4055740D01*
X9221626Y-4038413D01*
X9235239Y-4018039D01*
X9244617Y-3995400D01*
X9249395Y-3971378D01*
X9256249Y-3901788D01*
X9284897Y-3807349D01*
X9331418Y-3720313D01*
X9394025Y-3644025D01*
X9470313Y-3581418D01*
X9557348Y-3534897D01*
X9651787Y-3506249D01*
X9750000Y-3496576D01*
X9848212Y-3506249D01*
X9942651Y-3534897D01*
X10029687Y-3581418D01*
X10105975Y-3644025D01*
X10168582Y-3720313D01*
X10215103Y-3807348D01*
X10243751Y-3901787D01*
X10250605Y-3971377D01*
X10255384Y-3995401D01*
X10264761Y-4018039D01*
X10278375Y-4038414D01*
X10295702Y-4055741D01*
X10316076Y-4069354D01*
X10338715Y-4078732D01*
X10362748Y-4083512D01*
X10387252Y-4083512D01*
X10411286Y-4078731D01*
X10433924Y-4069354D01*
X10454299Y-4055740D01*
X10471626Y-4038413D01*
X10485239Y-4018039D01*
X10494617Y-3995400D01*
X10499395Y-3971378D01*
X10506249Y-3901788D01*
X10534897Y-3807349D01*
X10581418Y-3720313D01*
X10644025Y-3644025D01*
X10720313Y-3581418D01*
X10807348Y-3534897D01*
X10901787Y-3506249D01*
X11000000Y-3496576D01*
X11098212Y-3506249D01*
X11192651Y-3534897D01*
X11279687Y-3581418D01*
X11355975Y-3644025D01*
X11418582Y-3720313D01*
X11465103Y-3807348D01*
X11493751Y-3901787D01*
X11500605Y-3971377D01*
X11505384Y-3995401D01*
X11514761Y-4018039D01*
X11528375Y-4038414D01*
X11545702Y-4055741D01*
X11566076Y-4069354D01*
X11588715Y-4078732D01*
X11612748Y-4083512D01*
X11637252Y-4083512D01*
X11661286Y-4078731D01*
X11683924Y-4069354D01*
X11704299Y-4055740D01*
X11721626Y-4038413D01*
X11735239Y-4018039D01*
X11744617Y-3995400D01*
X11749395Y-3971378D01*
X11756249Y-3901788D01*
X11784897Y-3807349D01*
X11831418Y-3720313D01*
X11894025Y-3644025D01*
X11970313Y-3581418D01*
X12057348Y-3534897D01*
X12151787Y-3506249D01*
X12250000Y-3496576D01*
X12348212Y-3506249D01*
X12442651Y-3534897D01*
X12529687Y-3581418D01*
X12605975Y-3644025D01*
X12668582Y-3720313D01*
X12715103Y-3807348D01*
X12743751Y-3901787D01*
X12750605Y-3971377D01*
X12755384Y-3995401D01*
X12764761Y-4018039D01*
X12778375Y-4038414D01*
X12795702Y-4055741D01*
X12816076Y-4069354D01*
X12838715Y-4078732D01*
X12862748Y-4083512D01*
X12887252Y-4083512D01*
X12911286Y-4078731D01*
X12933924Y-4069354D01*
X12954299Y-4055740D01*
X12971626Y-4038413D01*
X12985239Y-4018039D01*
X12994617Y-3995400D01*
X12999395Y-3971378D01*
X13006249Y-3901788D01*
X13034897Y-3807349D01*
X13081418Y-3720313D01*
X13144025Y-3644025D01*
X13220313Y-3581418D01*
X13307348Y-3534897D01*
X13401787Y-3506249D01*
X13500000Y-3496576D01*
X13598212Y-3506249D01*
X13692651Y-3534897D01*
X13779687Y-3581418D01*
X13855975Y-3644025D01*
X13918582Y-3720313D01*
X13965103Y-3807348D01*
X13993751Y-3901787D01*
X14000605Y-3971377D01*
X14005384Y-3995401D01*
X14014761Y-4018039D01*
X14028375Y-4038414D01*
X14045702Y-4055741D01*
X14066076Y-4069354D01*
X14088715Y-4078732D01*
X14112748Y-4083512D01*
X14137252Y-4083512D01*
X14161286Y-4078731D01*
X14183924Y-4069354D01*
X14204299Y-4055740D01*
X14221626Y-4038413D01*
X14235239Y-4018039D01*
X14244617Y-3995400D01*
X14249395Y-3971378D01*
X14256249Y-3901788D01*
X14284897Y-3807349D01*
X14331418Y-3720313D01*
X14394025Y-3644025D01*
X14470313Y-3581418D01*
X14557348Y-3534897D01*
X14651787Y-3506249D01*
X14750000Y-3496576D01*
X14848212Y-3506249D01*
G37*
G36*
X19710050Y-1393232D02*
G01*
X19835734Y-1418232D01*
X20045203Y-1504997D01*
X20233720Y-1630960D01*
X20394040Y-1791280D01*
X20520003Y-1979797D01*
X20606768Y-2189266D01*
X20651000Y-2411636D01*
X20651000Y-2638364D01*
X20606768Y-2860734D01*
X20520003Y-3070203D01*
X20394040Y-3258720D01*
X20233720Y-3419040D01*
X20045203Y-3545003D01*
X19835734Y-3631768D01*
X19741863Y-3650440D01*
X19613365Y-3676000D01*
X19386635Y-3676000D01*
X19258137Y-3650440D01*
X19164266Y-3631768D01*
X18954797Y-3545003D01*
X18766280Y-3419040D01*
X18605960Y-3258720D01*
X18479997Y-3070203D01*
X18393232Y-2860734D01*
X18349000Y-2638364D01*
X18349000Y-2411636D01*
X18393232Y-2189266D01*
X18479997Y-1979797D01*
X18605960Y-1791280D01*
X18766280Y-1630960D01*
X18954797Y-1504997D01*
X19164266Y-1418232D01*
X19289950Y-1393232D01*
X19386635Y-1374000D01*
X19613365Y-1374000D01*
X19710050Y-1393232D01*
G37*
G36*
X2724549Y-1371116D02*
G01*
X2835734Y-1393232D01*
X3045203Y-1479997D01*
X3233720Y-1605960D01*
X3394040Y-1766280D01*
X3520003Y-1954797D01*
X3606768Y-2164266D01*
X3651000Y-2386636D01*
X3651000Y-2613364D01*
X3606768Y-2835734D01*
X3520003Y-3045203D01*
X3394040Y-3233720D01*
X3233720Y-3394040D01*
X3045203Y-3520003D01*
X3045202Y-3520004D01*
X3045201Y-3520004D01*
X2993988Y-3541217D01*
X2835734Y-3606768D01*
X2724549Y-3628884D01*
X2613365Y-3651000D01*
X2386635Y-3651000D01*
X2275451Y-3628884D01*
X2164266Y-3606768D01*
X2006012Y-3541217D01*
X1954799Y-3520004D01*
X1954798Y-3520004D01*
X1954797Y-3520003D01*
X1766280Y-3394040D01*
X1605960Y-3233720D01*
X1479997Y-3045203D01*
X1393232Y-2835734D01*
X1349000Y-2613364D01*
X1349000Y-2386636D01*
X1393232Y-2164266D01*
X1479997Y-1954797D01*
X1605960Y-1766280D01*
X1766280Y-1605960D01*
X1954797Y-1479997D01*
X2164266Y-1393232D01*
X2275451Y-1371116D01*
X2386635Y-1349000D01*
X2613365Y-1349000D01*
X2724549Y-1371116D01*
G37*
M02*
