%FSLAX45Y45*%
G04 Gerber Fmt 4.5, Leading zero omitted, Abs format (unit mm)*
G04 Created by KiCad (PCBNEW (5.1.5)-3) date 2021-07-20 23:36:56*
%MOMM*%
%LPD*%
G04 APERTURE LIST*
%TA.AperFunction,Profile*%
%ADD10C,0.050000*%
%TD*%
%ADD11C,0.200000*%
%ADD12C,0.300000*%
G04 APERTURE END LIST*
D10*
X1545000Y-2515000D02*
X1545000Y-765000D01*
X655000Y-765000D02*
X655000Y-2515000D01*
X250000Y0D02*
X1950000Y0D01*
X0Y-2750000D02*
X0Y-250000D01*
X250000Y-3000000D02*
X1950000Y-3000000D01*
X2200000Y-250000D02*
X2200000Y-2750000D01*
X2200000Y-2750000D02*
G75*
G02X1950000Y-3000000I-250000J0D01*
G01*
X250000Y-3000000D02*
G75*
G02X0Y-2750000I0J250000D01*
G01*
X0Y-250000D02*
G75*
G02X250000Y0I250000J0D01*
G01*
X1950000Y0D02*
G75*
G02X2200000Y-250000I0J-250000D01*
G01*
X655000Y-2515000D02*
X1545000Y-2515000D01*
X1545000Y-765000D02*
X655000Y-765000D01*
D11*
X1840000Y-142500D02*
X2060000Y-362500D01*
X2060000Y-142500D02*
X1840000Y-362500D01*
X140000Y-140000D02*
X360000Y-360000D01*
X360000Y-140000D02*
X140000Y-360000D01*
X140000Y-2640000D02*
X360000Y-2860000D01*
X360000Y-2640000D02*
X140000Y-2860000D01*
X1840000Y-2640000D02*
X2060000Y-2860000D01*
X2060000Y-2640000D02*
X1840000Y-2860000D01*
D12*
X283928Y-3468214D02*
X283928Y-3168214D01*
X355357Y-3168214D01*
X398214Y-3182500D01*
X426786Y-3211071D01*
X441071Y-3239643D01*
X455357Y-3296786D01*
X455357Y-3339643D01*
X441071Y-3396786D01*
X426786Y-3425357D01*
X398214Y-3453929D01*
X355357Y-3468214D01*
X283928Y-3468214D01*
X583928Y-3468214D02*
X583928Y-3268214D01*
X583928Y-3325357D02*
X598214Y-3296786D01*
X612500Y-3282500D01*
X641071Y-3268214D01*
X669643Y-3268214D01*
X769643Y-3468214D02*
X769643Y-3268214D01*
X769643Y-3168214D02*
X755357Y-3182500D01*
X769643Y-3196786D01*
X783928Y-3182500D01*
X769643Y-3168214D01*
X769643Y-3196786D01*
X955357Y-3468214D02*
X926786Y-3453929D01*
X912500Y-3425357D01*
X912500Y-3168214D01*
X1112500Y-3468214D02*
X1083928Y-3453929D01*
X1069643Y-3425357D01*
X1069643Y-3168214D01*
X1455357Y-3468214D02*
X1455357Y-3168214D01*
X1555357Y-3382500D01*
X1655357Y-3168214D01*
X1655357Y-3468214D01*
X1926786Y-3468214D02*
X1926786Y-3311071D01*
X1912500Y-3282500D01*
X1883928Y-3268214D01*
X1826786Y-3268214D01*
X1798214Y-3282500D01*
X1926786Y-3453929D02*
X1898214Y-3468214D01*
X1826786Y-3468214D01*
X1798214Y-3453929D01*
X1783928Y-3425357D01*
X1783928Y-3396786D01*
X1798214Y-3368214D01*
X1826786Y-3353929D01*
X1898214Y-3353929D01*
X1926786Y-3339643D01*
X2069643Y-3268214D02*
X2069643Y-3568214D01*
X2069643Y-3282500D02*
X2098214Y-3268214D01*
X2155357Y-3268214D01*
X2183928Y-3282500D01*
X2198214Y-3296786D01*
X2212500Y-3325357D01*
X2212500Y-3411071D01*
X2198214Y-3439643D01*
X2183928Y-3453929D01*
X2155357Y-3468214D01*
X2098214Y-3468214D01*
X2069643Y-3453929D01*
X2341071Y-3439643D02*
X2355357Y-3453929D01*
X2341071Y-3468214D01*
X2326786Y-3453929D01*
X2341071Y-3439643D01*
X2341071Y-3468214D01*
X2341071Y-3282500D02*
X2355357Y-3296786D01*
X2341071Y-3311071D01*
X2326786Y-3296786D01*
X2341071Y-3282500D01*
X2341071Y-3311071D01*
X-222500Y-3852500D02*
X-2500Y-4072500D01*
X-2500Y-3852500D02*
X-222500Y-4072500D01*
X269643Y-3826786D02*
X283928Y-3812500D01*
X312500Y-3798214D01*
X383928Y-3798214D01*
X412500Y-3812500D01*
X426786Y-3826786D01*
X441071Y-3855357D01*
X441071Y-3883929D01*
X426786Y-3926786D01*
X255357Y-4098214D01*
X441071Y-4098214D01*
X569643Y-4069643D02*
X583928Y-4083929D01*
X569643Y-4098214D01*
X555357Y-4083929D01*
X569643Y-4069643D01*
X569643Y-4098214D01*
X698214Y-3826786D02*
X712500Y-3812500D01*
X741071Y-3798214D01*
X812500Y-3798214D01*
X841071Y-3812500D01*
X855357Y-3826786D01*
X869643Y-3855357D01*
X869643Y-3883929D01*
X855357Y-3926786D01*
X683928Y-4098214D01*
X869643Y-4098214D01*
X1055357Y-3798214D02*
X1083928Y-3798214D01*
X1112500Y-3812500D01*
X1126786Y-3826786D01*
X1141071Y-3855357D01*
X1155357Y-3912500D01*
X1155357Y-3983929D01*
X1141071Y-4041071D01*
X1126786Y-4069643D01*
X1112500Y-4083929D01*
X1083928Y-4098214D01*
X1055357Y-4098214D01*
X1026786Y-4083929D01*
X1012500Y-4069643D01*
X998214Y-4041071D01*
X983928Y-3983929D01*
X983928Y-3912500D01*
X998214Y-3855357D01*
X1012500Y-3826786D01*
X1026786Y-3812500D01*
X1055357Y-3798214D01*
X1283928Y-4098214D02*
X1283928Y-3898214D01*
X1283928Y-3926786D02*
X1298214Y-3912500D01*
X1326786Y-3898214D01*
X1369643Y-3898214D01*
X1398214Y-3912500D01*
X1412500Y-3941071D01*
X1412500Y-4098214D01*
X1412500Y-3941071D02*
X1426786Y-3912500D01*
X1455357Y-3898214D01*
X1498214Y-3898214D01*
X1526786Y-3912500D01*
X1541071Y-3941071D01*
X1541071Y-4098214D01*
X1683928Y-4098214D02*
X1683928Y-3898214D01*
X1683928Y-3926786D02*
X1698214Y-3912500D01*
X1726786Y-3898214D01*
X1769643Y-3898214D01*
X1798214Y-3912500D01*
X1812500Y-3941071D01*
X1812500Y-4098214D01*
X1812500Y-3941071D02*
X1826786Y-3912500D01*
X1855357Y-3898214D01*
X1898214Y-3898214D01*
X1926786Y-3912500D01*
X1941071Y-3941071D01*
X1941071Y-4098214D01*
X2526786Y-3783929D02*
X2269643Y-4169643D01*
X2912500Y-3798214D02*
X2941071Y-3798214D01*
X2969643Y-3812500D01*
X2983928Y-3826786D01*
X2998214Y-3855357D01*
X3012500Y-3912500D01*
X3012500Y-3983929D01*
X2998214Y-4041071D01*
X2983928Y-4069643D01*
X2969643Y-4083929D01*
X2941071Y-4098214D01*
X2912500Y-4098214D01*
X2883928Y-4083929D01*
X2869643Y-4069643D01*
X2855357Y-4041071D01*
X2841071Y-3983929D01*
X2841071Y-3912500D01*
X2855357Y-3855357D01*
X2869643Y-3826786D01*
X2883928Y-3812500D01*
X2912500Y-3798214D01*
X3141071Y-4069643D02*
X3155357Y-4083929D01*
X3141071Y-4098214D01*
X3126786Y-4083929D01*
X3141071Y-4069643D01*
X3141071Y-4098214D01*
X3341071Y-3798214D02*
X3369643Y-3798214D01*
X3398214Y-3812500D01*
X3412500Y-3826786D01*
X3426786Y-3855357D01*
X3441071Y-3912500D01*
X3441071Y-3983929D01*
X3426786Y-4041071D01*
X3412500Y-4069643D01*
X3398214Y-4083929D01*
X3369643Y-4098214D01*
X3341071Y-4098214D01*
X3312500Y-4083929D01*
X3298214Y-4069643D01*
X3283928Y-4041071D01*
X3269643Y-3983929D01*
X3269643Y-3912500D01*
X3283928Y-3855357D01*
X3298214Y-3826786D01*
X3312500Y-3812500D01*
X3341071Y-3798214D01*
X3612500Y-3926786D02*
X3583928Y-3912500D01*
X3569643Y-3898214D01*
X3555357Y-3869643D01*
X3555357Y-3855357D01*
X3569643Y-3826786D01*
X3583928Y-3812500D01*
X3612500Y-3798214D01*
X3669643Y-3798214D01*
X3698214Y-3812500D01*
X3712500Y-3826786D01*
X3726786Y-3855357D01*
X3726786Y-3869643D01*
X3712500Y-3898214D01*
X3698214Y-3912500D01*
X3669643Y-3926786D01*
X3612500Y-3926786D01*
X3583928Y-3941071D01*
X3569643Y-3955357D01*
X3555357Y-3983929D01*
X3555357Y-4041071D01*
X3569643Y-4069643D01*
X3583928Y-4083929D01*
X3612500Y-4098214D01*
X3669643Y-4098214D01*
X3698214Y-4083929D01*
X3712500Y-4069643D01*
X3726786Y-4041071D01*
X3726786Y-3983929D01*
X3712500Y-3955357D01*
X3698214Y-3941071D01*
X3669643Y-3926786D01*
X3826786Y-3798214D02*
X4026786Y-3798214D01*
X3898214Y-4098214D01*
X4126786Y-3798214D02*
X4126786Y-3855357D01*
X4241071Y-3798214D02*
X4241071Y-3855357D01*
X4683928Y-4212500D02*
X4669643Y-4198214D01*
X4641071Y-4155357D01*
X4626786Y-4126786D01*
X4612500Y-4083929D01*
X4598214Y-4012500D01*
X4598214Y-3955357D01*
X4612500Y-3883929D01*
X4626786Y-3841071D01*
X4641071Y-3812500D01*
X4669643Y-3769643D01*
X4683928Y-3755357D01*
X4926786Y-3898214D02*
X4926786Y-4098214D01*
X4855357Y-3783929D02*
X4783928Y-3998214D01*
X4969643Y-3998214D01*
X5312500Y-4098214D02*
X5312500Y-3798214D01*
X5441071Y-4098214D02*
X5441071Y-3941071D01*
X5426786Y-3912500D01*
X5398214Y-3898214D01*
X5355357Y-3898214D01*
X5326786Y-3912500D01*
X5312500Y-3926786D01*
X5626786Y-4098214D02*
X5598214Y-4083929D01*
X5583928Y-4069643D01*
X5569643Y-4041071D01*
X5569643Y-3955357D01*
X5583928Y-3926786D01*
X5598214Y-3912500D01*
X5626786Y-3898214D01*
X5669643Y-3898214D01*
X5698214Y-3912500D01*
X5712500Y-3926786D01*
X5726786Y-3955357D01*
X5726786Y-4041071D01*
X5712500Y-4069643D01*
X5698214Y-4083929D01*
X5669643Y-4098214D01*
X5626786Y-4098214D01*
X5898214Y-4098214D02*
X5869643Y-4083929D01*
X5855357Y-4055357D01*
X5855357Y-3798214D01*
X6126786Y-4083929D02*
X6098214Y-4098214D01*
X6041071Y-4098214D01*
X6012500Y-4083929D01*
X5998214Y-4055357D01*
X5998214Y-3941071D01*
X6012500Y-3912500D01*
X6041071Y-3898214D01*
X6098214Y-3898214D01*
X6126786Y-3912500D01*
X6141071Y-3941071D01*
X6141071Y-3969643D01*
X5998214Y-3998214D01*
X6255357Y-4083929D02*
X6283928Y-4098214D01*
X6341071Y-4098214D01*
X6369643Y-4083929D01*
X6383928Y-4055357D01*
X6383928Y-4041071D01*
X6369643Y-4012500D01*
X6341071Y-3998214D01*
X6298214Y-3998214D01*
X6269643Y-3983929D01*
X6255357Y-3955357D01*
X6255357Y-3941071D01*
X6269643Y-3912500D01*
X6298214Y-3898214D01*
X6341071Y-3898214D01*
X6369643Y-3912500D01*
X6483928Y-4212500D02*
X6498214Y-4198214D01*
X6526786Y-4155357D01*
X6541071Y-4126786D01*
X6555357Y-4083929D01*
X6569643Y-4012500D01*
X6569643Y-3955357D01*
X6555357Y-3883929D01*
X6541071Y-3841071D01*
X6526786Y-3812500D01*
X6498214Y-3769643D01*
X6483928Y-3755357D01*
X7026786Y-4212500D02*
X7012500Y-4198214D01*
X6983928Y-4155357D01*
X6969643Y-4126786D01*
X6955357Y-4083929D01*
X6941071Y-4012500D01*
X6941071Y-3955357D01*
X6955357Y-3883929D01*
X6969643Y-3841071D01*
X6983928Y-3812500D01*
X7012500Y-3769643D01*
X7026786Y-3755357D01*
X7141071Y-3898214D02*
X7141071Y-4098214D01*
X7141071Y-3926786D02*
X7155357Y-3912500D01*
X7183928Y-3898214D01*
X7226786Y-3898214D01*
X7255357Y-3912500D01*
X7269643Y-3941071D01*
X7269643Y-4098214D01*
X7455357Y-4098214D02*
X7426786Y-4083929D01*
X7412500Y-4069643D01*
X7398214Y-4041071D01*
X7398214Y-3955357D01*
X7412500Y-3926786D01*
X7426786Y-3912500D01*
X7455357Y-3898214D01*
X7498214Y-3898214D01*
X7526786Y-3912500D01*
X7541071Y-3926786D01*
X7555357Y-3955357D01*
X7555357Y-4041071D01*
X7541071Y-4069643D01*
X7526786Y-4083929D01*
X7498214Y-4098214D01*
X7455357Y-4098214D01*
X7641071Y-3898214D02*
X7755357Y-3898214D01*
X7683928Y-3798214D02*
X7683928Y-4055357D01*
X7698214Y-4083929D01*
X7726786Y-4098214D01*
X7755357Y-4098214D01*
X8083928Y-3898214D02*
X8083928Y-4198214D01*
X8083928Y-3912500D02*
X8112500Y-3898214D01*
X8169643Y-3898214D01*
X8198214Y-3912500D01*
X8212500Y-3926786D01*
X8226786Y-3955357D01*
X8226786Y-4041071D01*
X8212500Y-4069643D01*
X8198214Y-4083929D01*
X8169643Y-4098214D01*
X8112500Y-4098214D01*
X8083928Y-4083929D01*
X8398214Y-4098214D02*
X8369643Y-4083929D01*
X8355357Y-4055357D01*
X8355357Y-3798214D01*
X8641071Y-4098214D02*
X8641071Y-3941071D01*
X8626786Y-3912500D01*
X8598214Y-3898214D01*
X8541071Y-3898214D01*
X8512500Y-3912500D01*
X8641071Y-4083929D02*
X8612500Y-4098214D01*
X8541071Y-4098214D01*
X8512500Y-4083929D01*
X8498214Y-4055357D01*
X8498214Y-4026786D01*
X8512500Y-3998214D01*
X8541071Y-3983929D01*
X8612500Y-3983929D01*
X8641071Y-3969643D01*
X8741071Y-3898214D02*
X8855357Y-3898214D01*
X8783928Y-3798214D02*
X8783928Y-4055357D01*
X8798214Y-4083929D01*
X8826786Y-4098214D01*
X8855357Y-4098214D01*
X9069643Y-4083929D02*
X9041071Y-4098214D01*
X8983928Y-4098214D01*
X8955357Y-4083929D01*
X8941071Y-4055357D01*
X8941071Y-3941071D01*
X8955357Y-3912500D01*
X8983928Y-3898214D01*
X9041071Y-3898214D01*
X9069643Y-3912500D01*
X9083928Y-3941071D01*
X9083928Y-3969643D01*
X8941071Y-3998214D01*
X9341071Y-4098214D02*
X9341071Y-3798214D01*
X9341071Y-4083929D02*
X9312500Y-4098214D01*
X9255357Y-4098214D01*
X9226786Y-4083929D01*
X9212500Y-4069643D01*
X9198214Y-4041071D01*
X9198214Y-3955357D01*
X9212500Y-3926786D01*
X9226786Y-3912500D01*
X9255357Y-3898214D01*
X9312500Y-3898214D01*
X9341071Y-3912500D01*
X9455357Y-4212500D02*
X9469643Y-4198214D01*
X9498214Y-4155357D01*
X9512500Y-4126786D01*
X9526786Y-4083929D01*
X9541071Y-4012500D01*
X9541071Y-3955357D01*
X9526786Y-3883929D01*
X9512500Y-3841071D01*
X9498214Y-3812500D01*
X9469643Y-3769643D01*
X9455357Y-3755357D01*
M02*
