G04 #@! TF.GenerationSoftware,KiCad,Pcbnew,(5.1.5)-3*
G04 #@! TF.CreationDate,2021-07-20T23:34:01+09:00*
G04 #@! TF.ProjectId,pmw3360,706d7733-3336-4302-9e6b-696361645f70,rev?*
G04 #@! TF.SameCoordinates,PX5b136e0PY4bcb138*
G04 #@! TF.FileFunction,Paste,Top*
G04 #@! TF.FilePolarity,Positive*
%FSLAX46Y46*%
G04 Gerber Fmt 4.6, Leading zero omitted, Abs format (unit mm)*
G04 Created by KiCad (PCBNEW (5.1.5)-3) date 2021-07-20 23:34:01*
%MOMM*%
%LPD*%
G04 APERTURE LIST*
%ADD10R,0.800000X0.550000*%
%ADD11C,0.100000*%
%ADD12R,0.400000X0.650000*%
%ADD13R,0.250000X0.150000*%
%ADD14R,0.600000X0.200000*%
%ADD15R,0.200000X0.600000*%
G04 APERTURE END LIST*
D10*
X12200000Y-28350000D03*
X12200000Y-26450000D03*
X14600000Y-26450000D03*
X14600000Y-27400000D03*
X14600000Y-28350000D03*
D11*
G36*
X16427692Y-26163553D02*
G01*
X16448927Y-26166703D01*
X16469751Y-26171919D01*
X16489963Y-26179151D01*
X16509369Y-26188330D01*
X16527782Y-26199366D01*
X16545025Y-26212154D01*
X16560931Y-26226570D01*
X16575347Y-26242476D01*
X16588135Y-26259719D01*
X16599171Y-26278132D01*
X16608350Y-26297538D01*
X16615582Y-26317750D01*
X16620798Y-26338574D01*
X16623948Y-26359809D01*
X16625001Y-26381250D01*
X16625001Y-26818750D01*
X16623948Y-26840191D01*
X16620798Y-26861426D01*
X16615582Y-26882250D01*
X16608350Y-26902462D01*
X16599171Y-26921868D01*
X16588135Y-26940281D01*
X16575347Y-26957524D01*
X16560931Y-26973430D01*
X16545025Y-26987846D01*
X16527782Y-27000634D01*
X16509369Y-27011670D01*
X16489963Y-27020849D01*
X16469751Y-27028081D01*
X16448927Y-27033297D01*
X16427692Y-27036447D01*
X16406251Y-27037500D01*
X15893751Y-27037500D01*
X15872310Y-27036447D01*
X15851075Y-27033297D01*
X15830251Y-27028081D01*
X15810039Y-27020849D01*
X15790633Y-27011670D01*
X15772220Y-27000634D01*
X15754977Y-26987846D01*
X15739071Y-26973430D01*
X15724655Y-26957524D01*
X15711867Y-26940281D01*
X15700831Y-26921868D01*
X15691652Y-26902462D01*
X15684420Y-26882250D01*
X15679204Y-26861426D01*
X15676054Y-26840191D01*
X15675001Y-26818750D01*
X15675001Y-26381250D01*
X15676054Y-26359809D01*
X15679204Y-26338574D01*
X15684420Y-26317750D01*
X15691652Y-26297538D01*
X15700831Y-26278132D01*
X15711867Y-26259719D01*
X15724655Y-26242476D01*
X15739071Y-26226570D01*
X15754977Y-26212154D01*
X15772220Y-26199366D01*
X15790633Y-26188330D01*
X15810039Y-26179151D01*
X15830251Y-26171919D01*
X15851075Y-26166703D01*
X15872310Y-26163553D01*
X15893751Y-26162500D01*
X16406251Y-26162500D01*
X16427692Y-26163553D01*
G37*
G36*
X16427692Y-27738553D02*
G01*
X16448927Y-27741703D01*
X16469751Y-27746919D01*
X16489963Y-27754151D01*
X16509369Y-27763330D01*
X16527782Y-27774366D01*
X16545025Y-27787154D01*
X16560931Y-27801570D01*
X16575347Y-27817476D01*
X16588135Y-27834719D01*
X16599171Y-27853132D01*
X16608350Y-27872538D01*
X16615582Y-27892750D01*
X16620798Y-27913574D01*
X16623948Y-27934809D01*
X16625001Y-27956250D01*
X16625001Y-28393750D01*
X16623948Y-28415191D01*
X16620798Y-28436426D01*
X16615582Y-28457250D01*
X16608350Y-28477462D01*
X16599171Y-28496868D01*
X16588135Y-28515281D01*
X16575347Y-28532524D01*
X16560931Y-28548430D01*
X16545025Y-28562846D01*
X16527782Y-28575634D01*
X16509369Y-28586670D01*
X16489963Y-28595849D01*
X16469751Y-28603081D01*
X16448927Y-28608297D01*
X16427692Y-28611447D01*
X16406251Y-28612500D01*
X15893751Y-28612500D01*
X15872310Y-28611447D01*
X15851075Y-28608297D01*
X15830251Y-28603081D01*
X15810039Y-28595849D01*
X15790633Y-28586670D01*
X15772220Y-28575634D01*
X15754977Y-28562846D01*
X15739071Y-28548430D01*
X15724655Y-28532524D01*
X15711867Y-28515281D01*
X15700831Y-28496868D01*
X15691652Y-28477462D01*
X15684420Y-28457250D01*
X15679204Y-28436426D01*
X15676054Y-28415191D01*
X15675001Y-28393750D01*
X15675001Y-27956250D01*
X15676054Y-27934809D01*
X15679204Y-27913574D01*
X15684420Y-27892750D01*
X15691652Y-27872538D01*
X15700831Y-27853132D01*
X15711867Y-27834719D01*
X15724655Y-27817476D01*
X15739071Y-27801570D01*
X15754977Y-27787154D01*
X15772220Y-27774366D01*
X15790633Y-27763330D01*
X15810039Y-27754151D01*
X15830251Y-27746919D01*
X15851075Y-27741703D01*
X15872310Y-27738553D01*
X15893751Y-27737500D01*
X16406251Y-27737500D01*
X16427692Y-27738553D01*
G37*
G36*
X18477691Y-10938553D02*
G01*
X18498926Y-10941703D01*
X18519750Y-10946919D01*
X18539962Y-10954151D01*
X18559368Y-10963330D01*
X18577781Y-10974366D01*
X18595024Y-10987154D01*
X18610930Y-11001570D01*
X18625346Y-11017476D01*
X18638134Y-11034719D01*
X18649170Y-11053132D01*
X18658349Y-11072538D01*
X18665581Y-11092750D01*
X18670797Y-11113574D01*
X18673947Y-11134809D01*
X18675000Y-11156250D01*
X18675000Y-11593750D01*
X18673947Y-11615191D01*
X18670797Y-11636426D01*
X18665581Y-11657250D01*
X18658349Y-11677462D01*
X18649170Y-11696868D01*
X18638134Y-11715281D01*
X18625346Y-11732524D01*
X18610930Y-11748430D01*
X18595024Y-11762846D01*
X18577781Y-11775634D01*
X18559368Y-11786670D01*
X18539962Y-11795849D01*
X18519750Y-11803081D01*
X18498926Y-11808297D01*
X18477691Y-11811447D01*
X18456250Y-11812500D01*
X17943750Y-11812500D01*
X17922309Y-11811447D01*
X17901074Y-11808297D01*
X17880250Y-11803081D01*
X17860038Y-11795849D01*
X17840632Y-11786670D01*
X17822219Y-11775634D01*
X17804976Y-11762846D01*
X17789070Y-11748430D01*
X17774654Y-11732524D01*
X17761866Y-11715281D01*
X17750830Y-11696868D01*
X17741651Y-11677462D01*
X17734419Y-11657250D01*
X17729203Y-11636426D01*
X17726053Y-11615191D01*
X17725000Y-11593750D01*
X17725000Y-11156250D01*
X17726053Y-11134809D01*
X17729203Y-11113574D01*
X17734419Y-11092750D01*
X17741651Y-11072538D01*
X17750830Y-11053132D01*
X17761866Y-11034719D01*
X17774654Y-11017476D01*
X17789070Y-11001570D01*
X17804976Y-10987154D01*
X17822219Y-10974366D01*
X17840632Y-10963330D01*
X17860038Y-10954151D01*
X17880250Y-10946919D01*
X17901074Y-10941703D01*
X17922309Y-10938553D01*
X17943750Y-10937500D01*
X18456250Y-10937500D01*
X18477691Y-10938553D01*
G37*
G36*
X18477691Y-12513553D02*
G01*
X18498926Y-12516703D01*
X18519750Y-12521919D01*
X18539962Y-12529151D01*
X18559368Y-12538330D01*
X18577781Y-12549366D01*
X18595024Y-12562154D01*
X18610930Y-12576570D01*
X18625346Y-12592476D01*
X18638134Y-12609719D01*
X18649170Y-12628132D01*
X18658349Y-12647538D01*
X18665581Y-12667750D01*
X18670797Y-12688574D01*
X18673947Y-12709809D01*
X18675000Y-12731250D01*
X18675000Y-13168750D01*
X18673947Y-13190191D01*
X18670797Y-13211426D01*
X18665581Y-13232250D01*
X18658349Y-13252462D01*
X18649170Y-13271868D01*
X18638134Y-13290281D01*
X18625346Y-13307524D01*
X18610930Y-13323430D01*
X18595024Y-13337846D01*
X18577781Y-13350634D01*
X18559368Y-13361670D01*
X18539962Y-13370849D01*
X18519750Y-13378081D01*
X18498926Y-13383297D01*
X18477691Y-13386447D01*
X18456250Y-13387500D01*
X17943750Y-13387500D01*
X17922309Y-13386447D01*
X17901074Y-13383297D01*
X17880250Y-13378081D01*
X17860038Y-13370849D01*
X17840632Y-13361670D01*
X17822219Y-13350634D01*
X17804976Y-13337846D01*
X17789070Y-13323430D01*
X17774654Y-13307524D01*
X17761866Y-13290281D01*
X17750830Y-13271868D01*
X17741651Y-13252462D01*
X17734419Y-13232250D01*
X17729203Y-13211426D01*
X17726053Y-13190191D01*
X17725000Y-13168750D01*
X17725000Y-12731250D01*
X17726053Y-12709809D01*
X17729203Y-12688574D01*
X17734419Y-12667750D01*
X17741651Y-12647538D01*
X17750830Y-12628132D01*
X17761866Y-12609719D01*
X17774654Y-12592476D01*
X17789070Y-12576570D01*
X17804976Y-12562154D01*
X17822219Y-12549366D01*
X17840632Y-12538330D01*
X17860038Y-12529151D01*
X17880250Y-12521919D01*
X17901074Y-12516703D01*
X17922309Y-12513553D01*
X17943750Y-12512500D01*
X18456250Y-12512500D01*
X18477691Y-12513553D01*
G37*
G36*
X9227691Y-27738553D02*
G01*
X9248926Y-27741703D01*
X9269750Y-27746919D01*
X9289962Y-27754151D01*
X9309368Y-27763330D01*
X9327781Y-27774366D01*
X9345024Y-27787154D01*
X9360930Y-27801570D01*
X9375346Y-27817476D01*
X9388134Y-27834719D01*
X9399170Y-27853132D01*
X9408349Y-27872538D01*
X9415581Y-27892750D01*
X9420797Y-27913574D01*
X9423947Y-27934809D01*
X9425000Y-27956250D01*
X9425000Y-28393750D01*
X9423947Y-28415191D01*
X9420797Y-28436426D01*
X9415581Y-28457250D01*
X9408349Y-28477462D01*
X9399170Y-28496868D01*
X9388134Y-28515281D01*
X9375346Y-28532524D01*
X9360930Y-28548430D01*
X9345024Y-28562846D01*
X9327781Y-28575634D01*
X9309368Y-28586670D01*
X9289962Y-28595849D01*
X9269750Y-28603081D01*
X9248926Y-28608297D01*
X9227691Y-28611447D01*
X9206250Y-28612500D01*
X8693750Y-28612500D01*
X8672309Y-28611447D01*
X8651074Y-28608297D01*
X8630250Y-28603081D01*
X8610038Y-28595849D01*
X8590632Y-28586670D01*
X8572219Y-28575634D01*
X8554976Y-28562846D01*
X8539070Y-28548430D01*
X8524654Y-28532524D01*
X8511866Y-28515281D01*
X8500830Y-28496868D01*
X8491651Y-28477462D01*
X8484419Y-28457250D01*
X8479203Y-28436426D01*
X8476053Y-28415191D01*
X8475000Y-28393750D01*
X8475000Y-27956250D01*
X8476053Y-27934809D01*
X8479203Y-27913574D01*
X8484419Y-27892750D01*
X8491651Y-27872538D01*
X8500830Y-27853132D01*
X8511866Y-27834719D01*
X8524654Y-27817476D01*
X8539070Y-27801570D01*
X8554976Y-27787154D01*
X8572219Y-27774366D01*
X8590632Y-27763330D01*
X8610038Y-27754151D01*
X8630250Y-27746919D01*
X8651074Y-27741703D01*
X8672309Y-27738553D01*
X8693750Y-27737500D01*
X9206250Y-27737500D01*
X9227691Y-27738553D01*
G37*
G36*
X9227691Y-26163553D02*
G01*
X9248926Y-26166703D01*
X9269750Y-26171919D01*
X9289962Y-26179151D01*
X9309368Y-26188330D01*
X9327781Y-26199366D01*
X9345024Y-26212154D01*
X9360930Y-26226570D01*
X9375346Y-26242476D01*
X9388134Y-26259719D01*
X9399170Y-26278132D01*
X9408349Y-26297538D01*
X9415581Y-26317750D01*
X9420797Y-26338574D01*
X9423947Y-26359809D01*
X9425000Y-26381250D01*
X9425000Y-26818750D01*
X9423947Y-26840191D01*
X9420797Y-26861426D01*
X9415581Y-26882250D01*
X9408349Y-26902462D01*
X9399170Y-26921868D01*
X9388134Y-26940281D01*
X9375346Y-26957524D01*
X9360930Y-26973430D01*
X9345024Y-26987846D01*
X9327781Y-27000634D01*
X9309368Y-27011670D01*
X9289962Y-27020849D01*
X9269750Y-27028081D01*
X9248926Y-27033297D01*
X9227691Y-27036447D01*
X9206250Y-27037500D01*
X8693750Y-27037500D01*
X8672309Y-27036447D01*
X8651074Y-27033297D01*
X8630250Y-27028081D01*
X8610038Y-27020849D01*
X8590632Y-27011670D01*
X8572219Y-27000634D01*
X8554976Y-26987846D01*
X8539070Y-26973430D01*
X8524654Y-26957524D01*
X8511866Y-26940281D01*
X8500830Y-26921868D01*
X8491651Y-26902462D01*
X8484419Y-26882250D01*
X8479203Y-26861426D01*
X8476053Y-26840191D01*
X8475000Y-26818750D01*
X8475000Y-26381250D01*
X8476053Y-26359809D01*
X8479203Y-26338574D01*
X8484419Y-26317750D01*
X8491651Y-26297538D01*
X8500830Y-26278132D01*
X8511866Y-26259719D01*
X8524654Y-26242476D01*
X8539070Y-26226570D01*
X8554976Y-26212154D01*
X8572219Y-26199366D01*
X8590632Y-26188330D01*
X8610038Y-26179151D01*
X8630250Y-26171919D01*
X8651074Y-26166703D01*
X8672309Y-26163553D01*
X8693750Y-26162500D01*
X9206250Y-26162500D01*
X9227691Y-26163553D01*
G37*
G36*
X1627691Y-5738553D02*
G01*
X1648926Y-5741703D01*
X1669750Y-5746919D01*
X1689962Y-5754151D01*
X1709368Y-5763330D01*
X1727781Y-5774366D01*
X1745024Y-5787154D01*
X1760930Y-5801570D01*
X1775346Y-5817476D01*
X1788134Y-5834719D01*
X1799170Y-5853132D01*
X1808349Y-5872538D01*
X1815581Y-5892750D01*
X1820797Y-5913574D01*
X1823947Y-5934809D01*
X1825000Y-5956250D01*
X1825000Y-6393750D01*
X1823947Y-6415191D01*
X1820797Y-6436426D01*
X1815581Y-6457250D01*
X1808349Y-6477462D01*
X1799170Y-6496868D01*
X1788134Y-6515281D01*
X1775346Y-6532524D01*
X1760930Y-6548430D01*
X1745024Y-6562846D01*
X1727781Y-6575634D01*
X1709368Y-6586670D01*
X1689962Y-6595849D01*
X1669750Y-6603081D01*
X1648926Y-6608297D01*
X1627691Y-6611447D01*
X1606250Y-6612500D01*
X1093750Y-6612500D01*
X1072309Y-6611447D01*
X1051074Y-6608297D01*
X1030250Y-6603081D01*
X1010038Y-6595849D01*
X990632Y-6586670D01*
X972219Y-6575634D01*
X954976Y-6562846D01*
X939070Y-6548430D01*
X924654Y-6532524D01*
X911866Y-6515281D01*
X900830Y-6496868D01*
X891651Y-6477462D01*
X884419Y-6457250D01*
X879203Y-6436426D01*
X876053Y-6415191D01*
X875000Y-6393750D01*
X875000Y-5956250D01*
X876053Y-5934809D01*
X879203Y-5913574D01*
X884419Y-5892750D01*
X891651Y-5872538D01*
X900830Y-5853132D01*
X911866Y-5834719D01*
X924654Y-5817476D01*
X939070Y-5801570D01*
X954976Y-5787154D01*
X972219Y-5774366D01*
X990632Y-5763330D01*
X1010038Y-5754151D01*
X1030250Y-5746919D01*
X1051074Y-5741703D01*
X1072309Y-5738553D01*
X1093750Y-5737500D01*
X1606250Y-5737500D01*
X1627691Y-5738553D01*
G37*
G36*
X1627691Y-7313553D02*
G01*
X1648926Y-7316703D01*
X1669750Y-7321919D01*
X1689962Y-7329151D01*
X1709368Y-7338330D01*
X1727781Y-7349366D01*
X1745024Y-7362154D01*
X1760930Y-7376570D01*
X1775346Y-7392476D01*
X1788134Y-7409719D01*
X1799170Y-7428132D01*
X1808349Y-7447538D01*
X1815581Y-7467750D01*
X1820797Y-7488574D01*
X1823947Y-7509809D01*
X1825000Y-7531250D01*
X1825000Y-7968750D01*
X1823947Y-7990191D01*
X1820797Y-8011426D01*
X1815581Y-8032250D01*
X1808349Y-8052462D01*
X1799170Y-8071868D01*
X1788134Y-8090281D01*
X1775346Y-8107524D01*
X1760930Y-8123430D01*
X1745024Y-8137846D01*
X1727781Y-8150634D01*
X1709368Y-8161670D01*
X1689962Y-8170849D01*
X1669750Y-8178081D01*
X1648926Y-8183297D01*
X1627691Y-8186447D01*
X1606250Y-8187500D01*
X1093750Y-8187500D01*
X1072309Y-8186447D01*
X1051074Y-8183297D01*
X1030250Y-8178081D01*
X1010038Y-8170849D01*
X990632Y-8161670D01*
X972219Y-8150634D01*
X954976Y-8137846D01*
X939070Y-8123430D01*
X924654Y-8107524D01*
X911866Y-8090281D01*
X900830Y-8071868D01*
X891651Y-8052462D01*
X884419Y-8032250D01*
X879203Y-8011426D01*
X876053Y-7990191D01*
X875000Y-7968750D01*
X875000Y-7531250D01*
X876053Y-7509809D01*
X879203Y-7488574D01*
X884419Y-7467750D01*
X891651Y-7447538D01*
X900830Y-7428132D01*
X911866Y-7409719D01*
X924654Y-7392476D01*
X939070Y-7376570D01*
X954976Y-7362154D01*
X972219Y-7349366D01*
X990632Y-7338330D01*
X1010038Y-7329151D01*
X1030250Y-7321919D01*
X1051074Y-7316703D01*
X1072309Y-7313553D01*
X1093750Y-7312500D01*
X1606250Y-7312500D01*
X1627691Y-7313553D01*
G37*
G36*
X1927691Y-12863553D02*
G01*
X1948926Y-12866703D01*
X1969750Y-12871919D01*
X1989962Y-12879151D01*
X2009368Y-12888330D01*
X2027781Y-12899366D01*
X2045024Y-12912154D01*
X2060930Y-12926570D01*
X2075346Y-12942476D01*
X2088134Y-12959719D01*
X2099170Y-12978132D01*
X2108349Y-12997538D01*
X2115581Y-13017750D01*
X2120797Y-13038574D01*
X2123947Y-13059809D01*
X2125000Y-13081250D01*
X2125000Y-13518750D01*
X2123947Y-13540191D01*
X2120797Y-13561426D01*
X2115581Y-13582250D01*
X2108349Y-13602462D01*
X2099170Y-13621868D01*
X2088134Y-13640281D01*
X2075346Y-13657524D01*
X2060930Y-13673430D01*
X2045024Y-13687846D01*
X2027781Y-13700634D01*
X2009368Y-13711670D01*
X1989962Y-13720849D01*
X1969750Y-13728081D01*
X1948926Y-13733297D01*
X1927691Y-13736447D01*
X1906250Y-13737500D01*
X1393750Y-13737500D01*
X1372309Y-13736447D01*
X1351074Y-13733297D01*
X1330250Y-13728081D01*
X1310038Y-13720849D01*
X1290632Y-13711670D01*
X1272219Y-13700634D01*
X1254976Y-13687846D01*
X1239070Y-13673430D01*
X1224654Y-13657524D01*
X1211866Y-13640281D01*
X1200830Y-13621868D01*
X1191651Y-13602462D01*
X1184419Y-13582250D01*
X1179203Y-13561426D01*
X1176053Y-13540191D01*
X1175000Y-13518750D01*
X1175000Y-13081250D01*
X1176053Y-13059809D01*
X1179203Y-13038574D01*
X1184419Y-13017750D01*
X1191651Y-12997538D01*
X1200830Y-12978132D01*
X1211866Y-12959719D01*
X1224654Y-12942476D01*
X1239070Y-12926570D01*
X1254976Y-12912154D01*
X1272219Y-12899366D01*
X1290632Y-12888330D01*
X1310038Y-12879151D01*
X1330250Y-12871919D01*
X1351074Y-12866703D01*
X1372309Y-12863553D01*
X1393750Y-12862500D01*
X1906250Y-12862500D01*
X1927691Y-12863553D01*
G37*
G36*
X1927691Y-14438553D02*
G01*
X1948926Y-14441703D01*
X1969750Y-14446919D01*
X1989962Y-14454151D01*
X2009368Y-14463330D01*
X2027781Y-14474366D01*
X2045024Y-14487154D01*
X2060930Y-14501570D01*
X2075346Y-14517476D01*
X2088134Y-14534719D01*
X2099170Y-14553132D01*
X2108349Y-14572538D01*
X2115581Y-14592750D01*
X2120797Y-14613574D01*
X2123947Y-14634809D01*
X2125000Y-14656250D01*
X2125000Y-15093750D01*
X2123947Y-15115191D01*
X2120797Y-15136426D01*
X2115581Y-15157250D01*
X2108349Y-15177462D01*
X2099170Y-15196868D01*
X2088134Y-15215281D01*
X2075346Y-15232524D01*
X2060930Y-15248430D01*
X2045024Y-15262846D01*
X2027781Y-15275634D01*
X2009368Y-15286670D01*
X1989962Y-15295849D01*
X1969750Y-15303081D01*
X1948926Y-15308297D01*
X1927691Y-15311447D01*
X1906250Y-15312500D01*
X1393750Y-15312500D01*
X1372309Y-15311447D01*
X1351074Y-15308297D01*
X1330250Y-15303081D01*
X1310038Y-15295849D01*
X1290632Y-15286670D01*
X1272219Y-15275634D01*
X1254976Y-15262846D01*
X1239070Y-15248430D01*
X1224654Y-15232524D01*
X1211866Y-15215281D01*
X1200830Y-15196868D01*
X1191651Y-15177462D01*
X1184419Y-15157250D01*
X1179203Y-15136426D01*
X1176053Y-15115191D01*
X1175000Y-15093750D01*
X1175000Y-14656250D01*
X1176053Y-14634809D01*
X1179203Y-14613574D01*
X1184419Y-14592750D01*
X1191651Y-14572538D01*
X1200830Y-14553132D01*
X1211866Y-14534719D01*
X1224654Y-14517476D01*
X1239070Y-14501570D01*
X1254976Y-14487154D01*
X1272219Y-14474366D01*
X1290632Y-14463330D01*
X1310038Y-14454151D01*
X1330250Y-14446919D01*
X1351074Y-14441703D01*
X1372309Y-14438553D01*
X1393750Y-14437500D01*
X1906250Y-14437500D01*
X1927691Y-14438553D01*
G37*
G36*
X7527691Y-26163553D02*
G01*
X7548926Y-26166703D01*
X7569750Y-26171919D01*
X7589962Y-26179151D01*
X7609368Y-26188330D01*
X7627781Y-26199366D01*
X7645024Y-26212154D01*
X7660930Y-26226570D01*
X7675346Y-26242476D01*
X7688134Y-26259719D01*
X7699170Y-26278132D01*
X7708349Y-26297538D01*
X7715581Y-26317750D01*
X7720797Y-26338574D01*
X7723947Y-26359809D01*
X7725000Y-26381250D01*
X7725000Y-26818750D01*
X7723947Y-26840191D01*
X7720797Y-26861426D01*
X7715581Y-26882250D01*
X7708349Y-26902462D01*
X7699170Y-26921868D01*
X7688134Y-26940281D01*
X7675346Y-26957524D01*
X7660930Y-26973430D01*
X7645024Y-26987846D01*
X7627781Y-27000634D01*
X7609368Y-27011670D01*
X7589962Y-27020849D01*
X7569750Y-27028081D01*
X7548926Y-27033297D01*
X7527691Y-27036447D01*
X7506250Y-27037500D01*
X6993750Y-27037500D01*
X6972309Y-27036447D01*
X6951074Y-27033297D01*
X6930250Y-27028081D01*
X6910038Y-27020849D01*
X6890632Y-27011670D01*
X6872219Y-27000634D01*
X6854976Y-26987846D01*
X6839070Y-26973430D01*
X6824654Y-26957524D01*
X6811866Y-26940281D01*
X6800830Y-26921868D01*
X6791651Y-26902462D01*
X6784419Y-26882250D01*
X6779203Y-26861426D01*
X6776053Y-26840191D01*
X6775000Y-26818750D01*
X6775000Y-26381250D01*
X6776053Y-26359809D01*
X6779203Y-26338574D01*
X6784419Y-26317750D01*
X6791651Y-26297538D01*
X6800830Y-26278132D01*
X6811866Y-26259719D01*
X6824654Y-26242476D01*
X6839070Y-26226570D01*
X6854976Y-26212154D01*
X6872219Y-26199366D01*
X6890632Y-26188330D01*
X6910038Y-26179151D01*
X6930250Y-26171919D01*
X6951074Y-26166703D01*
X6972309Y-26163553D01*
X6993750Y-26162500D01*
X7506250Y-26162500D01*
X7527691Y-26163553D01*
G37*
G36*
X7527691Y-27738553D02*
G01*
X7548926Y-27741703D01*
X7569750Y-27746919D01*
X7589962Y-27754151D01*
X7609368Y-27763330D01*
X7627781Y-27774366D01*
X7645024Y-27787154D01*
X7660930Y-27801570D01*
X7675346Y-27817476D01*
X7688134Y-27834719D01*
X7699170Y-27853132D01*
X7708349Y-27872538D01*
X7715581Y-27892750D01*
X7720797Y-27913574D01*
X7723947Y-27934809D01*
X7725000Y-27956250D01*
X7725000Y-28393750D01*
X7723947Y-28415191D01*
X7720797Y-28436426D01*
X7715581Y-28457250D01*
X7708349Y-28477462D01*
X7699170Y-28496868D01*
X7688134Y-28515281D01*
X7675346Y-28532524D01*
X7660930Y-28548430D01*
X7645024Y-28562846D01*
X7627781Y-28575634D01*
X7609368Y-28586670D01*
X7589962Y-28595849D01*
X7569750Y-28603081D01*
X7548926Y-28608297D01*
X7527691Y-28611447D01*
X7506250Y-28612500D01*
X6993750Y-28612500D01*
X6972309Y-28611447D01*
X6951074Y-28608297D01*
X6930250Y-28603081D01*
X6910038Y-28595849D01*
X6890632Y-28586670D01*
X6872219Y-28575634D01*
X6854976Y-28562846D01*
X6839070Y-28548430D01*
X6824654Y-28532524D01*
X6811866Y-28515281D01*
X6800830Y-28496868D01*
X6791651Y-28477462D01*
X6784419Y-28457250D01*
X6779203Y-28436426D01*
X6776053Y-28415191D01*
X6775000Y-28393750D01*
X6775000Y-27956250D01*
X6776053Y-27934809D01*
X6779203Y-27913574D01*
X6784419Y-27892750D01*
X6791651Y-27872538D01*
X6800830Y-27853132D01*
X6811866Y-27834719D01*
X6824654Y-27817476D01*
X6839070Y-27801570D01*
X6854976Y-27787154D01*
X6872219Y-27774366D01*
X6890632Y-27763330D01*
X6910038Y-27754151D01*
X6930250Y-27746919D01*
X6951074Y-27741703D01*
X6972309Y-27738553D01*
X6993750Y-27737500D01*
X7506250Y-27737500D01*
X7527691Y-27738553D01*
G37*
G36*
X10977691Y-26163553D02*
G01*
X10998926Y-26166703D01*
X11019750Y-26171919D01*
X11039962Y-26179151D01*
X11059368Y-26188330D01*
X11077781Y-26199366D01*
X11095024Y-26212154D01*
X11110930Y-26226570D01*
X11125346Y-26242476D01*
X11138134Y-26259719D01*
X11149170Y-26278132D01*
X11158349Y-26297538D01*
X11165581Y-26317750D01*
X11170797Y-26338574D01*
X11173947Y-26359809D01*
X11175000Y-26381250D01*
X11175000Y-26818750D01*
X11173947Y-26840191D01*
X11170797Y-26861426D01*
X11165581Y-26882250D01*
X11158349Y-26902462D01*
X11149170Y-26921868D01*
X11138134Y-26940281D01*
X11125346Y-26957524D01*
X11110930Y-26973430D01*
X11095024Y-26987846D01*
X11077781Y-27000634D01*
X11059368Y-27011670D01*
X11039962Y-27020849D01*
X11019750Y-27028081D01*
X10998926Y-27033297D01*
X10977691Y-27036447D01*
X10956250Y-27037500D01*
X10443750Y-27037500D01*
X10422309Y-27036447D01*
X10401074Y-27033297D01*
X10380250Y-27028081D01*
X10360038Y-27020849D01*
X10340632Y-27011670D01*
X10322219Y-27000634D01*
X10304976Y-26987846D01*
X10289070Y-26973430D01*
X10274654Y-26957524D01*
X10261866Y-26940281D01*
X10250830Y-26921868D01*
X10241651Y-26902462D01*
X10234419Y-26882250D01*
X10229203Y-26861426D01*
X10226053Y-26840191D01*
X10225000Y-26818750D01*
X10225000Y-26381250D01*
X10226053Y-26359809D01*
X10229203Y-26338574D01*
X10234419Y-26317750D01*
X10241651Y-26297538D01*
X10250830Y-26278132D01*
X10261866Y-26259719D01*
X10274654Y-26242476D01*
X10289070Y-26226570D01*
X10304976Y-26212154D01*
X10322219Y-26199366D01*
X10340632Y-26188330D01*
X10360038Y-26179151D01*
X10380250Y-26171919D01*
X10401074Y-26166703D01*
X10422309Y-26163553D01*
X10443750Y-26162500D01*
X10956250Y-26162500D01*
X10977691Y-26163553D01*
G37*
G36*
X10977691Y-27738553D02*
G01*
X10998926Y-27741703D01*
X11019750Y-27746919D01*
X11039962Y-27754151D01*
X11059368Y-27763330D01*
X11077781Y-27774366D01*
X11095024Y-27787154D01*
X11110930Y-27801570D01*
X11125346Y-27817476D01*
X11138134Y-27834719D01*
X11149170Y-27853132D01*
X11158349Y-27872538D01*
X11165581Y-27892750D01*
X11170797Y-27913574D01*
X11173947Y-27934809D01*
X11175000Y-27956250D01*
X11175000Y-28393750D01*
X11173947Y-28415191D01*
X11170797Y-28436426D01*
X11165581Y-28457250D01*
X11158349Y-28477462D01*
X11149170Y-28496868D01*
X11138134Y-28515281D01*
X11125346Y-28532524D01*
X11110930Y-28548430D01*
X11095024Y-28562846D01*
X11077781Y-28575634D01*
X11059368Y-28586670D01*
X11039962Y-28595849D01*
X11019750Y-28603081D01*
X10998926Y-28608297D01*
X10977691Y-28611447D01*
X10956250Y-28612500D01*
X10443750Y-28612500D01*
X10422309Y-28611447D01*
X10401074Y-28608297D01*
X10380250Y-28603081D01*
X10360038Y-28595849D01*
X10340632Y-28586670D01*
X10322219Y-28575634D01*
X10304976Y-28562846D01*
X10289070Y-28548430D01*
X10274654Y-28532524D01*
X10261866Y-28515281D01*
X10250830Y-28496868D01*
X10241651Y-28477462D01*
X10234419Y-28457250D01*
X10229203Y-28436426D01*
X10226053Y-28415191D01*
X10225000Y-28393750D01*
X10225000Y-27956250D01*
X10226053Y-27934809D01*
X10229203Y-27913574D01*
X10234419Y-27892750D01*
X10241651Y-27872538D01*
X10250830Y-27853132D01*
X10261866Y-27834719D01*
X10274654Y-27817476D01*
X10289070Y-27801570D01*
X10304976Y-27787154D01*
X10322219Y-27774366D01*
X10340632Y-27763330D01*
X10360038Y-27754151D01*
X10380250Y-27746919D01*
X10401074Y-27741703D01*
X10422309Y-27738553D01*
X10443750Y-27737500D01*
X10956250Y-27737500D01*
X10977691Y-27738553D01*
G37*
G36*
X18477691Y-15688553D02*
G01*
X18498926Y-15691703D01*
X18519750Y-15696919D01*
X18539962Y-15704151D01*
X18559368Y-15713330D01*
X18577781Y-15724366D01*
X18595024Y-15737154D01*
X18610930Y-15751570D01*
X18625346Y-15767476D01*
X18638134Y-15784719D01*
X18649170Y-15803132D01*
X18658349Y-15822538D01*
X18665581Y-15842750D01*
X18670797Y-15863574D01*
X18673947Y-15884809D01*
X18675000Y-15906250D01*
X18675000Y-16343750D01*
X18673947Y-16365191D01*
X18670797Y-16386426D01*
X18665581Y-16407250D01*
X18658349Y-16427462D01*
X18649170Y-16446868D01*
X18638134Y-16465281D01*
X18625346Y-16482524D01*
X18610930Y-16498430D01*
X18595024Y-16512846D01*
X18577781Y-16525634D01*
X18559368Y-16536670D01*
X18539962Y-16545849D01*
X18519750Y-16553081D01*
X18498926Y-16558297D01*
X18477691Y-16561447D01*
X18456250Y-16562500D01*
X17943750Y-16562500D01*
X17922309Y-16561447D01*
X17901074Y-16558297D01*
X17880250Y-16553081D01*
X17860038Y-16545849D01*
X17840632Y-16536670D01*
X17822219Y-16525634D01*
X17804976Y-16512846D01*
X17789070Y-16498430D01*
X17774654Y-16482524D01*
X17761866Y-16465281D01*
X17750830Y-16446868D01*
X17741651Y-16427462D01*
X17734419Y-16407250D01*
X17729203Y-16386426D01*
X17726053Y-16365191D01*
X17725000Y-16343750D01*
X17725000Y-15906250D01*
X17726053Y-15884809D01*
X17729203Y-15863574D01*
X17734419Y-15842750D01*
X17741651Y-15822538D01*
X17750830Y-15803132D01*
X17761866Y-15784719D01*
X17774654Y-15767476D01*
X17789070Y-15751570D01*
X17804976Y-15737154D01*
X17822219Y-15724366D01*
X17840632Y-15713330D01*
X17860038Y-15704151D01*
X17880250Y-15696919D01*
X17901074Y-15691703D01*
X17922309Y-15688553D01*
X17943750Y-15687500D01*
X18456250Y-15687500D01*
X18477691Y-15688553D01*
G37*
G36*
X18477691Y-17263553D02*
G01*
X18498926Y-17266703D01*
X18519750Y-17271919D01*
X18539962Y-17279151D01*
X18559368Y-17288330D01*
X18577781Y-17299366D01*
X18595024Y-17312154D01*
X18610930Y-17326570D01*
X18625346Y-17342476D01*
X18638134Y-17359719D01*
X18649170Y-17378132D01*
X18658349Y-17397538D01*
X18665581Y-17417750D01*
X18670797Y-17438574D01*
X18673947Y-17459809D01*
X18675000Y-17481250D01*
X18675000Y-17918750D01*
X18673947Y-17940191D01*
X18670797Y-17961426D01*
X18665581Y-17982250D01*
X18658349Y-18002462D01*
X18649170Y-18021868D01*
X18638134Y-18040281D01*
X18625346Y-18057524D01*
X18610930Y-18073430D01*
X18595024Y-18087846D01*
X18577781Y-18100634D01*
X18559368Y-18111670D01*
X18539962Y-18120849D01*
X18519750Y-18128081D01*
X18498926Y-18133297D01*
X18477691Y-18136447D01*
X18456250Y-18137500D01*
X17943750Y-18137500D01*
X17922309Y-18136447D01*
X17901074Y-18133297D01*
X17880250Y-18128081D01*
X17860038Y-18120849D01*
X17840632Y-18111670D01*
X17822219Y-18100634D01*
X17804976Y-18087846D01*
X17789070Y-18073430D01*
X17774654Y-18057524D01*
X17761866Y-18040281D01*
X17750830Y-18021868D01*
X17741651Y-18002462D01*
X17734419Y-17982250D01*
X17729203Y-17961426D01*
X17726053Y-17940191D01*
X17725000Y-17918750D01*
X17725000Y-17481250D01*
X17726053Y-17459809D01*
X17729203Y-17438574D01*
X17734419Y-17417750D01*
X17741651Y-17397538D01*
X17750830Y-17378132D01*
X17761866Y-17359719D01*
X17774654Y-17342476D01*
X17789070Y-17326570D01*
X17804976Y-17312154D01*
X17822219Y-17299366D01*
X17840632Y-17288330D01*
X17860038Y-17279151D01*
X17880250Y-17271919D01*
X17901074Y-17266703D01*
X17922309Y-17263553D01*
X17943750Y-17262500D01*
X18456250Y-17262500D01*
X18477691Y-17263553D01*
G37*
G36*
X18477691Y-20988553D02*
G01*
X18498926Y-20991703D01*
X18519750Y-20996919D01*
X18539962Y-21004151D01*
X18559368Y-21013330D01*
X18577781Y-21024366D01*
X18595024Y-21037154D01*
X18610930Y-21051570D01*
X18625346Y-21067476D01*
X18638134Y-21084719D01*
X18649170Y-21103132D01*
X18658349Y-21122538D01*
X18665581Y-21142750D01*
X18670797Y-21163574D01*
X18673947Y-21184809D01*
X18675000Y-21206250D01*
X18675000Y-21643750D01*
X18673947Y-21665191D01*
X18670797Y-21686426D01*
X18665581Y-21707250D01*
X18658349Y-21727462D01*
X18649170Y-21746868D01*
X18638134Y-21765281D01*
X18625346Y-21782524D01*
X18610930Y-21798430D01*
X18595024Y-21812846D01*
X18577781Y-21825634D01*
X18559368Y-21836670D01*
X18539962Y-21845849D01*
X18519750Y-21853081D01*
X18498926Y-21858297D01*
X18477691Y-21861447D01*
X18456250Y-21862500D01*
X17943750Y-21862500D01*
X17922309Y-21861447D01*
X17901074Y-21858297D01*
X17880250Y-21853081D01*
X17860038Y-21845849D01*
X17840632Y-21836670D01*
X17822219Y-21825634D01*
X17804976Y-21812846D01*
X17789070Y-21798430D01*
X17774654Y-21782524D01*
X17761866Y-21765281D01*
X17750830Y-21746868D01*
X17741651Y-21727462D01*
X17734419Y-21707250D01*
X17729203Y-21686426D01*
X17726053Y-21665191D01*
X17725000Y-21643750D01*
X17725000Y-21206250D01*
X17726053Y-21184809D01*
X17729203Y-21163574D01*
X17734419Y-21142750D01*
X17741651Y-21122538D01*
X17750830Y-21103132D01*
X17761866Y-21084719D01*
X17774654Y-21067476D01*
X17789070Y-21051570D01*
X17804976Y-21037154D01*
X17822219Y-21024366D01*
X17840632Y-21013330D01*
X17860038Y-21004151D01*
X17880250Y-20996919D01*
X17901074Y-20991703D01*
X17922309Y-20988553D01*
X17943750Y-20987500D01*
X18456250Y-20987500D01*
X18477691Y-20988553D01*
G37*
G36*
X18477691Y-19413553D02*
G01*
X18498926Y-19416703D01*
X18519750Y-19421919D01*
X18539962Y-19429151D01*
X18559368Y-19438330D01*
X18577781Y-19449366D01*
X18595024Y-19462154D01*
X18610930Y-19476570D01*
X18625346Y-19492476D01*
X18638134Y-19509719D01*
X18649170Y-19528132D01*
X18658349Y-19547538D01*
X18665581Y-19567750D01*
X18670797Y-19588574D01*
X18673947Y-19609809D01*
X18675000Y-19631250D01*
X18675000Y-20068750D01*
X18673947Y-20090191D01*
X18670797Y-20111426D01*
X18665581Y-20132250D01*
X18658349Y-20152462D01*
X18649170Y-20171868D01*
X18638134Y-20190281D01*
X18625346Y-20207524D01*
X18610930Y-20223430D01*
X18595024Y-20237846D01*
X18577781Y-20250634D01*
X18559368Y-20261670D01*
X18539962Y-20270849D01*
X18519750Y-20278081D01*
X18498926Y-20283297D01*
X18477691Y-20286447D01*
X18456250Y-20287500D01*
X17943750Y-20287500D01*
X17922309Y-20286447D01*
X17901074Y-20283297D01*
X17880250Y-20278081D01*
X17860038Y-20270849D01*
X17840632Y-20261670D01*
X17822219Y-20250634D01*
X17804976Y-20237846D01*
X17789070Y-20223430D01*
X17774654Y-20207524D01*
X17761866Y-20190281D01*
X17750830Y-20171868D01*
X17741651Y-20152462D01*
X17734419Y-20132250D01*
X17729203Y-20111426D01*
X17726053Y-20090191D01*
X17725000Y-20068750D01*
X17725000Y-19631250D01*
X17726053Y-19609809D01*
X17729203Y-19588574D01*
X17734419Y-19567750D01*
X17741651Y-19547538D01*
X17750830Y-19528132D01*
X17761866Y-19509719D01*
X17774654Y-19492476D01*
X17789070Y-19476570D01*
X17804976Y-19462154D01*
X17822219Y-19449366D01*
X17840632Y-19438330D01*
X17860038Y-19429151D01*
X17880250Y-19421919D01*
X17901074Y-19416703D01*
X17922309Y-19413553D01*
X17943750Y-19412500D01*
X18456250Y-19412500D01*
X18477691Y-19413553D01*
G37*
D12*
X2200000Y-17550000D03*
X3500000Y-17550000D03*
X2850000Y-19450000D03*
X2850000Y-17550000D03*
X3500000Y-19450000D03*
X2200000Y-19450000D03*
D13*
X1175000Y-11025000D03*
D14*
X1350000Y-10600000D03*
D15*
X1350000Y-9950000D03*
X1750000Y-9950000D03*
X2150000Y-9950000D03*
X2550000Y-9950000D03*
X2950000Y-9950000D03*
D14*
X2950000Y-10600000D03*
D15*
X2950000Y-11250000D03*
X2550000Y-11250000D03*
X2150000Y-11250000D03*
X1750000Y-11250000D03*
X1350000Y-11250000D03*
M02*
