M48
; DRILL file {KiCad (5.1.5)-3} date 20/07/2021 23:36:15
; FORMAT={-:-/ absolute / metric / decimal}
; #@! TF.CreationDate,2021-07-20T23:36:15+09:00
; #@! TF.GenerationSoftware,Kicad,Pcbnew,(5.1.5)-3
; #@! TF.FileFunction,Plated,1,2,PTH
FMAT,2
METRIC
T1C0.400
T2C0.500
T3C0.600
T4C0.700
T5C1.000
%
G90
G05
T1
X1.05Y-5.05
X1.15Y-24.8
X1.35Y-16.2
X2.4Y-15.9
X3.45Y-13.35
X3.45Y-16.4
X3.6Y-18.5
X4.025Y-9.725
X4.35Y-12.25
X4.45Y-13.25
X5.0Y-29.0
X9.2Y-6.6
X12.8Y-27.4
X15.5Y-2.05
X17.05Y-27.4
X18.45Y-25.2
T2
X2.6Y-6.0
X6.2Y-27.35
T3
X7.25Y-4.25
X8.5Y-4.25
X9.75Y-4.25
X11.0Y-4.25
X12.25Y-4.25
X13.5Y-4.25
X14.75Y-4.25
T4
X5.65Y-8.975
X5.65Y-10.755
X5.65Y-12.535
X5.65Y-14.315
X5.65Y-16.095
X5.65Y-17.875
X5.65Y-19.655
X5.65Y-21.435
X16.35Y-9.865
X16.35Y-11.645
X16.35Y-13.425
X16.35Y-15.205
X16.35Y-16.985
X16.35Y-18.765
X16.35Y-20.545
X16.35Y-22.325
T5
X20.45Y-6.07
X20.45Y-8.61
X20.45Y-11.15
X20.45Y-13.69
X20.45Y-16.23
X20.45Y-18.77
X20.45Y-21.31
X20.45Y-23.85
T0
M30
